<svg xmlns="http://www.w3.org/2000/svg" xmlns:xlink="http://www.w3.org/1999/xlink"
    width="400" height="300" viewBox="0 0 400 300" fill="none">
    <ellipse cx="186.98777770996094" cy="227.57049560546875" rx="63.5" ry="18.5"
        style="fill: var(--color-svg-muted)">
    </ellipse>
    <path
        d="M279.823 161.405C271.708 163.164 273.214 154.504 263.593 155.78C253.973 157.056 252.656 163.867 252.656 179.689C252.656 195.512 249.833 201.138 243.835 209.225C237.837 217.312 225.488 219.07 225.488 219.07L225.488 212.038C241.365 203.248 240.307 184.26 240.307 184.26C239.248 165.273 240.307 152.967 252.656 145.231C265.005 137.496 280.882 141.715 282.999 148.396C282.999 148.396 287.938 159.647 279.823 161.405Z"
        style="fill: var(--color-svg-background)">
    </path>
    <path style="stroke: var(--color-svg-border)" stroke-width="2"
        d="M225.488 212.038C241.365 203.248 240.307 184.261 240.307 184.261C239.248 165.273 240.307 152.967 252.656 145.231C265.005 137.496 279.823 141.682 282.999 148.396C282.999 148.396 287.938 159.647 279.823 161.406C271.708 163.164 273.214 154.504 263.593 155.78C253.973 157.056 252.656 163.867 252.656 179.69C252.656 195.512 249.833 201.138 243.835 209.225C237.837 217.312 225.488 219.071 225.488 219.071">
    </path>
    <path
        d="M161.843 170.07L146.432 211.079C146.432 211.079 142.267 221.225 151.43 227.99C167.258 236.445 211.409 231.795 211.409 231.795C211.409 231.795 229.32 227.567 224.738 211.079C220.156 194.591 214.658 186.474 209.327 170.07L161.843 170.07Z"
        style="fill: var(--color-svg-background)">
    </path>
    <g mask="url(#mask-BajmPDUoLewfEhq8A2jb_)">
        <ellipse cx="185.48777770996094" cy="226.07049560546875" rx="22" ry="30"
            style="fill: var(--color-svg-accent)">
        </ellipse>
    </g>
    <path style="stroke: var(--color-svg-border)" stroke-width="2"
        d="M161.843 170.07L146.432 211.079C146.432 211.079 142.267 221.225 151.43 227.99C167.258 236.445 211.409 231.795 211.409 231.795C211.409 231.795 229.32 227.567 224.738 211.079C220.156 194.591 214.658 186.474 209.327 170.07">
    </path>
    <path
        d="M163.569 79.8213C163.569 79.8213 152.527 69.1967 149.624 70.2738C146.721 71.3509 147.778 87.6848 147.778 87.6848L155.022 83.1635L163.569 79.8213Z"
        style="fill: var(--color-svg-accent)">
    </path>
    <path
        d="M227.315 95.487C227.315 95.487 232.28 79.3159 230.641 77.6822C229.002 76.0485 213.534 83.036 213.534 83.036C213.534 83.036 218.897 86.719 221.382 88.7727C223.867 90.8264 227.315 95.487 227.315 95.487Z"
        style="fill: var(--color-svg-accent)">
    </path>
    <path style="stroke: var(--color-svg-border)" stroke-width="2" stroke-linejoin="round"
        stroke-linecap="round"
        d="M177.544 75.9823C177.544 75.9823 152.143 51.5216 143.169 53.2377C134.194 54.9538 136.058 99.4343 136.058 99.4343">
    </path>
    <path style="stroke: var(--color-svg-border)" stroke-width="2" stroke-linejoin="round"
        stroke-linecap="round"
        d="M235.137 109.587C235.137 109.587 249.253 66.6432 244.187 63.0971C239.12 59.551 202.342 78.6199 202.342 78.6199">
    </path>
    <path style="stroke: var(--color-svg-border)" stroke-width="2" stroke-linejoin="round"
        stroke-linecap="round"
        d="M208.628 171.071C214.902 168.128 217.412 167.287 221.513 163.736C232.162 154.513 237.488 141.41 237.488 126.933C237.488 95.4068 213.837 76.0705 183.115 76.0705C152.393 76.0705 127.488 98.8426 127.488 126.933C127.488 145.849 133.343 155.517 144.718 163.736C150.91 168.548 160.948 171.071 167.64 171.071">
    </path>
    <path
        d="M169.666 198.682C169.666 198.682 177.267 215.7 176.422 221.231C176.422 226.762 171.355 225.911 169.666 225.06C167.977 224.209 162.488 218.253 162.488 218.253L169.666 198.682Z"
        style="fill: var(--color-svg-background)">
    </path>
    <path style="stroke: var(--color-svg-border)" stroke-width="2" stroke-linejoin="round"
        stroke-linecap="round"
        d="M169.668 199.681C169.668 199.681 177.269 216.7 176.424 222.231C176.424 227.762 171.357 226.911 169.668 226.06C167.979 225.209 162.49 219.252 162.49 219.252">
    </path>
    <ellipse cx="156.17259216308594" cy="125.38983154296875"
        transform="rotate(17.92836357448093 153.17259216308594 120.38983154296875)" rx="3" ry="5"
        style="fill: var(--color-svg-border)">
    </ellipse>
    <path style="stroke: var(--color-svg-border)" stroke-width="1" stroke-linecap="round"
        d="M154.984 128.057C156.737 125.271 156.699 121.254 154.386 120.506C152.073 119.758 148.757 122.106 147.673 125.459">
    </path>
    <ellipse cx="204.2899310777489" cy="130.6846032059965"
        transform="rotate(6.364872157588191 195.67213439941406 119.41787719726562)"
        rx="8.61779667833482" ry="11.266726008730874" style="fill: var(--color-svg-border)">
    </ellipse>
    <path style="stroke: var(--color-svg-border)" stroke-width="3" stroke-linecap="round"
        d="M189.539 133.459C191.093 124.764 194.523 120.505 201.966 121.036C209.408 121.566 210.005 130.06 208.568 136.073">
    </path>
    <rect x="204.6726837158203" y="147.415283203125" width="2" height="7"
        transform="rotate(-13.964936644480016 204.6726837158203 147.415283203125)" rx="1"
        style="fill: var(--color-primary)">
    </rect>
    <rect x="144.5225372314453" y="134.08062744140625" width="2" height="7"
        transform="rotate(32.46048266846358 144.5225372314453 134.08062744140625)" rx="1"
        style="fill: var(--color-primary)">
    </rect>
    <rect x="211.3938751220703" y="146.28594970703125" width="2" height="4"
        transform="rotate(-42.894116839013215 211.3938751220703 146.28594970703125)" rx="1"
        style="fill: var(--color-primary)">
    </rect>
    <rect x="145.86012268066406" y="135.95208740234375" width="2" height="5"
        transform="rotate(8.321511835581376 145.86012268066406 135.95208740234375)" rx="1"
        style="fill: var(--color-primary)">
    </rect>
    <rect x="198.67481994628906" y="147.02838134765625" width="2" height="8"
        transform="rotate(2.6647985723303536 198.67481994628906 147.02838134765625)" rx="1"
        style="fill: var(--color-primary)">
    </rect>
    <rect x="143.16151428222656" y="131.33810424804688" width="2" height="7"
        transform="rotate(43.32032991069716 143.16151428222656 131.33810424804688)" rx="1"
        style="fill: var(--color-primary)">
    </rect>
    <path style="fill: var(--color-primary); filter: brightness(115%);"
        d="M206.138 200.05C206.68 201.905 208.624 202.97 210.479 202.427C212.334 201.885 213.399 199.941 212.856 198.086L204.86 170.731L198.142 172.695L206.138 200.05">
    </path>
    <ellipse cx="200.21485900878906" cy="171.56634521484375"
        transform="rotate(-15.987125337669044 191.71485900878906 167.56634521484375)" rx="8.5"
        ry="4" style="fill: var(--color-primary); filter: brightness(115%);">
    </ellipse>
    <path
        d="M203.091 170.915C207.604 169.622 210.769 166.853 210.161 164.729C209.552 162.606 205.401 161.932 200.888 163.225C196.375 164.518 193.21 167.287 193.819 169.411C194.427 171.535 198.579 172.208 203.091 170.915ZM212.199 199.466C210.344 200.009 208.4 198.944 207.858 197.089L200.422 171.654C200.422 171.654 202.723 171.471 204.067 171.079C205.411 170.686 207.141 169.69 207.141 169.69L214.577 195.125C215.119 196.98 214.055 198.924 212.199 199.466Z"
        style="stroke: var(--color-primary)" stroke-width="3">
    </path>
    <ellipse cx="189.99000549316406" cy="135.57000732421875" rx="28.5" ry="30"
        style="stroke: var(--color-primary); filter: brightness(115%);" stroke-width="8">
    </ellipse>
    <ellipse cx="192.98777770996094" cy="132.57052612304688" rx="32.5" ry="33.5"
        style="stroke: var(--color-primary);" stroke-width="3">
    </ellipse>
    <path
        d="M212.264 178.374C212.264 178.374 200.514 177.532 197.174 178.374C193.833 179.216 189.936 181.321 193.276 186.372C196.617 191.423 220 199 220 199L212.264 178.374Z"
        style="fill: var(--color-svg-background)">
    </path>
    <path
        d="M212.264 178.374C212.264 178.374 200.514 177.532 197.174 178.374C193.833 179.216 189.936 181.321 193.276 186.372C196.617 191.423 220 199 220 199L212.264 178.374Z"
        style="stroke: var(--color-svg-border);" stroke-width="2">
    </path>
    <path style="stroke: var(--color-primary)" stroke-width="1" stroke-linecap="round"
        d="M288.515 156.484C289.281 155.689 289.257 154.423 288.461 153.657">
    </path>
    <path style="stroke: var(--color-primary)" stroke-width="1" stroke-linecap="round"
        d="M292.831 158.436C294.866 155.994 294.617 152.164 291.841 150.592">
    </path>
    <defs>
        <mask id="mask-BajmPDUoLewfEhq8A2jb_" style="mask-type:alpha" maskUnits="userSpaceOnUse">
            <path
                d="M161.843 170.07L146.432 211.079C146.432 211.079 142.267 221.225 151.43 227.99C167.258 236.445 211.409 231.795 211.409 231.795C211.409 231.795 229.32 227.567 224.738 211.079C220.156 194.591 214.658 186.474 209.327 170.07L161.843 170.07Z"
                fill="#FFFFFF">
            </path>
        </mask>
    </defs>
</svg>
    