<svg xmlns="http://www.w3.org/2000/svg" xmlns:xlink="http://www.w3.org/1999/xlink" width="400"
    height="300" viewBox="0 0 400 300" fill="none">
    <ellipse cx="201.5" cy="220" rx="102.5" ry="17" style="fill: var(--color-svg-muted)">
    </ellipse>
    <path
        d="M269.488 184.682C269.488 184.682 288.488 188.682 285.988 203.182C283.488 217.682 272.988 220.182 262.988 222.682C252.988 225.182 246.488 220.182 233.488 218.682C220.488 217.182 216.488 221.682 216.488 227.682C216.488 233.682 222.792 240.994 246.988 238.182C271.184 235.37 294.488 231.182 298.488 205.682C300.988 179.182 262.988 170.182 262.988 170.182C262.988 170.182 267.988 177.682 269.488 184.682Z"
        style="fill: var(--color-svg-background)">
    </path>
    <path
        d="M269.488 184.682C269.488 184.682 288.488 188.682 285.988 203.182C283.488 217.682 271.488 222.682 262.988 222.682C254.488 222.682 246.488 220.182 233.488 218.682C220.488 217.182 216.488 221.682 216.488 227.682C216.488 233.682 222.792 240.994 246.988 238.182C271.184 235.37 294.488 231.182 298.488 205.682C300.988 179.182 262.988 170.182 262.988 170.182C262.988 170.182 267.988 177.682 269.488 184.682Z"
        style="stroke: var(--color-svg-border)" stroke-width="2">
    </path>
    <path style="stroke: var(--color-primary)" stroke-width="1" stroke-linecap="round"
        d="M216.671 238.894C215.574 238.77 214.785 237.779 214.909 236.682">
    </path>
    <path style="stroke: var(--color-primary)" stroke-width="1" stroke-linecap="round"
        d="M214.712 243.278C211.613 242.652 209.324 239.609 210.384 236.758">
    </path>
    <path
        d="M140.488 129.483C140.488 129.483 111.551 114.293 107.988 116.682C104.424 119.07 112.988 148.182 112.988 148.182C112.988 148.182 119.192 140.306 124.988 136.682C130.784 133.057 140.488 129.483 140.488 129.483Z"
        style="fill: var(--color-svg-background)">
    </path>
    <path
        d="M202.326 147.884C202.326 147.884 213.667 118.506 210.682 115.518C207.696 112.531 173.562 128.865 173.562 128.865C173.562 128.865 184.176 132.403 190.272 136.509C196.369 140.615 202.326 147.884 202.326 147.884Z"
        style="fill: var(--color-svg-background)">
    </path>
    <path
        d="M130.488 133.983C130.488 133.983 118.425 126.74 116.888 127.785C115.352 128.83 118.732 141.682 118.732 141.682L130.488 133.983Z"
        style="fill: var(--color-svg-accent)">
    </path>
    <path
        d="M197.541 142.086C197.541 142.086 202.34 127.835 200.996 126.485C199.651 125.135 184.174 132.554 184.174 132.554C184.174 132.554 188.7 135.498 191.374 137.405C194.047 139.311 197.541 142.086 197.541 142.086Z"
        style="fill: var(--color-svg-accent)">
    </path>
    <path style="stroke: var(--color-svg-border)" stroke-width="2" stroke-linejoin="round"
        stroke-linecap="round"
        d="M139.988 129.182C139.988 129.182 111.551 114.293 107.988 116.682C104.424 119.07 112.988 147.182 112.988 147.182">
    </path>
    <path style="stroke: var(--color-svg-border)" stroke-width="2" stroke-linejoin="round"
        stroke-linecap="round"
        d="M202.326 147.884C202.326 147.884 213.667 118.506 210.682 115.518C207.696 112.531 173.562 128.865 173.562 128.865">
    </path>
    <path
        d="M183.988 214.68L235.488 215.68L261.718 215.68C264.104 215.68 266.391 214.589 267.488 212.47C269.928 207.757 273.288 198 269.488 184.18C267.988 176.18 260.488 160.18 244.488 160.18C229.181 160.18 210.488 174.68 210.488 174.68L183.988 214.68"
        style="fill: var(--color-svg-background)">
    </path>
    <ellipse cx="157.48777770996094" cy="172.18161010742188" rx="53" ry="45.5"
        style="fill: var(--color-svg-background)">
    </ellipse>
    <path style="stroke: var(--color-svg-border)" stroke-width="2" stroke-linecap="round"
        d="M205.412 190.425C208.36 184.801 210 178.565 210 172C210 147.147 186.495 127 157.5 127C128.505 127 105 147.147 105 172C105 196.853 128.505 217 157.5 217C164.147 217 170.505 215.941 176.358 214.01">
    </path>
    <path style="stroke: var(--color-svg-border)" stroke-width="2" stroke-linecap="round"
        d="M136.461 176.14C134.636 182.224 131.154 185.035 127.649 183.984C124.143 182.932 122.781 177.148 124.606 171.065">
    </path>
    <path style="stroke: var(--color-svg-border)" stroke-width="2" stroke-linecap="round"
        d="M161.906 175.757C163.731 181.841 167.213 184.652 170.718 183.6C174.223 182.549 175.586 176.765 173.761 170.682">
    </path>
    <path
        d="M148.988 190.666C150.961 190.543 152.488 189.701 152.488 188.682C152.488 187.577 150.697 186.682 148.488 186.682C146.279 186.682 144.488 187.577 144.488 188.682C144.488 189.701 146.015 190.543 147.988 190.666L147.988 192.182C147.988 192.458 148.212 192.682 148.488 192.682C148.764 192.682 148.988 192.458 148.988 192.182L148.988 190.666Z"
        fill-rule="evenodd" style="fill: var(--color-svg-border)">
    </path>
    <rect x="121.48857116699219" y="187.7783203125" width="2" height="5"
        transform="rotate(41.26949716311736 121.48857116699219 187.7783203125)" rx="1"
        style="fill: var(--color-primary)">
    </rect>
    <rect x="176.67593383789062" y="189.0975341796875" width="2" height="5"
        transform="rotate(-41.26949716311736 176.67593383789062 189.0975341796875)" rx="1"
        style="fill: var(--color-primary)">
    </rect>
    <rect x="178.99215698242188" y="188.04290771484375" width="2" height="4"
        transform="rotate(-42.894116839013215 178.99215698242188 188.04290771484375)" rx="1"
        style="fill: var(--color-primary)">
    </rect>
    <rect x="174.48776245117188" y="189.94110107421875" width="2" height="4"
        transform="rotate(-14.928406455401168 174.48776245117188 189.94110107421875)" rx="1"
        style="fill: var(--color-primary)">
    </rect>
    <rect x="119.2103500366211" y="186.68157958984375" width="2" height="4"
        transform="rotate(42.894116839013215 119.2103500366211 186.68157958984375)" rx="1"
        style="fill: var(--color-primary)">
    </rect>
    <rect x="123.24746704101562" y="189.42584228515625" width="2" height="4"
        transform="rotate(14.928406455401168 123.24746704101562 189.42584228515625)" rx="1"
        style="fill: var(--color-primary)">
    </rect>
    <path
        d="M122.99 217.68C127.49 219.68 135.218 217.239 138.49 215.68C142.16 213.845 137.6 209.778 134.08 207.67C129.924 205.181 126.086 203.059 121.49 205.18C114.99 208.18 118.49 215.68 122.99 217.68"
        style="fill: var(--color-svg-background)">
    </path>
    <path
        d="M121.905 206.086M121.905 206.086Q119.942 206.993 119.259 208.523Q118.659 209.869 119.082 211.561Q119.283 212.368 119.705 213.169Q120.121 213.959 120.708 214.663Q121.291 215.363 121.98 215.903Q122.67 216.443 123.393 216.764L122.986 217.678L123.393 216.764L122.986 217.678L123.393 216.764Q124.795 217.388 126.867 217.429Q128.732 217.466 131.009 217.031Q132.968 216.656 135.002 215.981Q136.735 215.405 138.056 214.775L138.486 215.678L138.039 214.784L138.486 215.678L138.039 214.784Q138.608 214.499 139.011 214.033Q139.392 213.592 139.521 213.109Q139.777 212.148 138.886 211.478L139.486 210.678L138.886 211.478L139.486 210.678L138.886 211.478Q135.214 208.72 131.76 207.15Q128.965 205.88 126.621 205.551Q123.894 205.168 121.905 206.086L121.486 205.178L121.905 206.086ZM121.067 204.27L121.067 204.27Q123.59 203.106 126.899 203.57Q129.529 203.939 132.587 205.329Q136.241 206.989 140.087 209.879L140.087 209.879L140.087 209.879Q141.055 210.606 141.403 211.632Q141.729 212.593 141.453 213.625Q141.206 214.551 140.525 215.34Q139.861 216.109 138.934 216.573L138.934 216.573L138.917 216.581Q137.484 217.264 135.632 217.879Q133.474 218.596 131.385 218.995Q128.901 219.47 126.827 219.429Q124.351 219.379 122.58 218.592L122.58 218.592L122.58 218.592Q121.632 218.171 120.747 217.477Q119.891 216.807 119.171 215.943Q118.449 215.077 117.936 214.101Q117.402 213.087 117.141 212.046Q116.863 210.932 116.919 209.871Q116.981 208.721 117.432 207.708Q118.421 205.492 121.067 204.27ZM138.917 216.581L138.486 215.678L138.934 216.573C138.931 216.574 138.928 216.575 138.925 216.577C138.922 216.578 138.919 216.58 138.917 216.581Z"
        style="fill: var(--color-svg-border)">
    </path>
    <path
        d="M209.873 173.893M209.873 173.893Q210.175 173.658 210.724 173.253Q211.816 172.45 213.07 171.591Q217.079 168.845 221.231 166.556Q227.059 163.343 232.351 161.503Q239.026 159.182 244.488 159.182L244.488 160.182L244.488 159.182L244.488 160.182L244.488 159.182Q250.38 159.182 255.412 161.929Q259.741 164.292 263.201 168.551Q266.106 172.126 268.113 176.651Q268.974 178.594 269.593 180.552Q270.164 182.361 270.471 183.997L269.488 184.182L270.452 183.916L269.488 184.182L270.452 183.916Q273.029 193.287 271.818 201.883Q271.346 205.228 270.311 208.327Q269.496 210.77 268.374 212.936L268.374 212.936L268.374 212.936Q267.432 214.756 265.557 215.756Q263.821 216.682 261.72 216.682L261.72 215.682L261.72 216.682L235.488 216.682L235.488 215.682L235.488 216.682L203.988 216.682L203.988 214.682L235.488 214.682L235.488 214.682L261.72 214.682L261.72 214.682Q263.321 214.682 264.616 213.991Q265.942 213.284 266.598 212.016L267.486 212.476L266.598 212.016L267.486 212.476L266.598 212.016Q267.648 209.989 268.414 207.693Q269.391 204.768 269.837 201.604Q270.991 193.418 268.524 184.447L268.524 184.447L268.505 184.366Q268.22 182.848 267.686 181.155Q267.101 179.303 266.285 177.462Q264.386 173.181 261.649 169.812Q258.437 165.859 254.454 163.684Q249.87 161.182 244.488 161.182L244.488 161.182L244.488 161.182Q239.364 161.182 233.008 163.392Q227.876 165.176 222.197 168.307Q218.129 170.55 214.2 173.241Q212.974 174.081 211.91 174.864Q211.382 175.252 211.103 175.47L209.873 173.893ZM268.505 184.366L269.488 184.182L268.524 184.447C268.52 184.433 268.517 184.42 268.513 184.406C268.51 184.393 268.507 184.379 268.505 184.366ZM203.988 216.682C203.435 216.682 202.988 216.234 202.988 215.682C202.988 215.129 203.435 214.682 203.988 214.682C204.54 214.682 204.988 215.129 204.988 215.682C204.988 216.234 204.54 216.682 203.988 216.682ZM210.488 175.682C209.935 175.682 209.488 175.234 209.488 174.682C209.488 174.129 209.935 173.682 210.488 173.682C211.04 173.682 211.488 174.129 211.488 174.682C211.488 175.234 211.04 175.682 210.488 175.682Z"
        style="fill: var(--color-svg-border)">
    </path>
    <path style="stroke: var(--color-svg-border)" stroke-width="2" stroke-linejoin="round"
        stroke-linecap="round"
        d="M246.488 188.682C246.488 188.682 234.488 201.682 238.488 210.682C234.488 212.682 234.488 215.682 234.488 215.682">
    </path>
    <path
        d="M188.488 205.682C188.488 205.682 176.988 209.682 175.488 213.182C173.988 216.682 175.488 219.182 187.488 219.182C199.488 219.182 208.488 213.182 208.488 213.182L188.488 205.682Z"
        style="fill: var(--color-svg-background)">
    </path>
    <path style="stroke: var(--color-svg-border)" stroke-width="2" stroke-linecap="round"
        d="M187.49 205.68C187.49 205.68 175.99 209.68 174.49 213.18C172.99 216.68 174.49 219.18 186.49 219.18C198.49 219.18 207.49 213.18 207.49 213.18">
    </path>
    <path
        d="M174.066 91.5432L189.197 88.225C189.667 88.1218 189.999 88.6764 189.682 89.0398L176.526 104.159C176.422 104.279 176.382 104.438 176.416 104.593L177.434 109.232C177.493 109.502 177.76 109.673 178.029 109.614L205.379 103.616C205.649 103.557 205.82 103.29 205.761 103.02L204.582 97.6478C204.523 97.3781 204.257 97.2074 203.987 97.2665L190.312 100.266C189.842 100.369 189.512 99.8147 189.826 99.4508L201.741 85.6274C201.844 85.5082 201.885 85.3475 201.851 85.1938L200.834 80.5541C200.774 80.2843 200.508 80.1136 200.238 80.1728L172.888 86.1709C172.618 86.23 172.448 86.4966 172.507 86.7664L173.471 91.1619C173.53 91.4316 173.796 91.6024 174.066 91.5432"
        style="fill: var(--color-primary); filter: brightness(115%);">
    </path>
    <path
        d="M187.701 102.375L201.376 99.3764L201.697 100.842L201.376 99.3764C202.455 99.1398 203.521 99.8226 203.758 100.902L202.293 101.223L203.758 100.902L204.936 106.274L203.471 106.595L204.936 106.274C205.173 107.353 204.49 108.419 203.411 108.656L203.09 107.191L203.411 108.656L176.061 114.654L175.74 113.189L176.061 114.654C174.982 114.891 173.916 114.208 173.679 113.129L173.679 113.129L172.662 108.49L174.127 108.169L172.662 108.49L174.127 108.169L172.662 108.49Q172.56 108.027 172.678 107.567Q172.795 107.107 173.106 106.749L174.238 107.734L173.106 106.749L186.258 91.6324L187.39 92.6169L186.258 91.6324C185.626 92.3592 186.286 93.4719 187.227 93.2655L186.906 91.8003L187.227 93.2655L172.098 96.5834L171.777 95.1182L172.098 96.5834C171.019 96.82 169.953 96.1372 169.716 95.0583L169.716 95.0583L168.752 90.6627L170.217 90.3414L168.752 90.6627C168.515 89.5838 169.198 88.5174 170.277 88.2807L170.277 88.2807L197.627 82.2827L197.949 83.7478L197.627 82.2827C198.706 82.046 199.773 82.7289 200.009 83.8078L198.544 84.1291L200.009 83.8078L201.027 88.4475L199.562 88.7689L201.027 88.4475L199.562 88.7689L201.027 88.4475Q201.128 88.9087 201.012 89.3664Q200.896 89.8242 200.588 90.1818L199.452 89.2024L200.588 90.1818L188.673 104.005L188.673 104.005C189.3 103.277 188.64 102.17 187.701 102.375L188.022 103.841L187.701 102.375ZM188.344 105.306L188.344 105.306C186.466 105.718 185.145 103.502 186.4 102.046L187.536 103.026L186.4 102.046L198.316 88.2231L198.316 88.2231Q198.162 88.4019 198.104 88.6307Q198.046 88.8596 198.096 89.0902L198.096 89.0902L198.096 89.0902L197.079 84.4504L197.079 84.4504C197.197 84.9899 197.73 85.3313 198.27 85.213L198.27 85.213L170.92 91.2111L170.598 89.7459L170.92 91.2111C171.459 91.0928 171.801 90.5596 171.682 90.0201L171.682 90.0201L172.646 94.4156L171.181 94.737L172.646 94.4156C172.528 93.8762 171.995 93.5348 171.455 93.6531L171.455 93.6531L186.584 90.3352L186.584 90.3352C188.466 89.9224 189.786 92.1479 188.522 93.6015L188.522 93.6015L175.37 108.718L175.37 108.718Q175.526 108.539 175.584 108.31Q175.643 108.08 175.592 107.848L175.592 107.848L175.592 107.848L176.609 112.486L175.144 112.808L176.609 112.486C176.491 111.947 175.958 111.605 175.418 111.724L175.418 111.724L202.768 105.726L202.768 105.726C202.229 105.844 201.888 106.377 202.006 106.917L202.006 106.917L200.828 101.544L200.828 101.544C200.946 102.084 201.479 102.425 202.019 102.307L202.019 102.307L188.344 105.306Z"
        style="fill: var(--color-primary)">
    </path>
    <path
        d="M229.398 69.3954L218.915 79.0759C218.801 79.1812 218.738 79.3376 218.752 79.4922L219.056 82.8586C219.081 83.1336 219.324 83.3365 219.599 83.3117L239.518 81.5156C239.793 81.4908 239.996 81.2477 239.971 80.9727L239.623 77.1183C239.599 76.8433 239.355 76.6405 239.08 76.6653L229.488 77.5201C229.014 77.5629 228.761 76.9854 229.11 76.6607L238.594 67.8232C238.707 67.7179 238.762 67.5615 238.748 67.4077L238.444 64.0414C238.419 63.7664 238.176 63.5635 237.901 63.5883L217.982 65.3844C217.707 65.4092 217.504 65.6522 217.529 65.9273L217.81 69.0446C217.835 69.3196 218.077 69.5125 218.352 69.4877L229.01 68.5368C229.485 68.4939 229.749 69.0715 229.398 69.3954"
        style="fill: var(--color-primary); filter: brightness(115%);">
    </path>
    <path
        d="M236.656 86.0062L216.737 87.8023L216.602 86.3084L216.737 87.8023C215.637 87.9015 214.665 87.0901 214.565 85.99L214.565 85.99L214.262 82.6248L215.756 82.4901L214.262 82.6248L215.756 82.4901L214.262 82.6248Q214.22 82.161 214.387 81.7265Q214.555 81.292 214.897 80.976L214.897 80.976L225.382 71.2917L226.4 72.3936L225.382 71.2917C224.681 71.9395 225.199 73.108 226.15 73.0222L226.016 71.5283L226.15 73.0222L215.491 73.9834L215.356 72.4894L215.491 73.9834C214.391 74.0826 213.419 73.2712 213.319 72.1711L213.319 72.1711L213.039 69.0587L214.533 68.924L213.039 69.0587C212.94 67.9586 213.751 66.9864 214.851 66.8872L214.851 66.8872L234.77 65.0911L234.905 66.585L234.77 65.0911C235.87 64.9919 236.843 65.8033 236.942 66.9034L235.448 67.0381L236.942 66.9034L237.245 70.27L235.751 70.4047L237.245 70.27L235.751 70.4047L237.245 70.27Q237.287 70.7313 237.121 71.164Q236.956 71.5966 236.617 71.9125L236.617 71.9125L227.132 80.755L226.109 79.6579L227.132 80.755C227.829 80.1056 227.309 78.9421 226.36 79.0276L226.495 80.5216L226.36 79.0276L235.949 78.1631L236.084 79.657L235.949 78.1631C237.049 78.0639 238.021 78.8753 238.12 79.9754L236.626 80.1101L238.12 79.9754L238.468 83.8347L236.974 83.9694L238.468 83.8347C238.568 84.9348 237.756 85.907 236.656 86.0062L236.521 84.5123L236.656 86.0062ZM236.387 83.0184L236.387 83.0184C235.837 83.068 235.431 83.5541 235.481 84.1041L235.481 84.1041L235.133 80.2448L235.133 80.2448C235.182 80.7948 235.668 81.2005 236.218 81.1509L236.218 81.1509L226.63 82.0155L226.63 82.0155C224.732 82.1866 223.693 79.8597 225.086 78.5607L225.086 78.5607L234.572 69.7182L235.594 70.8153L234.572 69.7182Q234.402 69.8761 234.319 70.0924Q234.237 70.3087 234.257 70.5394L234.257 70.5394L234.257 70.5394L233.954 67.1728L233.954 67.1728C234.003 67.7229 234.49 68.1286 235.04 68.079L235.04 68.079L215.12 69.875L214.986 68.3811L215.12 69.875C215.671 69.8254 216.076 69.3393 216.027 68.7893L216.027 68.7893L216.307 71.9016L214.813 72.0363L216.307 71.9016C216.258 71.3516 215.772 70.9459 215.221 70.9955L215.221 70.9955L225.881 70.0344L225.881 70.0344C227.783 69.8629 228.82 72.1998 227.417 73.4955L227.417 73.4955L216.932 83.1798L215.915 82.0779L216.932 83.1798Q217.103 83.0218 217.187 82.8046Q217.271 82.5873 217.25 82.3554L217.25 82.3554L217.25 82.3554L217.553 85.7206L216.059 85.8553L217.553 85.7206C217.504 85.1705 217.018 84.7648 216.467 84.8144L216.467 84.8144L236.387 83.0184Z"
        style="fill: var(--color-primary)">
    </path>
    <path
        d="M255.148 68.152L255.199 70.4914C255.205 70.7675 255.434 70.9864 255.71 70.9803L270.416 70.6563C270.692 70.6503 270.911 70.4215 270.905 70.1455L270.847 67.5061C270.841 67.23 270.612 67.0111 270.336 67.0172L263.628 67.165C263.152 67.1755 262.929 66.5724 263.298 66.272L270.491 60.4322C270.611 60.3348 270.686 60.1823 270.682 60.0279L270.631 57.6885C270.625 57.4124 270.396 57.1935 270.12 57.1996L255.414 57.5236C255.137 57.5296 254.919 57.7584 254.925 58.0345L254.97 60.1139C254.977 60.39 255.205 60.6089 255.481 60.6028L262.99 60.4374C263.467 60.4269 263.681 61.0312 263.309 61.3306L255.339 67.7577C255.218 67.855 255.144 67.9968 255.148 68.152"
        style="fill: var(--color-primary); filter: brightness(115%);">
    </path>
    <path
        d="M252.707 68.975L260.685 62.5524L261.312 63.3314L260.685 62.5524C260.313 62.8518 260.532 63.4523 261.01 63.4418L260.988 62.442L261.01 63.4418L253.504 63.6071L253.482 62.6074L253.504 63.6071C252.676 63.6254 251.99 62.9688 251.971 62.1405L251.971 62.1405L251.925 60.0561L252.925 60.0341L251.925 60.0561C251.907 59.2279 252.564 58.5417 253.392 58.5234L253.392 58.5234L268.094 58.1996L268.116 59.1993L268.094 58.1996C268.922 58.1813 269.608 58.8379 269.626 59.6662L268.627 59.6882L269.626 59.6662L269.678 62.0058L268.678 62.0278L269.678 62.0058L268.678 62.0278L269.678 62.0058Q269.686 62.3531 269.54 62.6685Q269.394 62.9838 269.124 63.2029L268.494 62.4269L269.124 63.2029L261.932 69.0485L261.301 68.2725L261.932 69.0485C262.301 68.7482 262.081 68.1501 261.605 68.1606L261.627 69.1604L261.605 68.1606L268.31 68.0129L268.332 69.0127L268.31 68.0129C269.138 67.9947 269.824 68.6513 269.842 69.4795L268.843 69.5016L269.842 69.4795L269.901 72.1247L268.901 72.1468L269.901 72.1247C269.919 72.953 269.262 73.6392 268.434 73.6574L268.412 72.6577L268.434 73.6574L253.733 73.9813L253.71 72.9815L253.733 73.9813C252.904 73.9995 252.218 73.3429 252.2 72.5147L252.2 72.5147L252.148 70.1764L253.148 70.1544L252.148 70.1764L253.148 70.1544L252.148 70.1764Q252.141 69.8273 252.288 69.5107Q252.435 69.194 252.707 68.975L253.334 69.7539L252.707 68.975ZM253.962 70.5329L253.962 70.5329Q254.153 70.3785 254.148 70.1324L254.148 70.1324L254.148 70.1324L254.199 72.4706L253.2 72.4926L254.199 72.4706C254.193 72.1945 253.965 71.9757 253.688 71.9818L253.688 71.9818L268.39 71.6579L268.39 71.6579C268.114 71.664 267.895 71.8927 267.901 72.1688L267.901 72.1688L267.843 69.5236L267.843 69.5236C267.849 69.7997 268.078 70.0185 268.354 70.0124L268.354 70.0124L261.649 70.1601L261.649 70.1601C260.221 70.1916 259.561 68.3975 260.67 67.4965L260.67 67.4965L267.863 61.6508L267.863 61.6508Q267.673 61.8052 267.678 62.0499L267.678 62.0499L267.678 62.0499L267.627 59.7102L267.627 59.7102C267.633 59.9863 267.862 60.2052 268.138 60.1991L268.138 60.1991L253.436 60.5229L253.414 59.5232L253.436 60.5229C253.712 60.5168 253.931 60.2881 253.925 60.012L253.925 60.012L253.971 62.0965L252.971 62.1185L253.971 62.0965C253.965 61.8204 253.736 61.6015 253.46 61.6076L253.46 61.6076L260.966 61.4423L260.966 61.4423C262.397 61.4107 263.055 63.2122 261.939 64.1103L261.939 64.1103L253.962 70.5329Z"
        style="fill: var(--color-primary)">
    </path>
</svg>
    