<svg xmlns="http://www.w3.org/2000/svg" xmlns:xlink="http://www.w3.org/1999/xlink" width="401"
    height="300" viewBox="0 0 401 300" fill="none">
    <ellipse cx="212.48779296875" cy="212.5224406009088" rx="73.5" ry="37.340799975908794"
        style="fill: var(--color-svg-muted)">
    </ellipse>
    <path
        style="fill: var(--color-svg-background)"
        d="M256.988 197.682C260.14 192.974 262.192 188.778 264.388 183.482C268.641 173.224 270.988 161.978 270.988 150.182C270.988 102.133 232.037 63.1816 183.988 63.1816C135.939 63.1816 96.9878 102.133 96.9878 150.182C96.9878 198.23 127.988 233.182 183.988 235.182C183.988 235.182 194.429 236.531 191.988 230.182L256.988 197.682">
    </path>
    <g>
        <path style="fill: var(--color-primary)"
            d="M259.265 219.257Q260.463 219.708 261.216 220.632Q261.969 221.556 262.131 222.771Q262.294 223.986 261.808 225.278Q261.295 226.645 260.305 227.458Q259.315 228.272 258.065 228.443Q256.815 228.614 255.56 228.142Q254.138 227.607 253.312 226.506Q252.487 225.405 252.563 223.895L254.544 223.572Q254.492 224.621 254.924 225.317Q255.356 226.014 256.218 226.338Q257.359 226.767 258.281 226.249Q259.203 225.73 259.646 224.55Q260.076 223.408 259.744 222.386Q259.413 221.364 258.233 220.921Q256.754 220.365 255.354 221.419L254.259 220.238L257.997 213.14L264.699 215.66L264.044 217.401L259.065 215.528L257.198 219.014Q258.216 218.863 259.265 219.257Z">
        </path>
    </g>
    <g>
        <path style="fill: var(--color-primary)"
            d="M279.736 235.64L285.708 237.886L285.039 239.664L276.072 236.292L276.558 235.001L282.706 231.778Q284.378 230.911 285.122 230.326Q285.865 229.74 286.196 228.86Q286.604 227.774 286.246 226.966Q285.887 226.159 284.97 225.814Q284.034 225.462 283.074 225.827Q282.114 226.193 281.38 227.177L280.115 225.655Q281.137 224.244 282.706 223.851Q284.275 223.458 285.81 224.035Q286.97 224.472 287.717 225.298Q288.465 226.123 288.647 227.229Q288.83 228.334 288.365 229.569Q287.908 230.786 286.917 231.631Q285.926 232.476 283.816 233.542L279.736 235.64Z">
        </path>
    </g>
    <path style="stroke: var(--color-primary)" stroke-width="1" stroke-linecap="round"
        d="M285.065 243.147C286.151 243.351 287.196 242.637 287.4 241.551">
    </path>
    <path style="stroke: var(--color-primary)" stroke-width="1" stroke-linecap="round"
        d="M285.799 247.826C288.957 248.189 292.023 245.88 291.815 242.696">
    </path>
    <ellipse cx="269.35443115234375" cy="217.98224528840876"
        transform="rotate(-17.280972022088836 263.35443115234375 206.4814453125)" rx="6"
        ry="11.500799975908762" style="stroke: var(--color-primary)" stroke-width="2">
    </ellipse>
    <path
        d="M256.988 197.682C256.988 197.682 268.988 192.182 270.988 198.682C272.988 205.182 251.488 211.682 251.488 211.682L256.988 197.682Z"
        style="fill: var(--color-svg-background)">
    </path>
    <path style="stroke: var(--color-svg-border)" stroke-width="2" stroke-linecap="round"
        d="M256.988 197.682C256.988 197.682 268.988 192.182 270.988 198.682C272.988 205.182 251.488 211.682 251.488 211.682">
    </path>
    <g opacity="0.31">
        <path style="fill: var(--color-svg-background)"
            d="M264.388 183.482C268.641 173.224 270.988 161.978 270.988 150.182C270.988 102.133 232.037 63.1816 183.988 63.1816C135.939 63.1816 96.9878 102.133 96.9878 150.182C96.9878 198.23 127.988 233.182 183.988 235.182C183.988 235.182 193.929 236.031 191.488 229.682C189.046 223.332 171.988 220.182 171.988 220.182L256.988 197.682C260.14 192.974 262.192 188.778 264.388 183.482">
        </path>
    </g>
    <g mask="url(#mask-3mZ6DirETtPnTp7w6cTTJ)">
        <ellipse cx="197.48779296875" cy="71.18157958984375" rx="13.5" ry="11"
            style="stroke: var(--color-svg-accent)" stroke-width="2">
        </ellipse>
    </g>
    <g mask="url(#mask-3mZ6DirETtPnTp7w6cTTJ)">
        <circle cx="108.3285929446588" cy="121.52237956575254" r="18.340799975908794"
            style="fill: var(--color-svg-muted)">
        </circle>
    </g>
    <g mask="url(#mask-3mZ6DirETtPnTp7w6cTTJ)">
        <circle cx="217.98779296875" cy="87.18157958984375" r="8"
            style="fill: var(--color-svg-muted)">
        </circle>
    </g>
    <g mask="url(#mask-3mZ6DirETtPnTp7w6cTTJ)">
        <circle cx="268.48779296875" cy="142.681640625" r="6.5" style="fill: var(--color-svg-muted)">
        </circle>
    </g>
    <g mask="url(#mask-3mZ6DirETtPnTp7w6cTTJ)">
        <ellipse cx="130.75742024589982" cy="101.48366975716975"
            transform="rotate(31.22428251452756 127.4481201171875 97.18157958984375)"
            rx="3.30930012871231" ry="4.3020901673260035" style="stroke: var(--color-svg-accent)"
            stroke-width="2">
        </ellipse>
    </g>
    <g mask="url(#mask-3mZ6DirETtPnTp7w6cTTJ)">
        <ellipse cx="147.690401473714" cy="154.485195636076"
            transform="rotate(31.22428251452756 143.44317626953125 150.18310546875)"
            rx="4.247225204182732" ry="4.3020901673260035" style="stroke: var(--color-svg-accent)"
            stroke-width="2">
        </ellipse>
    </g>
    <path style="stroke: var(--color-svg-border)" stroke-width="2" stroke-linecap="round"
        d="M267.488 124.682C267.488 124.682 280.488 164.182 257.488 196.682">
    </path>
    <path style="stroke: var(--color-svg-border)" stroke-width="2" stroke-linecap="round"
        d="M264.488 117.682C264.488 117.682 241.988 52.6816 164.488 65.1816">
    </path>
    <path style="stroke: var(--color-svg-border)" stroke-width="2" stroke-linecap="round"
        d="M116.988 207.682C136.988 232.682 188.988 240.682 191.488 232.682C193.988 224.682 177.988 221.682 172.988 220.182">
    </path>
    <path style="stroke: var(--color-svg-border)" stroke-width="2" stroke-linecap="round"
        d="M143.988 73.6816C120.488 81.1816 71.4878 136.682 111.988 200.682">
    </path>
    <path
        d="M142.988 102.802L161.592 104.676L158.713 140.182L180.988 89.7482L161.592 86.7816L161.592 51.1816L142.988 102.802Z"
        style="fill: var(--color-primary); filter: brightness(115%);">
    </path>
    <path
        d="M138.988 99.8016L157.592 101.676L154.713 137.182L176.988 86.7482L157.592 83.7816L157.592 48.1816L138.988 99.8016Z"
        style="stroke: var(--color-primary);" stroke-width="3" stroke-linejoin="round">
    </path>
    <path style="stroke: var(--color-svg-accent);" stroke-width="2" stroke-linecap="round"
        d="M91.9789 169.44C83.1409 180.586 79.6349 190.3 83.1722 196.833C92.1133 213.345 142.669 203.281 196.091 174.354C249.513 145.427 285.573 108.591 276.631 92.0784C273.094 85.5457 263.043 83.1727 248.879 84.4818">
    </path>
    <path
        d="M257.5 190C257.5 212.92 237.353 231.5 212.5 231.5C206.618 231.5 197.488 231.5 191.988 230.682L193.959 227.784L171.988 213.682C167.5 206.182 167.5 195.845 167.5 190C167.5 167.08 187.647 148.5 212.5 148.5C237.353 148.5 257.5 167.08 257.5 190Z"
        style="fill: var(--color-svg-background)">
    </path>
    <ellipse cx="204.40228271484375" cy="194.5150146484375"
        transform="rotate(10.868197288045442 201.40228271484375 190.0150146484375)" rx="3" ry="4.5"
        style="fill: var(--color-svg-border)">
    </ellipse>
    <path style="stroke: var(--color-svg-border)" stroke-width="1" stroke-linecap="round"
        d="M199.158 195.612C198.824 192.053 201.147 188.897 203.433 189.495C205.719 190.094 206.633 192.942 205.671 196.617">
    </path>
    <ellipse cx="237.40228271484375" cy="189.5150146484375"
        transform="rotate(10.868197288045442 234.40228271484375 185.0150146484375)" rx="3" ry="4.5"
        style="fill: var(--color-svg-border)">
    </ellipse>
    <path style="stroke: var(--color-svg-border)" stroke-width="1" stroke-linecap="round"
        d="M232.158 190.612C231.824 187.053 234.147 183.897 236.433 184.495C238.719 185.094 239.633 187.942 238.671 191.617">
    </path>
    <path
        d="M182.613 158.653C182.613 158.653 173.452 154.005 171.395 155.699C169.339 157.393 173.404 168.684 173.404 168.684L177.63 163.36L182.613 158.653Z"
        style="fill: var(--color-svg-accent)">
    </path>
    <path style="stroke: var(--color-svg-border)" stroke-width="2" stroke-linejoin="round"
        stroke-linecap="round"
        d="M189.203 153.459C189.203 153.459 168.088 141.964 163.113 145.488C158.138 149.013 169.253 176.938 169.253 176.938">
    </path>
    <path
        d="M246.751 163.121C246.751 163.121 248.949 132.256 243.919 130.802C238.889 129.348 220.926 149.039 220.926 149.039C220.926 149.039 229.724 151.045 234.976 153.906C240.228 156.767 246.751 163.121 246.751 163.121Z"
        style="fill: var(--color-svg-background)">
    </path>
    <path
        d="M241.785 158.69C241.785 158.69 241.758 146.104 239.326 145.099C236.894 144.094 227.912 151.21 227.912 151.21C227.912 151.21 232.797 152.837 235.336 154.267C237.875 155.698 241.785 158.69 241.785 158.69Z"
        style="fill: var(--color-svg-accent)">
    </path>
    <path style="stroke: var(--color-svg-border)" stroke-width="2" stroke-linejoin="round"
        stroke-linecap="round"
        d="M246.751 163.121C246.751 163.121 248.495 133.862 243.465 132.408C238.435 130.954 220.926 149.039 220.926 149.039">
    </path>
    <path style="stroke: var(--color-svg-border)" stroke-width="2" stroke-linecap="round"
        d="M171.988 213.682C167.5 206.182 167.5 195.845 167.5 190C167.5 167.08 187.647 148.5 212.5 148.5C237.353 148.5 257.5 167.08 257.5 190C257.5 212.92 237.353 231.5 212.5 231.5C206.618 231.5 197.488 231.5 191.988 230.682">
    </path>
    <path
        d="M222.071 202.224C223.764 202.049 225.05 201.188 225.029 200.181C225.005 199.077 223.42 198.215 221.487 198.256C219.554 198.297 218.007 199.225 218.03 200.33C218.052 201.337 219.373 202.143 221.072 202.245L221.104 203.765C221.11 204.041 221.338 204.26 221.614 204.254C221.89 204.249 222.109 204.02 222.104 203.744L222.071 202.224Z"
        fill-rule="evenodd" style="fill: var(--color-svg-border)">
    </path>
    <rect x="244.0322265625" y="198.455322265625" width="2" height="7"
        transform="rotate(-41.26949716311736 244.0322265625 198.455322265625)" rx="1"
        style="fill: var(--color-primary);">
    </rect>
    <rect x="247.97760009765625" y="197.5428466796875" width="2" height="7"
        transform="rotate(-42.894116839013215 247.97760009765625 197.5428466796875)" rx="1"
        style="fill: var(--color-primary);">
    </rect>
    <rect x="239.98779296875" y="200.1697998046875" width="2" height="5"
        transform="rotate(-29.61150972835022 239.98779296875 200.1697998046875)" rx="1"
        style="fill: var(--color-primary);">
    </rect>
    <rect x="196.65966796875" y="205.1361083984375" width="2" height="7"
        transform="rotate(41.26949716311736 196.65966796875 205.1361083984375)" rx="1"
        style="fill: var(--color-primary);">
    </rect>
    <rect x="192.7523193359375" y="204.181640625" width="2" height="7"
        transform="rotate(42.894116839013215 192.7523193359375 204.181640625)" rx="1"
        style="fill: var(--color-primary);">
    </rect>
    <rect x="200.468505859375" y="207.181640625" width="2" height="5"
        transform="rotate(29.61150972835022 200.468505859375 207.181640625)" rx="1"
        style="fill: var(--color-primary);">
    </rect>
    <defs>
        <mask id="mask-3mZ6DirETtPnTp7w6cTTJ" style="mask-type:alpha" maskUnits="userSpaceOnUse">
            <path fill="#FFFFFF"
                d="M264.388 183.482C268.641 173.224 270.988 161.978 270.988 150.182C270.988 102.133 232.037 63.1816 183.988 63.1816C135.939 63.1816 96.9878 102.133 96.9878 150.182C96.9878 198.23 127.988 233.182 183.988 235.182C183.988 235.182 193.929 236.031 191.488 229.682C189.046 223.332 171.988 220.182 171.988 220.182L256.988 197.682C260.14 192.974 262.192 188.778 264.388 183.482">
            </path>
        </mask>
    </defs>
</svg>
    