<svg xmlns="http://www.w3.org/2000/svg" xmlns:xlink="http://www.w3.org/1999/xlink" width="400"
    height="300" viewBox="0 0 400 300" fill="none">
    <ellipse cx="189.743885576401" cy="203.00006103515625" rx="84.743885576401" ry="10"
        style="fill: var(--color-svg-muted)">
    </ellipse>
    <path
        d="M99.4989 96.2109C99.4989 96.2109 100.226 78.6541 96.4438 76.6296C92.6615 74.6051 68.3291 110.622 68.3291 110.622"
        style="fill: var(--color-svg-background)">
    </path>
    <path
        d="M143.991 145.06C143.991 145.06 115.491 178.18 136.491 180.18C157.491 182.18 209.491 184.666 209.491 173.68C209.491 162.694 189.071 145.06 189.071 145.06L156.461 145.06L143.991 145.06Z"
        style="fill: var(--color-svg-background)">
    </path>
    <path
        d="M92.9134 98.0183C92.9134 98.0183 92.528 88.5414 90.7387 88.0401C88.9494 87.5389 79.8842 101.733 79.8842 101.733L92.9134 98.0183Z"
        style="fill: var(--color-svg-accent)">
    </path>
    <path
        d="M121.467 179.098C116.054 180.972 110.163 182 104 182C77.4903 182 56 162.972 56 139.5C56 116.028 77.4903 97 104 97C130.51 97 152 116.028 152 139.5C152 145.604 150.547 151.407 147.93 156.653"
        style="fill: var(--color-svg-background)">
    </path>
    <path
        d="M117.046 97.9833C117.046 97.9833 138.971 79.7478 143.082 80.9747C147.193 82.2016 138.69 109.032 138.69 109.032"
        style="fill: var(--color-svg-background)">
    </path>
    <path
        d="M123.584 100.433C123.584 100.433 133.652 91.0476 135.339 91.8248C137.027 92.602 133.973 106.664 133.973 106.664L123.584 100.433Z"
        style="fill: var(--color-svg-accent)">
    </path>
    <path style="stroke: var(--color-svg-border)" stroke-width="2" stroke-linejoin="round"
        stroke-linecap="round"
        d="M99.4989 96.2109C99.4989 96.2109 100.226 78.6541 96.4438 76.6296C92.6615 74.6051 68.3291 110.622 68.3291 110.622">
    </path>
    <path style="stroke: var(--color-svg-border)" stroke-width="2" stroke-linejoin="round"
        stroke-linecap="round"
        d="M117.046 97.9833C117.046 97.9833 138.971 79.7478 143.082 80.9747C147.193 82.2016 138.69 109.032 138.69 109.032">
    </path>
    <path
        d="M82.4878 177.682C82.4878 177.682 75.9878 179.682 76.9878 183.182C77.9878 186.682 99.4878 181.682 99.4878 181.682"
        style="fill: var(--color-svg-background)">
    </path>
    <path style="stroke: var(--color-svg-border)" stroke-width="2" stroke-linejoin="round"
        stroke-linecap="round"
        d="M82.4878 177.682C82.4878 177.682 75.9878 179.682 76.9878 183.182C77.9878 186.682 99.4878 181.682 99.4878 181.682">
    </path>
    <path style="stroke: var(--color-primary)" stroke-width="1" stroke-linecap="round"
        d="M76.9939 188.658C75.9024 188.828 74.8801 188.08 74.7103 186.989">
    </path>
    <path style="stroke: var(--color-primary)" stroke-width="1" stroke-linecap="round"
        d="M76.3446 192.59C73.1769 192.853 70.1852 190.448 70.4931 187.273">
    </path>
    <path
        d="M209.988 145.682C209.988 145.682 221.386 151.43 239.488 148.682C257.59 145.934 273.988 129.182 283.988 131.682C293.988 134.182 291.488 149.182 283.488 149.182C275.488 149.182 265.488 148.682 251.488 155.182C237.488 161.682 214.988 153.682 214.988 153.682"
        style="fill: var(--color-svg-background)">
    </path>
    <path
        d="M130.988 175.182C130.32 175.952 113.488 179.682 115.488 187.682C115.488 187.682 119.488 196.682 155.488 177.682"
        style="fill: var(--color-svg-background)">
    </path>
    <path style="stroke: var(--color-svg-border)" stroke-width="2" stroke-linecap="round"
        d="M130.988 175.182C130.32 175.952 113.488 179.682 115.488 187.682C115.488 187.682 119.488 196.682 155.488 177.682">
    </path>
    <path
        d="M151.988 145.182C151.988 145.182 195.488 134.182 205.488 141.182C215.488 148.182 226.988 180.682 224.488 187.682C221.988 194.682 206.988 179.182 206.988 179.182"
        style="fill: var(--color-svg-background)">
    </path>
    <path style="stroke: var(--color-svg-border)" stroke-width="2" stroke-linecap="round"
        d="M151.988 145.182C151.988 145.182 195.488 134.182 205.488 141.182C215.488 148.182 226.988 180.682 224.488 187.682C221.988 194.682 206.988 179.182 206.988 179.182">
    </path>
    <path
        d="M202.488 180.182C202.488 180.182 208.49 187.68 205.99 190.18C203.49 192.68 190.988 182.182 190.988 182.182"
        style="fill: var(--color-svg-background)">
    </path>
    <path style="stroke: var(--color-svg-border)" stroke-width="2" stroke-linecap="round"
        d="M202.488 180.182C202.488 180.182 208.49 187.68 205.99 190.18C203.49 192.68 190.988 182.182 190.988 182.182">
    </path>
    <path style="stroke: var(--color-svg-border)" stroke-width="2" stroke-linecap="round"
        d="M209.988 145.682C209.988 145.682 221.386 151.43 239.488 148.682C257.59 145.934 273.988 129.182 283.988 131.682C293.988 134.182 291.488 149.182 283.488 149.182C275.488 149.182 265.488 148.682 251.488 155.182C237.488 161.682 214.988 153.682 214.988 153.682">
    </path>
    <circle cx="286.9877624511719" cy="141.18157958984375" r="8.5"
        style="fill: var(--color-primary); filter: brightness(115%);">
    </circle>
    <circle cx="313.9877624511719" cy="136.18157958984375" r="8.5"
        style="fill: var(--color-primary); filter: brightness(115%);">
    </circle>
    <circle cx="342.9877624511719" cy="141.18157958984375" r="8.5"
        style="fill: var(--color-primary); filter: brightness(115%);">
    </circle>
    <circle cx="282.9877624511719" cy="140.18157958984375" r="8.5"
        style="stroke: var(--color-primary);"
        stroke-width="3">
    </circle>
    <circle cx="309.9877624511719" cy="135.18157958984375" r="8.5"
        style="stroke: var(--color-primary);"
        stroke-width="3">
    </circle>
    <circle cx="338.9877624511719" cy="140.18157958984375" r="8.5"
        style="stroke: var(--color-primary);"
        stroke-width="3">
    </circle>
    <path style="stroke: var(--color-svg-border)" stroke-width="2" stroke-linecap="round"
        d="M149.488 180.682C150.312 180.956 174.988 186.182 206.988 179.182C206.988 179.182 206.988 179.182 206.988 179.182">
    </path>
    <path style="stroke: var(--color-svg-border)" stroke-width="2" stroke-linecap="round"
        d="M121.467 179.098C116.054 180.972 110.163 182 104 182C77.4903 182 56 162.972 56 139.5C56 116.028 77.4903 97 104 97C130.51 97 152 116.028 152 139.5C152 145.604 150.547 151.407 147.93 156.653">
    </path>
    <path
        d="M71.1128 140.688C69.8226 141.447 68.7815 143.344 68.5417 145.649C68.2162 148.777 69.49 151.472 71.3868 151.67C73.2837 151.867 75.0852 149.491 75.4108 146.363C75.6522 144.043 75.0139 141.961 73.8942 140.96C73.9244 140.958 73.9547 140.956 73.9851 140.955C74.5724 140.928 75.1172 141.079 75.6179 141.421C76.1166 141.763 76.5222 142.25 76.8348 142.878C77.1597 143.53 77.3371 144.247 77.3727 145.036C77.4108 145.881 77.2793 146.717 76.975 147.537C76.972 147.545 76.9687 147.553 76.9653 147.561C76.9525 147.593 76.939 147.626 76.9405 147.658C76.9414 147.679 76.9398 147.698 76.9382 147.718C76.9366 147.738 76.935 147.758 76.9359 147.779C76.9378 147.82 76.9495 147.857 76.9513 147.898C76.9532 147.939 76.9694 147.979 76.9867 148.017C77.004 148.054 77.0273 148.09 77.0516 148.124C77.0759 148.157 77.1056 148.192 77.136 148.22C77.1664 148.248 77.1942 148.274 77.2295 148.296C77.2649 148.318 77.3032 148.336 77.3421 148.351C77.3502 148.354 77.3585 148.357 77.3668 148.361C77.3985 148.373 77.4316 148.387 77.4638 148.385C77.484 148.385 77.5036 148.386 77.5233 148.388C77.5433 148.389 77.5633 148.391 77.5842 148.39C77.6257 148.388 77.6728 148.376 77.7136 148.374C77.7544 148.372 77.7939 148.346 77.8317 148.329C77.8694 148.312 77.9056 148.298 77.9393 148.274C77.973 148.25 77.9973 148.22 78.0256 148.19C78.0539 148.16 78.0792 148.122 78.101 148.086C78.1228 148.051 78.1415 148.013 78.156 147.974L76.975 147.537L78.166 147.973C78.5302 146.993 78.6873 145.996 78.6414 144.979C78.5978 144.012 78.3648 143.128 77.9607 142.317C77.5502 141.493 77.0115 140.843 76.3315 140.378C75.5982 139.877 74.7967 139.647 73.9278 139.686C73.0857 139.724 72.3141 139.943 71.6154 140.351C71.4409 140.453 71.2734 140.565 71.1128 140.688Z"
        fill-rule="evenodd" style="fill: var(--color-svg-border)">
    </path>
    <path
        d="M107.641 144.979C107.687 145.996 107.53 146.993 107.166 147.973L105.975 147.537C106.279 146.717 106.411 145.881 106.373 145.036C106.337 144.247 106.16 143.53 105.835 142.878C105.522 142.25 105.117 141.763 104.618 141.421C104.117 141.079 103.572 140.928 102.985 140.955C102.955 140.956 102.924 140.958 102.894 140.96C104.014 141.961 104.652 144.043 104.411 146.363C104.085 149.491 102.284 151.867 100.387 151.67C98.49 151.472 97.2162 148.777 97.5417 145.649C97.7815 143.344 98.8226 141.447 100.113 140.688C100.273 140.565 100.441 140.453 100.615 140.351C101.314 139.943 102.086 139.724 102.928 139.686C103.797 139.647 104.598 139.877 105.332 140.378C106.011 140.843 106.55 141.493 106.961 142.317C107.365 143.128 107.598 144.012 107.641 144.979ZM105.975 147.537C105.972 147.545 105.969 147.553 105.965 147.561C105.952 147.593 105.939 147.626 105.94 147.658C105.941 147.679 105.94 147.698 105.938 147.718C105.937 147.738 105.935 147.758 105.936 147.779C105.938 147.82 105.949 147.857 105.951 147.898C105.953 147.939 105.969 147.979 105.987 148.017C106.004 148.054 106.027 148.09 106.052 148.124C106.076 148.157 106.106 148.192 106.136 148.22C106.166 148.248 106.194 148.274 106.23 148.296C106.265 148.318 106.303 148.336 106.342 148.351C106.35 148.354 106.358 148.357 106.367 148.361C106.399 148.373 106.432 148.387 106.464 148.385C106.484 148.385 106.504 148.386 106.523 148.388C106.543 148.389 106.563 148.391 106.584 148.39C106.626 148.388 106.673 148.376 106.714 148.374C106.754 148.372 106.794 148.346 106.832 148.329C106.869 148.312 106.906 148.298 106.939 148.274C106.973 148.25 106.997 148.22 107.026 148.19C107.054 148.16 107.079 148.122 107.101 148.086C107.123 148.051 107.141 148.013 107.156 147.974L105.975 147.537Z"
        fill-rule="evenodd" style="fill: var(--color-svg-border)">
    </path>
    <path
        d="M82.9878 155.666C84.9609 155.543 86.4878 154.701 86.4878 153.682C86.4878 152.577 84.6969 151.682 82.4878 151.682C80.2787 151.682 78.4878 152.577 78.4878 153.682C78.4878 154.701 80.0146 155.543 81.9878 155.666L81.9878 157.182C81.9878 157.458 82.2116 157.682 82.4878 157.682C82.7639 157.682 82.9878 157.458 82.9878 157.182L82.9878 155.666Z"
        fill-rule="evenodd" style="fill: var(--color-svg-border)">
    </path>
    <rect x="66.48858642578125" y="154.77838134765625" width="2" height="5"
        transform="rotate(41.26949716311736 66.48858642578125 154.77838134765625)" rx="1"
        style="fill: var(--color-primary)">
    </rect>
    <rect x="64.2103271484375" y="153.68157958984375" width="2" height="4"
        transform="rotate(42.894116839013215 64.2103271484375 153.68157958984375)" rx="1"
        style="fill: var(--color-primary)">
    </rect>
    <rect x="103.67596435546875" y="157.09747314453125" width="2" height="5"
        transform="rotate(-41.26949716311736 103.67596435546875 157.09747314453125)" rx="1"
        style="fill: var(--color-primary)">
    </rect>
    <rect x="105.99212646484375" y="156.04290771484375" width="2" height="4"
        transform="rotate(-42.894116839013215 105.99212646484375 156.04290771484375)" rx="1"
        style="fill: var(--color-primary)">
    </rect>
    <rect x="100.97357177734375" y="157.88140869140625" width="2.96294444385343"
        height="4.380217659842598"
        transform="rotate(-14.928406455401168 100.97357177734375 157.88140869140625)"
        rx="1.481472221926715" style="fill: var(--color-primary)">
    </rect>
    <rect x="68.2474365234375" y="156.42584228515625" width="2" height="4"
        transform="rotate(14.928406455401168 68.2474365234375 156.42584228515625)" rx="1"
        style="fill: var(--color-primary)">
    </rect>
</svg>