<svg xmlns="http://www.w3.org/2000/svg" xmlns:xlink="http://www.w3.org/1999/xlink" width="180"
	height="70" viewBox="0 0 180 70" fill="none">
	<path style="fill: var(--color-primary)"
		d="M27.4154 55.5446C27.9189 55.1066 28.3505 54.7415 28.782 54.3765C30.5803 52.9163 31.6592 50.9452 32.5223 48.828C32.5223 48.6819 32.5943 48.6089 32.6662 48.5359C33.3135 48.0249 33.6732 47.2218 33.9609 46.4187C34.2486 45.1776 34.6083 43.9365 34.7521 42.6954C35.1118 40.3591 35.3275 38.0959 35.5433 35.7597C35.6153 34.8106 35.6153 33.8615 35.6153 32.9124C35.6153 29.4811 35.831 26.0497 35.3275 22.6914C35.1837 21.3773 35.2556 20.0632 35.1837 18.749C35.1118 17.4349 35.1118 16.1208 34.896 14.8067C34.6083 13.0545 34.1767 11.3023 33.2416 9.69617C32.882 9.18512 32.6662 8.67407 32.3785 8.16302C31.875 7.14092 31.3715 6.11882 30.7241 5.16973C29.861 4.00162 28.854 2.97952 27.4873 2.32246C26.6961 1.95742 25.9768 1.30036 24.9698 1.15434C24.9698 1.15434 24.8979 1.15434 24.826 1.15434C23.8909 0.497279 22.812 0.424272 21.733 0.205251C20.726 -0.01377 19.719 -0.086777 18.6401 0.132244C18.2085 0.278258 17.705 0.351265 17.2015 0.424272C16.1945 0.497279 15.1875 0.862315 14.3963 1.44637C14.0367 1.66539 13.749 1.81141 13.4612 2.03043C11.5911 3.19854 9.86481 4.51267 8.57009 6.33784C7.13152 8.38204 5.69294 10.4262 4.47016 12.6165C3.53509 14.2956 3.03159 16.0478 2.45616 17.873C1.88073 19.7711 1.52108 21.7423 1.08951 23.7135C0.226369 27.0718 -0.061346 30.4302 0.0105827 33.8615C0.0825113 35.7597 0.298297 37.6579 0.514083 39.5561C0.801798 41.5272 1.16144 43.5714 1.88073 45.4696C2.88773 48.1709 4.25437 50.6531 5.8368 52.9894C7.05959 54.6685 8.71395 55.8366 10.5841 56.7857C12.0227 57.5158 13.6051 57.8078 15.1875 57.8808C16.3384 58.0268 17.4173 58.0268 18.4962 58.0998C18.6401 58.5379 18.784 58.9759 18.9278 59.414C19.6471 61.2392 20.2945 63.1373 21.0857 64.8895C21.6611 66.3496 22.4523 67.6638 23.1716 69.0509C23.2435 69.1969 23.5312 69.3429 23.747 69.4159C23.8909 69.489 24.0347 69.4159 24.2505 69.4159C24.2505 69.854 24.2505 69.854 24.8979 70C25.6172 69.562 26.2645 69.0509 26.9838 68.6129C27.0557 68.5399 27.1996 68.4669 27.3435 68.3938C28.5662 68.1018 29.5013 67.4448 30.4364 66.5687C31.0118 66.0576 31.0118 65.4736 30.868 64.8165C30.868 64.6705 30.796 64.5245 30.7241 64.3055C30.3645 63.4294 30.0048 62.4803 29.6452 61.6042C28.854 59.633 28.1347 57.6618 27.4154 55.5446ZM30.5803 11.9594C30.2925 12.0324 30.2925 11.7404 30.2925 11.5213C30.5083 11.6674 30.868 11.1563 31.0838 11.6674C30.9399 11.8134 30.4364 11.4483 30.5803 11.9594C30.5803 12.1784 30.6522 12.3974 30.6522 12.6165C30.4364 12.4704 30.4364 12.1784 30.5803 11.9594ZM21.805 59.487C21.733 59.487 21.733 59.487 21.733 59.487C21.3734 59.1219 21.2295 58.6109 21.1576 58.0998C21.5172 58.4649 21.5892 58.9759 21.733 59.487C21.805 59.706 21.8769 59.925 21.9488 60.071C21.9488 60.071 21.8769 60.144 21.805 60.144C21.805 59.925 21.805 59.706 21.805 59.487ZM34.4644 38.972C34.4644 39.264 34.4644 39.5561 34.5363 39.8481C34.4644 39.8481 34.3925 39.8481 34.3925 39.9211C34.3925 39.5561 34.3925 39.264 34.4644 38.972C34.5363 38.3879 34.6083 37.8039 34.6802 37.1468C34.7521 36.1247 34.824 35.0296 34.9679 34.0075C34.824 35.5407 34.7521 37.1468 34.6083 38.68C34.6083 38.753 34.4644 38.826 34.4644 38.972ZM28.854 8.16302C28.5662 8.38204 28.3505 8.16302 28.2785 7.944C27.9908 7.50596 27.775 6.9219 27.4873 6.41085C27.3435 6.19183 27.1996 5.97281 26.9838 5.75379C26.768 5.53477 26.4803 5.38875 26.3365 5.16973C26.9838 5.38875 27.7031 6.19183 28.1347 6.9219C28.3505 7.35994 28.5662 7.79799 28.854 8.16302C28.9978 8.45505 29.1417 8.67407 29.2855 8.9661C29.5733 9.33113 29.861 9.76918 30.2925 10.3532C29.1417 9.76918 28.7101 9.03911 28.854 8.16302ZM1.8088 37.2198C1.73687 37.1468 1.59301 37.1468 1.59301 37.0738C1.44916 35.5407 1.3053 34.0075 1.44916 32.4744C1.88073 33.6425 1.88073 34.7376 1.8088 35.9057C1.8088 36.3437 1.8088 36.7818 1.8088 37.2198C1.8088 37.6579 1.8088 38.0959 1.8088 38.534L1.73687 38.534C1.73687 38.0959 1.73687 37.6579 1.8088 37.2198ZM7.3473 36.8548C7.41923 37.7309 7.56309 38.607 7.70695 39.483C7.70695 39.8481 7.63502 40.2861 7.63502 40.6512C7.56309 40.6512 7.49116 40.5782 7.49116 40.5782C7.41923 39.41 7.27537 38.3149 7.20345 37.1468C7.20345 37.0738 7.27537 37.0008 7.3473 36.8548C7.3473 36.6358 7.3473 36.4168 7.27537 36.2707C7.27537 36.0517 7.20345 35.9057 7.13152 35.7597C7.13152 35.5407 7.05959 35.2486 7.05959 35.0296C7.05959 33.6425 7.13152 32.1823 7.27537 30.7222C7.3473 31.1602 7.3473 31.5983 7.3473 31.9633C7.41923 33.4235 7.41923 34.8836 7.49116 36.4168C7.49116 36.5628 7.3473 36.7088 7.3473 36.8548ZM27.1277 30.6492C27.1277 31.0872 27.1277 31.8173 27.1277 32.4744C27.0557 34.8836 26.4803 37.1468 25.9768 39.41C25.4733 41.3812 24.826 43.2064 23.8909 45.0316C22.9558 46.7838 21.5892 47.9519 19.5752 48.2439C18.9278 48.3169 18.2805 48.3899 17.6331 48.4629C16.4103 48.5359 15.4752 47.8789 14.6121 47.1488C13.4612 46.1267 12.742 44.7396 12.0946 43.3524C11.3753 41.8923 10.7999 40.3591 10.5122 38.753C10.2964 37.2928 10.2964 35.8327 10.3683 34.3726C10.3683 32.8394 10.4402 31.3063 10.5122 29.7731C10.656 27.5829 10.7279 25.3197 11.2314 23.1295C11.5911 21.6693 11.8788 20.2092 12.3823 18.749C13.0297 16.9239 13.8928 15.2447 14.8998 13.6385C15.691 12.4704 16.698 11.6674 18.0647 11.3753C18.6401 11.3023 19.2155 11.4483 19.791 11.5213C20.5822 11.6674 21.1576 12.1054 21.5892 12.7625C22.0927 13.4925 22.5242 14.1496 23.0997 14.7337C24.1067 15.7558 24.754 16.9239 25.1856 18.165C25.6891 19.6251 26.1207 21.0123 26.4803 22.4724C27.0557 25.0277 27.4154 27.6559 27.1277 30.6492ZM18.712 0.935322C19.5752 0.643294 20.2945 0.716301 21.0137 1.00833C21.3015 1.15434 21.733 1.22735 22.0207 1.22735C22.5962 1.30036 23.0277 1.51938 23.3874 1.95742C23.6032 2.24945 23.8909 2.54148 24.1067 2.97952C23.6032 2.83351 23.0997 2.68749 22.5242 2.54148C22.3085 1.88441 21.8769 1.59239 21.2295 1.51938C20.798 1.44637 20.4383 1.44637 20.0787 1.37336C19.5752 1.37336 19.1436 1.30036 18.712 0.935322ZM8.78588 54.5225C8.92973 54.5955 9.00166 54.6685 9.14552 54.7415C9.36131 54.8875 9.50516 55.0336 9.72095 55.1796C9.86481 55.2526 10.1525 55.2526 10.2244 55.1796C10.4402 55.0336 10.2244 54.8145 10.0806 54.6685C9.86481 54.4495 9.57709 54.2305 9.36131 54.0115C9.21745 53.8654 9.14552 53.7924 9.07359 53.5734C9.79288 54.0845 10.4402 54.5225 11.1595 55.0336C11.8069 55.5446 12.4542 56.1287 13.0297 56.6397C12.0946 56.7857 9.50516 55.6176 8.78588 54.5225ZM31.0118 50.3611C30.2925 51.5292 29.5733 52.7703 28.4224 53.6464C28.0627 53.8654 27.775 54.2305 27.4154 54.5225C27.0557 54.8145 27.0557 54.8145 26.6242 54.4495C26.9119 54.1575 27.0557 53.7924 27.3435 53.5004C27.4873 53.3544 27.7031 53.2084 27.9189 53.1354C28.4224 52.9894 28.782 52.6973 29.1417 52.3323C29.7171 51.6022 30.2925 50.9452 30.9399 50.2151C30.9399 50.2881 31.0118 50.2881 31.0118 50.3611ZM9.64902 28.824C9.72095 31.5983 9.50516 34.2265 9.43323 36.7818C9.14552 34.2265 8.64202 31.5983 9.64902 28.824ZM6.19644 12.6165C5.98066 11.3753 8.06659 7.72498 9.36131 6.62987C9.43323 7.35994 8.92973 8.23603 8.3543 8.67407C8.13852 8.82008 7.99466 9.03911 7.8508 9.33113C7.3473 10.1342 6.98766 10.9373 6.55609 11.7404C6.41223 12.0324 6.3403 12.3244 6.19644 12.6165ZM10.8718 21.4503C10.9437 20.2092 11.0157 18.8951 11.663 17.7269C12.4542 16.3398 13.2455 14.9527 14.0367 13.5655C14.2525 13.2005 14.5402 12.8355 14.8998 12.5434C13.0297 15.2447 11.663 18.238 10.8718 21.4503ZM4.61402 21.3773C4.47016 19.9902 4.90173 18.749 5.18944 17.5079C5.26137 17.1429 5.40523 16.7779 5.54909 16.3398C5.8368 15.3907 5.8368 15.3907 6.8438 14.5876C6.69995 14.9527 6.62802 15.1717 6.55609 15.3907C6.05259 16.4128 5.62102 17.4349 5.11752 18.384C4.97366 18.749 4.90173 19.0411 5.11752 19.3331C5.18944 19.4061 5.18944 19.5521 5.18944 19.6251C5.18944 20.1362 5.04559 20.7202 4.61402 21.3773ZM29.3575 64.1594C28.4943 61.4582 27.4154 58.8299 26.4803 56.2017C26.5522 56.1287 26.6242 56.1287 26.6961 56.0557C26.768 56.1287 26.84 56.2747 26.84 56.3477C27.5592 58.8299 28.5662 61.0931 29.6452 63.4294C29.7171 63.7214 29.861 64.0864 29.3575 64.1594ZM14.5402 48.4629C14.8279 48.6089 15.1875 48.6089 15.4752 48.828C16.0507 49.266 16.698 49.339 17.4173 49.412C17.777 49.412 18.2085 49.485 18.4962 49.9231C17.9927 49.9231 17.4892 49.9231 17.0577 49.9231C16.8419 49.9231 16.5542 49.9231 16.3384 49.8501C14.9717 49.777 15.2595 50.0691 14.5402 48.4629ZM29.5733 45.6886C28.854 47.4408 28.4943 49.339 27.1996 50.7991C27.775 48.974 28.4224 47.2218 29.5733 45.6886ZM18.712 52.6243C19.0717 52.1863 19.5032 51.9673 20.0067 51.8942C20.6541 51.8942 21.3015 51.8212 21.9488 51.6752C22.4523 51.6022 22.8839 51.3832 23.3874 51.2372C23.4593 51.2372 23.5312 51.2372 23.6751 51.2372C23.4593 51.6752 23.2435 51.8212 22.812 51.8942C21.5892 52.1133 20.3664 52.3323 19.1436 52.6243C18.9997 52.6243 18.9278 52.6243 18.712 52.6243ZM22.3085 64.0864C21.3015 62.1882 20.2945 60.2171 19.6471 58.1729C20.0067 58.0268 20.0787 58.0998 20.1506 58.3189C20.6541 59.633 21.0857 60.9471 21.5892 62.1882C21.805 62.8453 22.1646 63.4294 22.3804 64.0864L22.3085 64.0864ZM34.4644 27.9479C34.0328 27.8749 34.1048 27.5829 34.1048 27.3639C34.1048 26.3418 34.1767 25.3197 34.1767 24.3706C34.1767 23.4215 34.1767 22.5454 34.1767 21.7423C34.6802 22.3994 34.5363 25.3197 34.4644 27.9479ZM17.9208 2.24945C16.4822 2.54148 15.2595 3.34455 14.0367 4.07463C13.8928 3.8556 13.749 3.70959 13.6051 3.49057C14.9717 2.83351 16.3384 2.32246 17.9208 2.24945ZM13.1016 6.62987C13.3174 5.09672 14.5402 4.51267 15.763 4.00162C15.0437 5.02372 14.0367 5.82679 13.1016 6.62987ZM17.6331 57.2238C16.698 57.1508 15.763 57.1508 14.756 57.0778C14.684 56.7857 14.6121 56.5667 14.5402 56.2747C15.6191 56.4937 16.698 56.4207 17.705 56.9317C17.705 57.0778 17.705 57.1508 17.6331 57.2238ZM26.2645 12.1054C25.4733 11.0103 24.6102 9.84218 23.747 8.67407C24.4663 8.60106 24.5382 8.67407 24.826 9.18512C25.3295 10.1342 25.9049 11.0833 26.4084 12.0324C26.3365 12.0324 26.3365 12.1054 26.2645 12.1054ZM13.749 2.39546C13.8209 2.83351 12.8858 2.7605 13.3174 3.34455C12.8139 3.63658 12.2385 3.8556 11.8069 4.14763C11.3034 4.43966 10.8718 4.73169 10.3683 5.09672C10.7999 4.22064 12.9577 2.54148 13.749 2.39546ZM27.3435 22.1074C26.768 20.1362 26.2645 18.238 25.6891 16.3398C26.2645 16.9239 27.4154 20.8662 27.3435 22.1074ZM24.826 15.3177C24.1786 14.4416 23.1716 13.7846 22.6681 12.7625C23.0997 12.6895 23.747 12.9815 23.8909 13.4195C23.9628 13.7116 24.1067 13.9306 24.3225 14.1496C24.754 14.4416 24.826 14.8067 24.826 15.3177ZM27.2715 42.0383C26.768 43.2794 26.768 44.6665 25.6891 45.6156C26.1207 44.3745 26.3365 43.0604 27.2715 42.0383ZM9.64902 26.2688C9.64902 26.1228 9.64902 25.9037 9.64902 25.6847C9.79288 24.9546 9.93673 24.1516 9.93673 23.3485C9.86481 22.3994 10.2964 21.5233 10.5841 20.6472C10.4402 22.6184 10.0087 24.4436 9.64902 26.2688ZM3.60701 33.4965C3.67894 35.3947 3.75087 37.2928 3.8228 39.337C3.67894 39.191 3.60701 39.118 3.60701 39.045C3.39123 37.9499 3.3193 34.8106 3.60701 33.4965ZM34.1048 41.1622C34.1767 42.8414 33.6013 44.3745 33.2416 46.0537C33.0978 45.9077 33.0258 45.8347 33.0258 45.8347C33.3855 44.2285 33.7451 42.6954 34.1048 41.1622ZM17.3454 3.27155C17.8489 3.19854 18.4243 2.97952 18.9997 3.05253C19.3594 3.05253 19.6471 3.41756 19.9348 3.70959C19.0717 3.70959 18.2085 3.7826 17.3454 3.49057C17.3454 3.41756 17.3454 3.34455 17.3454 3.27155ZM28.1347 19.3331C27.7031 18.311 27.2715 17.2889 26.84 16.3398C26.84 16.2668 26.9119 16.1938 26.9119 16.0478C27.9908 16.9239 27.775 18.165 28.1347 19.3331ZM30.2925 35.1756C30.2925 33.7885 30.2925 32.3284 30.6522 30.9412C30.6522 32.4014 30.5803 33.7885 30.2925 35.1756ZM24.0347 7.79799C22.8839 7.65197 22.5962 7.50596 22.5962 6.77589C23.4593 6.62987 23.6032 6.70288 24.0347 7.79799ZM4.61402 14.9527C4.97366 16.3398 4.11051 17.2889 3.75087 18.311C3.89473 17.2159 4.18244 16.1208 4.61402 14.9527ZM27.1277 14.8797C26.5522 14.2956 25.4733 12.7625 25.3295 12.1784C26.3365 12.9815 27.0557 14.0766 27.1277 14.8797ZM10.5841 53.2814C11.3753 53.5004 12.742 54.4495 13.0297 54.8875C12.3104 54.8145 10.9437 53.9384 10.5841 53.2814ZM5.8368 45.0316C5.98066 45.5426 6.05259 46.0537 6.26837 46.5647C6.41223 46.8568 5.98066 47.0028 6.19644 47.3678C6.3403 47.5868 6.41223 47.9519 6.41223 48.2439C5.62102 47.2948 5.69294 46.1997 5.8368 45.0316ZM32.1627 28.386C32.1627 27.1449 32.1627 26.0497 32.1627 24.9546C32.2346 24.9546 32.2346 24.8816 32.2346 24.8816C32.3065 25.1007 32.4504 25.2467 32.4504 25.4657C32.5223 26.4148 32.81 27.3639 32.1627 28.386ZM25.6891 9.47715C26.1926 10.0612 26.6961 10.6453 27.1277 11.2293C27.3435 11.4483 27.4154 11.7404 27.3435 11.9594C26.5522 11.3023 25.9768 10.4992 25.6891 9.47715ZM9.00166 43.0604C9.14552 43.8635 9.36131 44.7396 9.50516 45.5426C9.00166 44.9586 8.71395 44.3015 8.57009 43.6445C8.49816 43.3524 8.57009 43.1334 9.00166 43.0604ZM20.5102 10.1342C20.1506 10.4992 19.8629 10.6453 19.4313 10.5723C18.9278 10.4262 18.4243 10.4262 17.777 10.3532C18.712 9.91519 19.5752 10.0612 20.5102 10.1342ZM22.74 60.5091C22.5962 60.2901 22.5242 60.144 22.4523 60.071C22.2365 59.414 21.9488 58.6839 21.6611 58.0268C21.805 57.8808 22.0207 57.8808 22.0927 58.0998C22.3804 58.7569 22.5962 59.487 22.8839 60.2901C22.8839 60.2901 22.812 60.3631 22.74 60.5091ZM27.5592 9.25813C27.9908 9.62316 28.4224 9.91519 28.854 10.2802C28.9978 10.4262 29.1417 10.6453 28.9259 10.9373C28.782 10.9373 28.6382 11.0103 28.5662 10.8643C28.1347 10.4262 27.775 9.91519 27.4154 9.40414C27.4873 9.33113 27.4873 9.33113 27.5592 9.25813ZM23.9628 65.9116C23.6032 64.8165 23.2435 63.7214 22.812 62.6263C23.6032 63.5754 23.8909 64.6705 24.1067 65.8386C24.0347 65.9116 24.0347 65.9116 23.9628 65.9116ZM1.16144 27.2179C1.37723 25.9037 1.66494 24.5896 1.88073 23.2755C2.09651 24.2246 1.66494 26.4878 1.16144 27.2179ZM29.4294 23.6405C30.0768 24.5896 30.1487 25.6847 29.9329 26.9258C29.789 25.7577 29.5733 24.7356 29.4294 23.6405ZM24.8979 2.24945C25.6891 2.03043 26.1207 2.54148 26.6961 2.90651C26.6242 3.05253 26.5522 3.19854 26.4803 3.41756C25.9768 2.97952 25.4014 2.61448 24.8979 2.24945ZM27.847 36.2707C27.9189 35.2486 28.0627 34.3726 28.1347 33.4235C28.2066 33.4235 28.2066 33.4235 28.2785 33.4235C28.2785 34.2265 28.3505 34.9566 28.3505 35.6867C28.3505 35.8327 28.0627 36.0517 27.847 36.2707ZM20.9418 54.3035C20.2945 55.1066 20.0067 55.1796 19.2875 54.7415C19.791 54.4495 20.2945 54.2305 20.9418 54.3035ZM26.0487 45.7617C25.833 46.7838 25.2575 47.3678 24.754 48.0979C24.754 47.2948 25.1137 46.6377 26.0487 45.7617ZM21.805 8.60106C21.0137 8.67407 20.2225 8.23603 19.5032 8.16302C20.2945 7.65197 21.0137 8.38204 21.805 8.30903C21.805 8.38204 21.805 8.45505 21.805 8.60106ZM26.6961 51.7482C26.3365 52.3323 25.761 52.6243 24.754 52.7703C24.9698 52.3323 25.2575 52.1863 26.6961 51.7482ZM25.6891 48.1709C26.4803 47.5868 26.5522 46.5647 27.0557 45.6886C27.1996 46.4917 26.4084 47.8789 25.6891 48.1709ZM11.3753 7.50596C11.735 7.06791 12.1665 6.62987 12.5262 6.19183C12.4542 6.9219 12.2385 7.43295 11.3753 7.50596ZM5.76487 22.3264C5.90873 21.3773 5.90873 20.3552 6.3403 19.4061C6.41223 19.4791 6.41223 19.4791 6.48416 19.4791C6.26837 20.4282 5.98066 21.3773 5.76487 22.3264ZM22.5242 10.7913C23.1716 11.2293 24.0347 11.4483 24.1786 12.3974C23.6032 11.8134 23.0997 11.3023 22.5242 10.7913ZM29.7171 65.6196C29.5013 64.6705 29.5013 64.6705 29.9329 64.4515C30.2925 65.3275 30.2925 65.3275 29.7171 65.6196ZM6.91573 41.7463C6.98766 42.3303 7.05959 42.9144 7.13152 43.6445C6.55609 43.0604 6.55609 42.7684 6.91573 41.7463ZM17.3454 9.62316C17.6331 8.82008 18.0647 8.67407 18.712 9.11211C18.2085 9.33113 17.777 9.47715 17.3454 9.62316ZM13.6051 52.7703C14.0367 53.2084 14.5402 53.5734 15.0437 54.0115C14.4682 54.3035 14.3244 53.8654 14.1086 53.6464C13.8928 53.4274 13.677 53.1354 13.4612 52.9163C13.5332 52.8433 13.5332 52.8433 13.6051 52.7703ZM26.9838 65.2545C26.4803 64.5245 26.4084 63.7214 26.1926 62.9183C26.5522 63.6484 26.84 64.3785 27.1277 65.1085C27.1277 65.1815 27.0557 65.1815 26.9838 65.2545ZM28.854 66.1306C28.7101 65.9116 28.5662 65.6926 28.4224 65.4006C28.5662 65.3275 28.7101 65.1815 28.854 65.0355C29.0697 65.3275 29.2136 65.5466 29.3575 65.8386C29.2136 65.9846 29.0697 66.0576 28.854 66.1306ZM10.0087 6.9219C9.79288 5.97281 10.3683 5.60777 11.0876 5.31575C10.7279 5.82679 10.3683 6.33784 10.0087 6.9219ZM25.6172 63.5024C25.4014 63.2103 25.1856 62.8453 25.0417 62.5533C24.8979 62.2613 24.8979 62.1152 25.2575 61.9692C25.4014 62.4803 25.6172 62.9913 25.761 63.4294C25.6891 63.5024 25.6891 63.5024 25.6172 63.5024ZM18.8559 1.37336C18.4243 1.44637 17.9927 1.44637 17.5612 1.51938C17.9927 0.789308 17.9927 0.789308 18.8559 1.37336ZM31.7311 13.3465C32.0908 14.0036 32.3785 14.7337 32.5223 15.4637C32.4504 15.4637 32.4504 15.5367 32.3785 15.5367C32.0908 14.8067 31.875 14.0766 31.5873 13.4195C31.6592 13.3465 31.7311 13.3465 31.7311 13.3465ZM27.6312 65.9846C27.775 66.2036 27.847 66.4227 27.9908 66.7147C27.847 66.7877 27.7031 66.8607 27.5592 66.9337C27.1996 66.3496 27.1996 66.3496 27.6312 65.9846ZM14.0367 10.4262C14.4682 9.62316 14.8279 9.40414 15.3314 9.62316C14.8998 9.91519 14.5402 10.1342 14.0367 10.4262ZM31.9469 17.946C32.4504 18.8951 32.5223 19.0411 31.9469 19.2601C31.9469 18.8221 31.9469 18.457 31.9469 17.946ZM25.9049 67.8828C25.6891 67.9558 25.5452 68.0288 25.3295 68.1748C25.2575 67.6638 25.2575 67.2987 25.1856 66.9337C25.2575 66.8607 25.2575 66.8607 25.3295 66.8607C25.4733 67.1527 25.6891 67.5178 25.9049 67.8828ZM16.5542 7.06791C17.0577 6.55687 17.0577 6.55687 17.6331 6.55687C17.4892 6.99491 17.4892 6.99491 16.5542 7.06791ZM27.1277 41.3812C27.1277 40.7972 27.3435 40.2861 27.847 39.9211C27.775 40.5051 27.4154 40.9432 27.1277 41.3812ZM31.2276 42.7684C31.1557 42.3303 31.2995 41.9653 31.5153 41.5272C31.7311 42.1113 31.7311 42.1843 31.2276 42.7684ZM16.4822 8.9661C16.1226 9.11211 15.8349 9.62316 15.1875 9.11211C15.691 8.9661 16.0507 8.89309 16.4822 8.82008C16.4822 8.89309 16.4822 8.9661 16.4822 8.9661ZM27.847 38.4609C28.0627 37.9499 28.2066 37.6579 28.3505 37.2198C28.4943 38.0959 28.4943 38.0959 27.847 38.4609ZM24.754 58.2459C24.5382 57.9538 24.2505 57.7348 24.0347 57.3698C24.1786 57.2968 24.3225 57.2968 24.5382 57.1508C24.6821 57.5158 24.754 57.8808 24.8979 58.2459C24.8979 58.2459 24.826 58.2459 24.754 58.2459ZM24.6102 68.4669C24.3944 68.1018 24.2505 67.7368 24.1067 67.3717C24.826 67.8828 24.9698 68.0288 24.6102 68.4669ZM29.789 5.8998C29.3575 5.46176 28.9978 4.95071 28.4943 4.36665C28.9259 4.58567 29.5013 5.24274 29.861 5.82679L29.789 5.8998ZM4.11051 42.4033C3.8228 41.8923 3.60701 41.6003 3.96666 41.0892C4.18244 41.5272 4.25437 41.8923 4.11051 42.4033ZM30.2925 43.7175C30.0768 44.1555 29.789 44.5935 29.5733 45.0316C29.5733 44.4475 29.789 44.0095 30.2925 43.7175ZM18.4962 50.6531C19.2155 50.6531 19.8629 50.5801 20.5102 50.5801L20.5102 50.6531C20.4383 50.7261 20.4383 50.7261 20.3664 50.7261C19.719 50.7991 19.1436 50.7991 18.4962 50.7991C18.4962 50.7261 18.4962 50.7261 18.4962 50.6531ZM13.3174 4.07463C13.3893 4.58567 13.0297 4.73169 12.742 4.95071C12.67 4.43966 12.8858 4.22064 13.3174 4.07463ZM18.3524 51.6022C17.9208 51.6022 17.5612 51.8212 17.2735 51.2372C17.6331 51.3102 17.9927 51.3832 18.3524 51.4562C18.3524 51.4562 18.3524 51.5292 18.3524 51.6022ZM28.7101 21.5233C28.4943 21.5963 28.4224 21.5963 28.2785 21.5963C28.2785 21.2313 28.3505 20.8662 28.3505 20.5012C28.4224 20.5012 28.4224 20.5012 28.4224 20.4282C28.4943 20.7932 28.5662 21.1583 28.7101 21.5233ZM16.1226 4.43966C16.1226 4.8777 16.1226 4.8777 15.2595 5.24274C15.4033 5.16973 15.4752 5.02372 15.6191 4.8777C15.763 4.73169 15.9068 4.65868 16.1226 4.43966ZM23.0997 6.19183C22.8839 6.19183 22.74 6.19183 22.5242 6.19183C22.6681 5.8998 22.74 5.68078 22.8839 5.31575C23.0277 5.68078 23.0277 5.8998 23.0997 6.19183ZM22.3804 65.7656C22.74 66.1306 23.0997 66.4957 23.0277 67.0797C22.812 66.6417 22.5962 66.2036 22.3804 65.7656ZM25.9049 52.9163C25.6891 53.1354 25.4733 53.2814 25.2575 53.4274C25.1137 52.9894 25.1137 52.9894 25.9049 52.9163ZM20.5822 4.8047C20.0787 4.95071 19.719 5.09672 19.4313 4.58567C19.791 4.65868 20.0787 4.73169 20.5822 4.8047ZM9.07359 38.2419C9.07359 38.3879 9.14552 38.4609 9.14552 38.534C9.14552 38.753 9.14552 38.972 9.07359 39.191C9.00166 38.899 9.00166 38.607 8.92973 38.3149C8.92973 38.2419 9.00166 38.2419 9.07359 38.2419ZM29.1417 24.2246C29.3575 24.7356 29.3575 24.7356 29.1417 25.1737C29.1417 24.8816 29.1417 24.5896 29.1417 24.2246ZM4.75787 27.4369C4.8298 27.0718 4.8298 26.7068 4.90173 26.3418C5.11752 26.7798 4.97366 27.0718 4.97366 27.4369C4.90173 27.4369 4.8298 27.4369 4.75787 27.4369ZM29.1417 27.3639C29.1417 27.0718 29.1417 26.8528 29.1417 26.6338C29.1417 26.6338 29.2136 26.6338 29.2855 26.5608C29.2855 26.8528 29.2855 27.1449 29.2855 27.3639C29.2136 27.3639 29.2136 27.3639 29.1417 27.3639ZM25.6172 57.6618C25.4733 57.3698 25.1856 57.1508 25.4014 56.7127C25.6891 57.0778 25.6891 57.2968 25.6172 57.6618ZM18.784 55.1796C18.4243 55.1066 18.1366 55.1066 17.8489 55.0336C18.2805 54.8145 18.2805 54.8145 18.784 55.1796ZM14.3244 7.87099C14.5402 7.79799 14.756 7.72498 15.0437 7.65197C15.0437 7.72498 15.0437 7.79799 15.0437 7.79799C14.8279 7.944 14.6121 8.01701 14.3963 8.16302C14.3963 8.09001 14.3244 8.01701 14.3244 7.87099ZM12.0946 5.38875C11.9507 5.60777 11.735 5.8998 11.5192 6.11882C11.4472 6.11882 11.4472 6.04582 11.3753 6.04582C11.5911 5.75379 11.8069 5.46176 11.9507 5.24274C12.0227 5.24274 12.0946 5.31575 12.0946 5.38875ZM21.0137 55.6906C21.3734 55.5446 21.5892 55.4716 21.805 55.3986C21.805 55.8366 21.805 55.8366 21.0137 55.6906ZM23.3874 53.3544C23.1716 53.5004 22.8839 53.5734 22.5962 53.7194C22.74 53.2814 23.0277 53.2084 23.3874 53.2084C23.3874 53.2084 23.3874 53.2814 23.3874 53.3544ZM29.1417 29.7001C29.1417 29.5541 29.0697 29.4811 29.0697 29.3351C29.0697 29.2621 29.0697 29.116 29.2136 29.043C29.2136 29.2621 29.2855 29.4811 29.2855 29.7001C29.2855 29.7001 29.2136 29.7001 29.1417 29.7001ZM9.86481 39.41C9.93673 39.7751 10.0087 40.1401 10.0806 40.5051C10.0087 40.5051 10.0087 40.5051 9.93673 40.5051C9.86481 40.1401 9.79288 39.8481 9.72095 39.483C9.79288 39.483 9.79288 39.41 9.86481 39.41ZM28.2066 39.045C27.9908 39.41 27.9908 39.41 27.5592 39.5561C27.7031 39.264 27.7031 39.264 28.2066 39.045ZM28.6382 16.8509C28.5662 16.4858 28.4943 16.1938 28.4224 15.8288L28.4943 15.8288C28.6382 16.1208 28.7101 16.4858 28.782 16.8509C28.782 16.8509 28.7101 16.8509 28.6382 16.8509ZM7.05959 13.2735C7.20345 12.9815 7.3473 12.6895 7.49116 12.3974C7.49116 12.9085 7.49116 12.9085 7.05959 13.2735ZM23.6032 54.8875C23.8909 55.3256 23.8909 55.3256 23.4593 55.4716C23.5312 55.2526 23.5312 55.1066 23.6032 54.8875ZM34.2486 34.7376C34.2486 34.4456 34.2486 34.1535 34.2486 33.8615L34.3205 33.8615C34.3205 34.1535 34.3205 34.4456 34.3205 34.7376L34.2486 34.7376ZM24.5382 49.412C24.3225 49.558 24.0347 49.631 23.819 49.777C23.819 49.704 23.747 49.631 23.747 49.631C23.9628 49.485 24.1786 49.412 24.3944 49.266C24.4663 49.339 24.4663 49.412 24.5382 49.412ZM21.9488 3.92861C21.733 3.8556 21.4453 3.70959 21.2295 3.63658C21.2295 3.56358 21.2295 3.49057 21.2295 3.49057C21.5172 3.56358 21.805 3.63658 22.0207 3.7826C22.0207 3.7826 22.0207 3.8556 21.9488 3.92861ZM4.97366 12.9815C5.04559 12.7625 5.18944 12.5434 5.3333 12.3244C5.3333 12.3974 5.40523 12.3974 5.40523 12.3974C5.3333 12.6165 5.18944 12.8355 5.11752 13.0545C5.04559 13.0545 4.97366 12.9815 4.97366 12.9815ZM16.9138 52.4053C17.2015 52.4783 17.5612 52.4783 17.777 52.9163C17.3454 52.8433 17.1296 52.6243 16.9138 52.4053ZM7.77887 41.9653C7.77887 41.6733 7.77887 41.5272 7.8508 41.3082C8.06659 41.5272 8.06659 41.6733 7.77887 41.9653ZM11.663 13.3465C11.735 13.1275 11.8069 12.8355 11.9507 12.6165C11.9507 12.6165 12.0227 12.6895 12.0946 12.6895C11.9507 12.9085 11.8788 13.2005 11.8069 13.4195C11.735 13.3465 11.735 13.3465 11.663 13.3465ZM26.4084 55.2526C26.1926 55.3256 26.0487 55.3256 25.9049 55.3986C25.9049 55.2526 25.833 55.1796 25.833 55.1796C26.0487 55.0336 26.0487 55.0336 26.4084 55.2526ZM4.47016 27.5099C4.47016 27.2179 4.47016 26.9258 4.47016 26.5608C4.54209 26.5608 4.54209 26.5608 4.54209 26.5608C4.54209 26.9258 4.54209 27.2179 4.54209 27.5099C4.54209 27.5099 4.54209 27.5099 4.47016 27.5099ZM25.0417 55.4716C25.1137 55.6176 25.1856 55.7636 25.1856 56.0557C24.826 55.9096 24.754 55.6906 24.8979 55.4716C24.9698 55.4716 25.0417 55.4716 25.0417 55.4716ZM7.92273 21.8153C7.8508 22.0344 7.77887 22.2534 7.77887 22.3994C7.70695 22.3994 7.63502 22.3994 7.63502 22.3994C7.63502 22.1804 7.70695 21.9614 7.77887 21.7423C7.8508 21.7423 7.8508 21.8153 7.92273 21.8153ZM22.74 65.1085C22.6681 64.8895 22.5962 64.6705 22.4523 64.4515C22.5242 64.4515 22.5242 64.4515 22.5962 64.3785C22.6681 64.5975 22.74 64.8165 22.8839 65.0355C22.812 65.0355 22.812 65.1085 22.74 65.1085ZM19.2875 58.0998C19.3594 58.2459 19.3594 58.4649 19.4313 58.6839C19.3594 58.6839 19.3594 58.6839 19.2875 58.6839C19.2155 58.5379 19.1436 58.3189 19.0717 58.1729C19.1436 58.0998 19.2155 58.0998 19.2875 58.0998ZM18.712 5.16973C18.4962 5.24274 18.3524 5.31575 18.0647 5.31575C18.2805 4.8777 18.4962 5.02372 18.712 5.16973ZM30.3645 18.53C30.3645 18.311 30.3645 18.092 30.2925 17.873C30.3645 17.873 30.3645 17.873 30.4364 17.873C30.5083 18.092 30.5083 18.238 30.5803 18.457C30.5083 18.457 30.4364 18.53 30.3645 18.53ZM30.5083 28.313C30.5083 28.0939 30.5083 27.8749 30.5083 27.6559C30.5803 27.6559 30.5803 27.6559 30.5803 27.6559C30.5803 27.8749 30.5803 28.0939 30.5803 28.313C30.5803 28.313 30.5803 28.313 30.5083 28.313ZM9.57709 37.3658C9.57709 37.5849 9.57709 37.8039 9.57709 38.0229L9.50516 38.0229C9.50516 37.8039 9.50516 37.5849 9.50516 37.3658L9.57709 37.3658ZM17.6331 54.6685C17.4173 54.6685 17.2735 54.6685 17.1296 54.6685L17.1296 54.5955C17.2735 54.5225 17.4173 54.5225 17.5612 54.4495C17.5612 54.5225 17.6331 54.5955 17.6331 54.6685ZM25.9049 61.5312C25.9768 61.7502 25.9768 61.8962 26.0487 62.1152C26.0487 62.1152 25.9768 62.1152 25.9768 62.1882C25.9049 62.1152 25.833 61.9692 25.833 61.8962C25.833 61.8232 25.761 61.6772 25.761 61.6042C25.833 61.6042 25.833 61.5312 25.9049 61.5312ZM10.9437 15.1717C10.8718 15.3177 10.7999 15.6097 10.7999 15.7558C10.7279 15.7558 10.656 15.7558 10.656 15.7558C10.7279 15.5367 10.7279 15.3177 10.7999 15.0987C10.8718 15.0987 10.9437 15.1717 10.9437 15.1717ZM8.21045 14.4416C8.13852 14.6606 7.99466 14.8067 7.92273 15.0257C7.8508 15.0257 7.8508 14.9527 7.77887 14.9527C7.92273 14.8067 7.99466 14.5876 8.06659 14.4416C8.06659 14.4416 8.13852 14.4416 8.21045 14.4416ZM30.2206 40.1401C30.1487 40.2861 30.0768 40.5051 30.0768 40.6512C30.0048 40.6512 30.0048 40.6512 29.9329 40.6512C30.0048 40.4321 30.0768 40.2861 30.0768 40.1401C30.1487 40.1401 30.1487 40.1401 30.2206 40.1401ZM3.46316 42.8414C3.53509 42.9874 3.53509 43.1334 3.60701 43.3524C3.60701 43.3524 3.53509 43.3524 3.46316 43.3524C3.46316 43.2064 3.39123 43.0604 3.3193 42.8414C3.39123 42.8414 3.39123 42.8414 3.46316 42.8414ZM10.7999 8.52806C10.8718 8.38204 10.9437 8.30903 11.0876 8.23603L11.1595 8.30903C11.0876 8.38204 10.9437 8.52806 10.8718 8.60106C10.8718 8.52806 10.7999 8.52806 10.7999 8.52806ZM3.53509 47.0028C3.60701 47.2218 3.67894 47.3678 3.75087 47.5138C3.67894 47.5138 3.60701 47.5868 3.60701 47.5868C3.53509 47.4408 3.46316 47.2218 3.39123 47.0758C3.46316 47.0758 3.53509 47.0758 3.53509 47.0028ZM26.6961 67.1527C26.6242 67.2987 26.6242 67.3717 26.6242 67.5178C26.5522 67.5178 26.4803 67.5178 26.4803 67.5178C26.4803 67.3717 26.5522 67.2257 26.5522 67.1527C26.6242 67.1527 26.6242 67.1527 26.6961 67.1527ZM21.733 5.31575C21.6611 5.31575 21.5892 5.31575 21.4453 5.24274C21.5172 5.24274 21.5172 5.16973 21.5172 5.16973C21.5892 5.16973 21.733 5.24274 21.805 5.24274C21.805 5.24274 21.805 5.31575 21.733 5.31575ZM30.5083 42.4033C30.5803 42.2573 30.5803 42.1113 30.6522 41.9653C30.7241 41.9653 30.7241 41.9653 30.796 42.0383C30.7241 42.1843 30.7241 42.3303 30.6522 42.4763C30.5803 42.4033 30.5803 42.4033 30.5083 42.4033ZM24.2505 6.19183C24.1786 6.11882 24.0347 5.97281 23.9628 5.8998C24.0347 5.82679 24.0347 5.82679 24.0347 5.82679C24.1786 5.8998 24.2505 6.04582 24.3225 6.11882L24.2505 6.19183ZM15.3314 1.66539C15.1875 1.7384 14.9717 1.7384 14.8279 1.81141C14.8279 1.81141 14.8279 1.81141 14.8279 1.7384C14.9717 1.66539 15.1156 1.59239 15.2595 1.51938C15.2595 1.59239 15.2595 1.59239 15.3314 1.66539ZM6.41223 40.5051C6.41223 40.6512 6.41223 40.7972 6.41223 40.9432C6.41223 40.9432 6.41223 40.9432 6.41223 41.0162C6.41223 40.7972 6.41223 40.6512 6.41223 40.5051L6.41223 40.5051ZM5.04559 50.0691C5.11752 50.2151 5.18944 50.3611 5.26137 50.5071C5.26137 50.5071 5.26137 50.5071 5.18944 50.5071C5.11752 50.4341 5.04559 50.2881 4.97366 50.1421L5.04559 50.0691ZM34.824 28.97C34.824 29.1891 34.824 29.3351 34.824 29.5541C34.7521 29.5541 34.7521 29.5541 34.6802 29.5541C34.6802 29.3351 34.6802 29.116 34.6802 28.97C34.7521 28.97 34.824 28.97 34.824 28.97ZM9.79288 27.6559C9.79288 27.5099 9.79288 27.3639 9.86481 27.1449C9.86481 27.3639 9.86481 27.5099 9.86481 27.6559L9.79288 27.6559Z">
	</path>
	<path style="fill: var(--color-primary)"
		d="M40.3625 24.0056C40.0748 24.1516 40.0748 24.5166 40.0748 24.8816C40.0748 26.4878 40.0029 28.167 40.0748 29.8461C40.0748 31.1602 40.0748 32.5474 40.1468 33.9345C40.1468 34.8836 40.2906 35.9057 40.2906 36.9278C40.3625 38.0229 40.2906 39.118 40.3625 40.2131L40.6503 49.12L40.866 58.6839L40.866 59.56C40.938 59.998 41.1538 60.2171 41.5134 60.2171L42.88 60.2171C42.7362 60.6551 42.952 60.8011 43.3116 60.8741C44.4625 61.0201 45.5414 60.9471 46.6203 60.7281C47.987 60.5091 49.2098 59.998 50.3606 59.195C50.7922 58.9029 51.1518 58.5379 51.1518 57.8808C51.1518 56.8587 51.2957 55.8366 51.2957 54.8145C51.2957 52.6243 51.2957 50.4341 51.2238 48.2439C51.2238 46.1997 51.0799 44.2285 51.0799 42.1843C51.008 40.5051 51.1518 38.826 51.0799 37.1468C51.0799 35.8327 51.008 34.5186 50.8641 33.2044C50.8641 32.7664 50.9361 32.4744 51.2238 32.1093C51.7992 31.3063 52.4466 30.5032 53.3097 29.8461C53.9571 29.2621 54.7483 28.897 55.6114 28.824C56.6184 28.678 57.6973 28.751 58.7043 28.97C58.9921 29.043 59.3517 29.3351 59.5675 29.5541C59.9991 29.8461 60.3587 30.2842 60.7183 30.6492C60.8622 30.7952 61.0061 30.9412 61.078 31.0872C61.5096 32.0363 61.9411 32.9124 62.2289 33.8615C62.5166 35.2486 62.7323 36.6358 62.9481 38.0959C63.1639 39.41 63.2359 40.7242 63.3797 42.0383C63.4516 42.8414 63.5236 43.6445 63.5236 44.4475C63.5955 46.3457 63.5955 48.2439 63.5955 50.1421C63.6674 52.4053 63.6674 54.7415 63.6674 57.0778C63.6674 58.0998 63.8113 58.2459 64.8183 58.3189C64.8183 58.3189 64.8902 58.3189 64.9621 58.3919C64.9621 58.4649 65.0341 58.4649 65.0341 58.5379C65.3218 59.1219 65.3937 59.1219 65.9691 58.9029C66.113 58.8299 66.2569 58.8299 66.4007 58.8299C68.3428 58.5379 70.2849 58.2459 72.2269 58.0268C72.6585 57.9538 73.2339 57.8078 73.5216 57.5158C73.8094 57.1508 74.0251 56.5667 74.0251 56.0557C74.0971 53.5004 74.169 50.8722 74.169 48.3169C74.0971 45.4696 73.9532 42.6954 73.8094 39.8481C73.7374 37.9499 73.5936 35.9787 73.3059 34.0805C73.0181 31.4523 72.5146 28.897 71.3638 26.5608C70.9322 25.6847 70.4287 24.9546 69.7094 24.2976C68.9901 23.6405 68.1989 22.9835 67.5516 22.2534C67.12 21.8153 66.6165 21.4503 66.0411 21.1583C65.6095 21.0123 65.2499 20.7202 64.8183 20.5742L61.078 19.4791L59.6394 19.2601C58.8482 19.1141 58.1289 18.8951 57.3377 19.0411L55.1798 19.4061C54.7483 19.4791 54.2448 19.4791 53.8851 19.7711C52.5185 20.7202 51.1518 21.5963 50.2168 22.9835L50.001 23.2025C49.9291 23.1295 49.9291 23.0565 49.9291 23.0565C49.7133 21.3773 49.7133 19.7711 49.3536 18.165C49.2817 18.092 49.3536 17.946 49.3536 17.946C49.2817 17.1429 49.2098 17.0699 48.4186 16.9969C47.8431 16.9969 47.1958 17.0699 46.6203 17.0699L45.4695 16.8509C45.4695 16.8509 45.3256 16.9969 45.1818 17.0699C45.0379 17.0699 44.8221 17.0699 44.7502 17.1429C44.5344 16.9969 44.3905 16.7779 44.1748 16.7779C44.0309 16.7779 43.8151 16.9969 43.5993 17.1429C43.5274 16.9239 43.3835 16.7779 43.3116 16.6318C43.0239 16.0478 42.6643 16.0478 42.3046 16.6318L41.945 17.1429L41.5134 16.2668C41.4415 16.3398 41.2257 16.3398 41.2257 16.4128C41.0818 16.7048 41.0099 16.9969 40.6503 17.0699C40.5783 17.0699 40.5064 17.3619 40.5064 17.5079C40.6503 18.165 40.6503 18.165 40.0029 18.457C40.0029 19.7711 39.931 21.1583 40.0029 22.4724C40.0029 22.9835 40.2187 23.4945 40.3625 24.0056ZM59.4956 27.9479C59.3517 27.9479 59.2078 28.0209 59.064 27.9479C57.6254 27.5829 56.1868 27.5829 54.7483 27.8749L54.4606 27.8749L55.8991 26.8528C57.05 27.1449 58.057 27.4369 59.064 27.8019C59.2078 27.8019 59.3517 27.8749 59.4956 28.0209C59.6394 28.0209 59.8552 27.9479 59.9991 28.0209C60.5026 28.459 61.078 28.824 61.4376 29.5541C60.9341 29.4081 60.7183 28.97 60.4306 28.751L59.4956 27.9479ZM41.4415 26.8528C41.5853 27.4369 41.5134 27.9479 41.5134 28.532C41.2976 30.6492 41.2257 32.8394 41.2976 35.0296C41.3695 35.8327 41.3695 36.6358 41.3695 37.4389L41.8011 43.1334C41.8011 43.4254 41.7292 43.6445 41.7292 43.9365C41.7292 45.9077 41.7292 47.8789 41.8011 49.9231C41.8011 50.0691 41.7292 50.2151 41.6573 50.2881C41.6573 50.1421 41.5853 49.9231 41.5853 49.704L41.2257 38.0959C41.1538 36.6358 41.0099 35.1756 41.0099 33.7155C40.938 31.5983 41.0099 29.4081 41.0099 27.2909C41.0099 26.9988 41.0099 26.7798 41.4415 26.8528ZM72.3708 55.0336C72.2989 54.8145 72.2269 54.7415 72.2269 54.6685C72.2269 53.4274 72.0831 52.1863 72.0831 50.9452C72.0831 50.2151 72.2269 49.485 72.2989 48.7549L72.2989 45.3966C72.4427 45.3966 72.5866 45.3236 72.8024 45.1776C72.8024 45.2506 72.8743 45.3236 72.8743 45.3236C72.9462 47.5138 73.0901 49.704 72.8743 51.8942L72.3708 55.0336ZM50.2168 34.0075C50.5045 37.8039 50.001 41.6003 50.2168 45.3966C50.1448 45.3966 50.0729 45.3966 50.0729 45.3966C49.9291 43.7905 49.7852 42.1843 49.7133 40.6512C49.6413 39.118 49.6413 37.6579 49.6413 36.1247C49.6413 35.6867 49.6413 35.2486 49.7133 34.8106L50.001 33.9345C50.0729 34.0075 50.1448 34.0075 50.2168 34.0075ZM64.0271 36.9278C64.6025 38.4609 64.7464 39.9941 64.8183 41.5272L65.106 45.9077C65.106 46.7838 65.106 47.5868 65.0341 48.4629C65.0341 49.12 64.9621 49.8501 64.8902 50.6531C64.6744 50.1421 64.7464 49.704 64.7464 49.339C64.6744 47.8059 64.7464 46.1997 64.6744 44.6665C64.6025 43.3524 64.4586 42.0383 64.3148 40.6512C64.2429 39.6291 64.099 38.534 63.9551 37.5119C63.9551 37.3658 63.9551 37.1468 64.0271 36.9278ZM49.3536 23.6405C48.994 23.5675 48.9221 23.3485 48.9221 23.1295L48.5624 19.5521L48.5624 18.8951L48.2747 18.603C48.1308 18.603 47.987 18.749 47.987 18.8221C47.7712 19.4791 47.6273 20.0632 47.4835 20.7202L47.4835 17.873C47.8431 17.873 48.1308 17.8 48.6343 17.8L49.3536 23.6405ZM68.4147 26.0497C67.6954 26.0497 67.6235 25.9767 67.4796 25.4657C67.1919 24.6626 66.8323 23.9325 65.9691 23.6405C65.4656 23.3485 65.1779 22.9835 64.8902 22.1804C66.113 22.5454 66.9761 23.3485 67.6235 24.3706C67.9831 24.8816 68.4866 25.3197 68.4147 26.0497ZM49.2098 59.56C47.3396 60.4361 45.3256 60.7281 43.2397 60.5091C43.3116 60.3631 43.3835 60.2901 43.3835 60.2901C44.4625 60.2901 45.3975 59.925 46.4765 59.779L48.3466 59.633C48.6343 59.633 48.9221 59.633 49.2098 59.56ZM60.4306 20.5742C59.3517 20.5742 58.2728 20.5742 57.1938 20.6472C56.5465 20.6472 55.8991 20.7202 55.1079 20.7932C55.1079 20.7932 54.9641 20.6472 54.7483 20.3552C55.7553 20.2092 56.6903 19.9902 57.6254 19.9902C58.5605 19.9902 59.4956 20.2822 60.4306 20.4282C60.4306 20.4282 60.4306 20.5012 60.4306 20.5742ZM48.994 47.5868C48.8501 44.5205 48.4186 41.5272 48.5624 38.4609C49.0659 41.5272 49.0659 44.5205 48.994 47.5868ZM48.6343 58.3189C48.7782 58.2459 48.9221 58.0268 49.0659 58.0268C49.6413 58.0268 49.7852 57.5888 49.8571 57.1508L50.2168 54.3035C50.2168 54.0845 50.2168 53.8654 50.2887 53.7194C50.3606 55.0336 50.4326 56.4207 50.4326 57.7348C50.5045 58.3189 50.2887 58.4649 49.7133 58.4649L49.2098 58.4649L48.7063 58.4649C48.6343 58.3919 48.6343 58.3919 48.6343 58.3189ZM41.2976 25.0277C41.1538 23.2755 41.0818 21.5233 41.0099 19.7711C41.5134 21.0853 41.5853 23.6405 41.2976 25.0277ZM53.6693 22.3264L52.5904 24.0786C52.4466 24.4436 52.1588 24.6626 51.7273 24.7356L53.9571 21.0853L54.1728 21.2313L53.6693 22.3264ZM47.4835 57.4428C47.4116 56.0557 47.6993 54.6685 47.7712 53.2814C47.8431 54.2305 47.987 55.2526 47.987 56.2017C47.987 56.6397 47.8431 57.0778 47.6993 57.4428L47.4835 57.4428ZM67.6235 55.6906C67.1919 55.6906 66.9761 55.6176 66.9761 55.1796C67.0481 54.7415 66.9761 54.3765 67.3358 54.0115C67.5516 53.8654 67.5516 53.5004 67.6235 53.2814L67.6235 55.6906ZM47.4835 31.0142C47.1238 30.5762 46.98 28.897 47.3396 27.5829L47.4835 27.5829L47.4835 31.0142ZM44.6783 58.6109C44.6063 58.6839 44.5344 58.7569 44.4625 58.7569C44.1748 58.7569 43.8151 58.8299 43.3116 58.9029L43.7432 57.5888L44.3905 57.8078L44.6783 58.6109ZM71.4357 51.9673C71.3638 53.1354 71.148 54.2305 70.7164 55.3986L70.5726 55.3986L70.5726 54.3765C70.5726 54.0115 70.5726 53.7194 70.9322 53.5004C71.0041 53.4274 71.0041 53.1354 71.0041 52.9163C71.0761 52.5513 71.148 52.2593 71.148 51.8942C71.2919 51.8942 71.3638 51.8942 71.4357 51.9673ZM42.4485 49.558C42.6643 49.485 42.6643 49.485 42.7362 49.485C42.8081 49.485 42.88 49.485 42.952 49.558C42.952 50.7991 42.88 52.0403 42.8081 53.2814C42.7362 53.2814 42.7362 53.2814 42.6643 53.3544L42.4485 49.558ZM59.6394 22.5454C61.0061 22.5454 61.0061 22.5454 61.5815 23.7135C61.1499 23.8595 61.1499 23.8595 59.6394 22.5454ZM70.4287 37.8039C70.2849 36.7088 69.6375 35.6137 70.2129 34.4456C70.4287 35.5407 70.4287 36.6358 70.4287 37.8039ZM62.0131 21.4503C62.8043 21.1583 63.2359 21.5963 63.8113 21.7423L63.6674 22.3264C63.092 22.1074 62.4446 22.1074 62.0131 21.4503ZM69.2779 27.3639C69.9252 28.24 70.2849 29.043 70.2129 29.8461C69.7814 29.116 69.2059 28.459 69.2779 27.3639ZM49.8571 54.3765C49.7133 55.3256 49.7133 56.2017 49.4256 57.0047C49.1378 55.8366 49.2817 54.7415 49.8571 54.3765ZM48.8501 29.7731C48.8501 29.7001 48.9221 29.7001 48.994 29.7001C49.2098 31.1602 49.2098 32.6204 49.1378 34.0805C49.1378 34.0805 49.0659 34.0805 48.994 34.0805L48.8501 29.7731ZM63.8832 23.9325C63.8832 24.0786 63.8113 24.2246 63.6674 24.4436C63.5236 24.2246 63.3797 24.1516 63.3078 24.0056C63.2359 23.7135 63.092 23.6405 62.8043 23.5675C62.5166 23.5675 62.3727 23.3485 62.1569 22.9835C63.0201 22.9835 63.3797 23.5675 63.8832 23.9325ZM62.1569 30.3572C62.8043 31.0142 63.2359 31.6713 63.1639 32.6934C62.7323 31.8903 62.3727 31.1602 62.1569 30.3572ZM43.8151 29.116C43.8151 29.7731 43.8151 30.4302 43.7432 31.0142C43.4555 30.6492 43.5993 30.2112 43.5274 29.7731C43.4555 29.4081 43.3116 28.97 43.8151 28.605L43.8151 29.116ZM61.5815 27.5099C62.5166 27.7289 62.3727 28.605 62.8043 29.116C62.1569 28.824 61.7253 28.167 61.5815 27.5099ZM72.6585 42.9144C72.5866 42.9144 72.5146 42.9144 72.5146 42.9144L72.5146 39.264C72.5146 39.264 72.5866 39.264 72.6585 39.264L72.6585 42.9144ZM64.099 31.3063C64.9621 31.6713 65.106 31.8903 65.106 33.1314L64.099 31.3063ZM48.0589 58.0998C48.2028 57.5888 48.3466 57.1508 48.4186 56.6397C48.8501 56.9317 48.7782 57.3698 48.9221 57.7348C48.7063 57.8808 48.4186 57.9538 48.0589 58.0998ZM46.6203 17.946C46.98 18.676 46.1888 18.676 46.0449 19.1141L46.0449 17.946L46.6203 17.946ZM66.9042 56.2747C66.9042 56.2017 66.9761 56.0557 66.9761 55.9826C67.6235 55.9826 67.6954 56.1287 67.6235 56.4937C67.5516 56.9317 67.4796 57.0047 66.9042 56.8587L66.9042 56.2747ZM46.1888 40.8702C46.3326 41.8193 46.4765 42.7684 46.3326 43.7175C46.1168 43.2064 46.0449 42.0383 46.1888 40.8702ZM46.6203 56.4207C46.8361 57.1508 46.9081 57.7348 46.6923 58.4649C46.4046 57.8808 46.3326 56.8587 46.6203 56.4207ZM43.0239 47.1488C43.0239 46.4187 42.88 45.6886 43.0958 44.8126C43.3835 45.4696 43.3116 46.4917 43.0239 47.1488ZM69.2779 54.7415C68.9182 54.0845 68.9901 53.5004 69.2779 52.9163C69.3498 52.9163 69.4217 52.9163 69.4217 52.9163L69.2779 54.7415ZM43.0958 35.7597L43.0239 35.7597L43.0239 32.1823L43.0958 32.1823L43.0958 35.7597ZM46.0449 32.5474C46.3326 33.2775 46.3326 33.8615 46.2607 34.5186C46.1888 34.5186 46.0449 34.5186 46.0449 34.5186L46.0449 32.5474ZM64.8902 51.8942C64.9621 52.0403 65.0341 52.0403 65.0341 52.1133C65.0341 52.9163 64.9621 53.7194 64.8902 54.5955L64.8902 51.8942ZM43.0958 39.5561L42.952 39.5561L42.952 36.9278L43.0958 36.9278L43.0958 39.5561ZM41.6573 53.4274C42.0888 54.0115 42.0169 54.5955 41.6573 55.1066L41.6573 53.4274ZM72.155 47.1488C72.155 47.7328 72.0831 48.2439 72.0831 48.7549C71.8673 47.8789 71.8673 47.5868 72.155 47.1488ZM49.6413 31.4523C50.1448 31.8903 50.2168 32.4014 49.7133 32.9854C49.7133 32.4744 49.6413 32.0363 49.6413 31.4523ZM58.9921 23.1295C58.5605 23.0565 58.057 22.9835 57.6254 22.9835C58.4166 22.5454 58.6324 22.5454 58.9921 23.1295ZM54.4606 22.9835C54.7483 22.3994 55.036 21.9614 55.2518 21.4503C55.2518 22.0344 55.1079 22.6184 54.4606 22.9835ZM71.3638 55.4716C71.5076 56.4937 71.5076 56.6397 71.0761 56.6397L71.3638 55.4716ZM47.6273 46.2727L47.6273 48.0979L47.6273 46.2727ZM66.9761 27.0718C67.1919 27.3639 67.4077 27.7289 67.5516 28.0939C67.12 27.8749 66.9042 27.5099 66.9761 27.0718ZM44.7502 44.1555C44.8941 44.3015 44.966 44.3745 44.966 44.4475C44.966 44.8856 44.966 45.3236 44.8941 45.8347C44.8941 45.3236 44.8221 44.8126 44.7502 44.1555ZM46.1888 45.3236L46.2607 45.3236L46.2607 47.1488L46.1888 47.1488L46.1888 45.3236ZM46.2607 49.558L46.1888 49.558L46.1888 47.9519L46.2607 47.9519L46.2607 49.558ZM62.4446 24.8086C62.8762 24.8086 63.092 24.9546 63.4516 25.4657L62.4446 24.8086ZM45.3975 55.9096C45.5414 56.4207 45.3975 56.7857 45.1818 57.1508C45.1098 56.7127 45.1098 56.3477 45.3975 55.9096ZM45.6133 57.8078C45.973 58.3189 45.973 58.4649 45.3975 58.5379L45.6133 57.8078ZM46.4046 52.1863C46.4046 52.6243 46.4046 53.0624 46.4765 53.5004L46.3326 53.5004L46.3326 52.1863L46.4046 52.1863ZM67.1919 37.5849C67.3358 38.0229 67.5516 38.2419 67.1919 38.68L67.1919 37.5849ZM43.6713 19.5521C43.6713 19.6251 43.5993 19.6251 43.5993 19.6251C43.5993 19.1141 43.5274 18.676 43.5274 18.165C43.5993 18.238 43.5993 18.238 43.6713 18.238L43.6713 19.5521ZM51.008 28.824C51.008 28.897 51.0799 28.897 51.1518 28.97L50.5764 29.6271C50.5045 29.5541 50.5045 29.4811 50.4326 29.4811L51.008 28.824ZM68.9901 47.5138C68.9182 47.5138 68.9182 47.5138 68.9182 47.5138L68.9182 46.7107C68.9182 46.7107 68.9182 46.7107 68.9901 46.7107L68.9901 47.5138ZM66.5446 44.8856C66.4726 44.8856 66.4726 44.8856 66.4726 44.8856L66.4726 44.2285C66.4726 44.2285 66.4726 44.2285 66.5446 44.2285L66.5446 44.8856ZM43.6713 23.8595C43.6713 23.6405 43.5993 23.4945 43.5993 23.2025C43.959 23.4215 43.8151 23.6405 43.8151 23.7865C43.8151 23.8595 43.7432 23.8595 43.6713 23.8595ZM70.2129 46.4187C70.2849 46.5647 70.2849 46.7838 70.2849 47.0028C70.2129 47.0028 70.2129 47.0028 70.2129 47.0028L70.2129 46.4187ZM50.7203 31.0872C50.8641 30.9412 51.008 30.7952 51.0799 30.6492C51.1518 30.6492 51.1518 30.7222 51.2238 30.7222L50.7922 31.2333C50.7922 31.1602 50.7203 31.1602 50.7203 31.0872ZM67.3358 32.4744C67.4077 32.4744 67.4796 32.4014 67.5516 32.4014L67.7674 33.0584C67.6954 33.1314 67.6235 33.1314 67.5516 33.1314L67.3358 32.4744Z">
	</path>
	<path style="fill: var(--color-primary)"
		d="M88.6267 43.3524C89.6337 43.2794 90.4249 43.1334 91.2161 43.1334L98.0493 42.9874C100.135 42.9144 102.293 42.7684 104.379 42.6224C104.883 42.6224 105.386 42.5493 105.818 42.5493L110.853 42.5493C112.291 42.5493 112.507 42.3303 112.579 40.8702C112.795 37.7309 112.723 34.5916 112.219 31.4523C111.572 27.3639 110.133 22.0344 106.393 19.7711L105.674 19.3331C103.804 18.019 101.214 17.6539 98.9844 17.6539C98.1212 17.5809 97.33 17.5079 96.4669 17.5809C94.6687 17.873 92.5108 18.165 90.9284 19.0411C90.1372 19.5521 89.274 20.0632 88.4109 20.5012C81.8654 24.2976 79.7794 28.751 78.5566 35.9057C78.197 38.534 77.9812 41.2352 78.0531 43.9365C78.2689 47.5138 80.4268 51.6022 83.232 53.8654C84.0952 54.5955 85.0302 55.2526 85.9653 55.9096L87.5477 56.9317C89.1302 57.9538 90.7126 58.9759 92.6547 59.268C94.381 59.487 96.1072 59.925 97.8335 59.925C100.207 59.925 102.653 59.925 104.883 59.0489C105.026 58.9759 105.098 58.9759 105.17 58.9759C106.681 58.4649 108.047 57.8808 109.126 56.6397L110.781 54.8145C110.996 54.5225 110.996 54.3035 110.709 53.9384L109.63 52.4783L109.63 51.5292C109.414 51.5292 109.198 51.6022 108.911 51.6022L108.335 50.7991C108.839 49.8501 108.839 49.8501 108.263 49.631L107.688 49.9961L107.472 49.704C107.472 49.704 107.4 49.558 107.4 49.485C107.975 48.6089 107.975 48.6089 107.76 48.2439L106.897 48.901L106.537 48.3899L106.897 47.8789C106.753 47.7328 106.609 47.6598 106.465 47.5868L106.753 46.9298L105.746 47.2948C105.458 47.3678 105.17 47.2948 104.883 47.3678C104.667 47.6598 105.026 48.2439 104.379 48.3169C103.876 47.8059 103.3 47.6598 102.581 47.9519C101.933 48.2439 101.286 48.6089 100.639 48.828C99.8475 49.047 99.0563 49.266 98.2651 49.412C97.33 49.485 96.395 49.339 95.4599 49.339C94.8845 49.339 94.309 49.193 93.8055 48.901C93.2301 48.4629 92.5108 48.1709 91.8634 47.8059C91.5757 47.5868 91.2161 47.2948 91.0003 47.0028C90.4968 46.4187 90.0652 45.8347 89.7056 45.2506L88.6267 43.3524ZM102.653 32.6934C102.077 32.6204 101.502 32.5474 100.998 32.5474L97.402 32.7664C96.2511 32.9124 95.1722 32.9124 94.0213 33.0584C93.2301 33.1314 92.4389 33.4235 91.6477 33.5695C90.9284 33.6425 90.1372 33.7155 89.274 33.8615L89.5617 33.0584C90.0652 32.0363 90.4968 30.8682 91.288 29.9921C92.7985 28.386 94.4529 27.4369 96.5388 27.4369C98.409 27.4369 100.207 28.167 101.214 29.8461C101.718 30.6492 102.149 31.5253 102.581 32.3284C102.581 32.4014 102.581 32.5474 102.653 32.6934ZM88.6267 42.8414C88.4828 42.4033 88.7705 42.4033 88.9863 42.4033C90.2091 42.2573 91.4319 42.1843 92.7266 42.1113L99.5598 41.5272C101.07 41.3082 102.653 41.3812 104.163 41.6003C104.019 41.6733 103.876 41.7463 103.66 41.7463C103.084 41.8193 102.437 41.8923 101.79 41.8923L94.2371 42.2573C92.9424 42.3303 91.6477 42.4033 90.3529 42.5493C89.7775 42.5493 89.2021 42.6954 88.6267 42.8414ZM94.7406 38.0229C94.4529 38.1689 94.1652 38.2419 93.8055 38.3149L88.1951 38.972C88.1232 38.753 88.1232 38.534 88.1232 38.2419C90.3529 37.9499 92.5108 37.7309 94.7406 37.8769L94.7406 38.0229ZM106.681 21.0853C106.753 21.0853 106.897 21.2313 106.968 21.3043C106.897 21.6693 106.825 21.9614 106.825 22.1804C106.825 22.4724 106.968 22.7644 106.897 23.0565C106.825 22.9104 106.681 22.7644 106.609 22.5454C106.249 21.9614 106.105 21.8883 105.602 22.4724C104.379 21.6693 103.012 21.3043 101.574 20.8662L102.653 20.2822L104.379 21.3043C104.883 21.5233 105.386 21.7423 105.89 21.5233C106.105 21.4503 106.321 21.2313 106.681 21.0853ZM108.191 38.972C107.544 39.118 106.897 39.264 106.321 39.118C105.961 38.972 105.674 38.899 105.314 38.972C104.954 39.045 104.739 38.972 104.595 38.534C105.602 38.3149 106.609 38.2419 107.616 38.0229L108.191 38.972ZM112.003 37.8039C111.788 36.7818 111.716 35.8327 111.5 34.8836C111.86 34.1535 111.356 33.4965 111.212 32.8394C111.14 32.6934 111.14 32.4744 111.14 32.2554L111.14 30.1381C111.572 30.7952 112.291 36.4168 112.003 37.8039ZM80.4268 47.7328C79.7794 47.1488 79.5637 46.3457 79.4917 45.5426L79.3479 40.2131C79.3479 40.0671 79.4198 39.9211 79.4917 39.8481C79.7075 41.1622 79.9233 42.4763 79.7075 43.8635C79.6356 44.2285 79.7075 44.6665 79.7794 45.0316C79.9233 45.9807 80.211 46.8568 80.4268 47.7328ZM106.393 56.8587C106.465 57.0047 106.465 57.2968 106.177 57.3698C104.667 57.9538 103.228 58.6839 101.574 58.5379L104.091 57.7348C104.811 57.4428 105.458 56.8587 106.393 56.8587ZM90.6407 20.4282C91.7915 19.5521 93.0862 19.1141 94.5248 19.1141C93.9494 19.4061 93.3739 19.6981 92.7985 19.9172L91.3599 20.5742C91.0722 20.6472 90.8564 20.7932 90.6407 20.4282ZM93.2301 22.8374C93.5897 22.1804 93.5178 22.1074 92.7985 21.9614C93.5178 21.4503 93.5897 21.4503 94.1652 21.9614C94.309 22.1804 94.5248 22.3264 94.8125 22.5454L93.0143 23.5675C93.0143 23.4945 92.9424 23.4945 92.9424 23.4215L93.2301 22.8374ZM101.502 28.532C100.567 27.6559 99.4879 27.0718 98.2651 26.5608L98.6247 26.5608L100.639 26.9988C100.855 27.0718 101.07 27.1449 101.214 27.4369C101.286 27.8019 101.358 28.167 101.502 28.532ZM105.602 31.3793C105.818 32.6934 106.033 34.0075 106.177 35.2486C106.105 35.2486 106.105 35.3216 106.033 35.3216L105.242 32.1823C105.17 31.8903 105.17 31.5983 105.602 31.3793ZM93.1582 24.8816C93.302 25.1737 93.1582 25.3197 92.9424 25.4657C92.1512 26.1228 91.3599 26.7798 90.5687 27.3639C90.7126 26.7068 91.7915 25.6117 93.1582 24.8816ZM99.5598 38.0229C101.07 37.8039 102.509 37.6579 104.019 37.5119C104.019 37.8039 103.732 37.8039 103.516 37.8039C102.509 37.8769 101.43 38.0229 100.423 38.3879C100.063 38.534 99.9195 38.2419 99.5598 38.0229ZM103.66 30.8682C104.163 31.0142 104.379 31.3793 104.451 31.8173C104.523 32.4014 104.667 32.9124 104.811 33.4965C104.883 33.7155 104.883 33.8615 104.883 34.2265L104.595 34.0075L103.66 30.8682ZM96.4669 51.2372C96.1792 51.4562 95.8914 51.4562 95.6037 51.3832C94.6687 51.0182 93.6617 50.7261 92.7266 50.4341C92.5108 50.3611 92.367 50.2151 92.2231 50.0691L96.4669 51.2372ZM82.225 28.24C81.9373 29.2621 81.6496 30.2112 81.2899 31.1602C81.1461 31.5253 80.9303 31.8903 80.7145 32.2554C80.9303 30.8682 81.4338 29.4811 82.225 28.24ZM91.6477 28.459C90.2091 29.6271 89.4898 31.2333 88.6267 32.8394C88.9863 30.9412 90.0652 29.4811 91.6477 28.459ZM86.253 35.6137C86.6846 35.7597 86.9004 35.9787 86.7565 36.3437L86.0372 37.8769C85.9653 37.8039 85.8934 37.8039 85.8214 37.8039L86.253 35.6137ZM99.0563 20.2092C99.5598 19.9902 100.063 19.6251 100.639 19.6251C100.926 19.6251 101.214 19.6981 101.574 19.9902C100.711 20.2092 99.9195 20.4282 99.0563 20.2092ZM89.274 24.8086C89.4179 24.8816 89.5617 24.9546 89.7056 25.1007C89.6337 25.1737 89.6337 25.1737 89.6337 25.2467C89.274 25.6117 88.8424 25.9037 88.6267 26.3418C88.4828 26.7798 88.1951 27.2179 87.9074 27.5099C88.1232 26.4878 88.6986 25.6847 89.274 24.8086ZM107.904 30.2842C107.472 29.4811 107.256 28.678 107.112 27.8019L108.263 29.9191L107.904 30.2842ZM84.3829 47.4408C84.0232 46.8568 83.7355 46.1997 83.8074 45.4696C84.4548 45.8347 84.5987 46.4187 84.3829 47.4408ZM85.8934 26.7068C85.8214 27.2909 85.3899 27.8749 84.4548 28.751C84.6706 27.9479 85.1022 27.2179 85.8934 26.7068ZM99.9195 38.972C99.9195 39.191 99.9914 39.337 100.063 39.483C99.9195 39.5561 99.7037 39.6291 99.7037 39.5561C99.1282 39.191 98.4809 39.5561 97.9055 39.337L97.9055 39.191L99.9195 38.972ZM90.8564 52.4783C89.8494 52.1863 89.8494 51.2372 89.4898 50.4341C90.281 50.8722 90.3529 51.8212 90.8564 52.4783ZM90.7845 53.8654C91.7915 53.7924 92.1512 54.5225 92.7985 54.8875C92.295 55.1796 92.0792 54.8145 91.7915 54.5955L90.7845 53.8654ZM96.0353 21.9614C96.8985 21.7423 97.6897 21.5963 98.409 21.3773C98.409 21.4503 98.4809 21.5233 98.4809 21.5963C98.1212 21.8883 97.6897 21.8153 97.2581 21.8153C96.6107 22.3994 96.6107 22.3994 96.0353 21.9614ZM110.493 27.6559C110.133 26.7068 109.702 25.8307 109.342 24.9546C109.27 24.8086 109.342 24.6626 109.342 24.5166C109.846 25.5387 110.493 26.4878 110.493 27.6559ZM86.6846 47.4408C86.6846 47.4408 86.7565 47.4408 86.8284 47.3678C87.1881 48.0979 87.9074 48.6819 87.6197 49.777L86.6846 47.4408ZM104.379 28.532C105.026 29.043 105.53 29.5541 105.386 30.5032C105.026 29.7731 104.523 29.3351 104.379 28.532ZM102.437 35.5407C102.869 35.4677 103.3 35.3947 103.732 35.2486C104.091 35.1756 104.163 35.3947 104.235 35.7597C103.588 35.7597 103.012 35.6867 102.437 35.6867L102.437 35.5407ZM95.1722 26.2688C95.8914 25.9037 96.6827 26.0497 97.4739 26.0497C96.9704 26.4148 96.1072 26.4878 95.1722 26.2688ZM107.04 25.6847C107.616 26.1958 108.119 27.2909 108.263 28.0939C107.616 27.3639 107.4 26.4878 107.04 25.6847ZM86.253 50.3611C86.1092 49.631 85.8934 48.901 85.6776 48.0979C86.3249 48.7549 86.6127 49.777 86.253 50.3611ZM101.43 52.7703C100.855 53.1354 100.495 53.2814 99.9914 53.2814C99.7037 53.2814 99.344 53.2084 98.9125 53.1354L101.43 52.7703ZM103.156 49.558C102.869 49.9231 102.797 50.6531 102.005 50.4341C102.077 49.704 102.653 49.704 103.156 49.558ZM86.6127 42.4033C86.3969 41.8923 85.8934 41.3812 86.1811 40.7242L86.3969 40.7242L86.7565 42.3303C86.7565 42.3303 86.6846 42.4033 86.6127 42.4033ZM94.381 23.9325C94.8845 23.4945 95.2441 22.9835 96.1072 22.9835C95.6037 23.6405 95.0283 23.7865 94.381 23.9325ZM104.379 37.7309C104.523 37.1468 104.883 37.2198 105.242 37.1468C105.458 37.1468 105.746 37.0738 105.746 37.5119L104.379 37.7309ZM95.2441 54.5955C95.1002 54.7415 94.8845 54.8145 94.7406 54.8145C94.381 54.8145 93.9494 54.5225 93.302 54.0115L95.2441 54.5955ZM105.098 56.0557C104.883 55.9826 104.739 55.8366 104.595 55.7636C104.811 55.3256 105.17 55.2526 105.746 55.2526L105.098 56.0557ZM104.595 57.0047C104.451 56.0557 103.804 56.6397 103.372 56.6397C103.947 55.9096 104.163 55.9826 104.954 56.7127L104.595 57.0047ZM109.126 36.5628C108.695 35.2486 108.479 33.8615 108.479 32.4744L109.126 36.5628ZM89.0582 46.4187C88.1951 46.2727 88.1232 46.1267 88.1951 45.1046C88.4828 45.6156 88.7705 45.9807 89.0582 46.4187ZM89.7056 53.0624C89.274 52.8433 88.8424 52.6973 88.7705 51.9673C89.2021 52.2593 89.6337 52.4053 89.7056 53.0624ZM109.63 39.6291C109.198 39.7751 108.839 39.8481 108.407 39.9211C108.982 39.191 109.198 39.118 109.63 39.6291ZM103.084 30.9412C102.869 30.3572 102.653 29.7001 102.509 29.116C103.084 29.5541 103.012 30.2842 103.228 30.9412L103.084 30.9412ZM89.8494 54.5225C89.274 54.1575 89.274 54.1575 89.274 53.6464C89.9933 53.9384 89.9933 53.9384 89.8494 54.5225ZM82.5127 42.9144C82.5127 43.3524 82.5127 43.7905 82.4408 44.3015C82.0092 43.6445 82.0092 43.3524 82.5127 42.9144ZM107.184 36.5628L107.4 37.2198L106.968 37.4389C106.897 37.0738 106.753 36.7088 107.04 36.4168L107.184 36.5628ZM83.7355 34.7376C83.9513 35.2486 83.8794 35.3947 82.8724 35.9057L83.7355 34.7376ZM85.7495 43.8635C85.6776 43.3524 85.3899 42.8414 85.5337 42.3303C85.9653 42.9144 85.9653 43.1334 85.7495 43.8635ZM87.1881 33.1314C87.3319 32.6204 87.4758 32.1093 87.9074 31.6713C87.9793 32.1823 87.9074 32.2554 87.1881 33.1314ZM94.5967 26.8528C93.9494 27.0718 93.5178 27.2909 93.0143 27.4369C93.4459 27.0718 93.8055 26.5608 94.5967 26.8528ZM99.7756 22.8374C99.1282 22.8374 98.7686 22.3994 98.337 22.1074C98.8405 22.1074 99.2002 22.3264 99.7756 22.8374ZM105.026 35.0296C105.314 35.3947 105.386 35.6867 105.386 36.0517C105.386 36.1247 105.17 36.1977 105.026 36.2707L105.026 35.0296ZM109.126 41.1622C108.551 41.5272 107.975 41.4542 107.4 41.4542C107.975 41.2352 108.551 41.0892 109.126 41.1622ZM93.8055 53.5004L93.8055 53.3544L94.5248 53.5004L95.2441 53.7924C95.2441 53.7924 95.2441 53.8654 95.1722 53.9384L93.8055 53.5004ZM104.883 24.8816C104.379 24.8086 104.379 24.7356 104.307 24.0056C104.379 24.0056 104.451 23.9325 104.451 23.9325L104.883 24.8816ZM103.3 28.824C103.66 29.116 103.947 29.4811 103.947 29.9191C103.516 29.5541 103.444 29.5541 103.3 28.824ZM102.509 19.2601C103.156 19.1871 103.516 19.2601 104.091 19.7711L102.509 19.2601ZM91.4319 22.7644C91.4319 23.2755 91.1442 23.7135 90.8564 24.0786C90.7845 24.0786 90.7845 24.0056 90.7126 24.0056L91.4319 22.7644ZM84.4548 51.6752C84.7425 52.1133 84.9583 52.3323 85.246 52.6973C84.5987 52.5513 84.5987 52.5513 84.4548 51.6752ZM97.6897 19.6251C98.1212 19.5521 98.5528 19.5521 98.9125 19.5521C98.5528 19.6981 98.1212 20.1362 97.6897 19.6251ZM85.3179 34.1535C85.246 33.7885 85.3179 33.5695 85.7495 33.4965C85.7495 33.7885 85.6776 34.0805 85.3179 34.1535ZM101.502 25.8307C102.005 25.8307 102.149 25.9037 102.293 26.5608L101.502 25.8307ZM94.0932 57.5888C94.0932 57.6618 94.0932 57.6618 94.0213 57.7348L92.9424 57.5158C92.9424 57.5158 93.0143 57.4428 93.0143 57.3698L94.0932 57.5888ZM102.725 53.4274C103.156 52.9894 103.156 52.9894 103.66 52.9894L103.66 53.1354L102.725 53.4274ZM83.8074 36.1247C83.6636 36.2707 83.8794 36.7818 83.232 36.6358L83.6636 36.0517C83.6636 36.0517 83.7355 36.1247 83.8074 36.1247ZM86.1811 24.9546C86.3969 25.4657 86.1092 25.6847 85.7495 25.8307L86.1811 24.9546ZM105.89 49.193C105.961 49.339 106.033 49.485 106.033 49.558C106.033 49.631 105.89 49.704 105.746 49.777C105.674 49.704 105.602 49.558 105.602 49.412C105.602 49.339 105.746 49.266 105.89 49.193ZM102.94 27.1449C103.012 27.1449 103.012 27.0718 103.084 27.0718C103.228 27.2179 103.3 27.4369 103.444 27.6559C103.372 27.6559 103.3 27.7289 103.228 27.8019L102.94 27.1449ZM84.8864 43.3524C85.3179 43.9365 85.3179 43.9365 85.0302 44.3015L84.8864 43.3524ZM104.307 39.045L103.804 39.045C103.876 38.826 103.947 38.753 104.091 38.534L104.307 39.045ZM86.7565 40.7242C87.1162 41.0162 87.1162 41.0162 86.9723 41.6733C86.8284 41.2352 86.8284 41.0162 86.7565 40.7242ZM89.2021 40.8702L89.2021 40.9432C88.8424 40.9432 88.5547 41.0162 88.1951 41.0892L88.1951 40.8702L89.2021 40.8702ZM109.342 54.9605C109.486 54.7415 109.63 54.5225 109.846 54.3035C109.918 54.7415 109.558 54.8145 109.486 55.0336C109.414 55.0336 109.342 54.9605 109.342 54.9605ZM97.33 34.8106L97.33 34.8836L95.7476 34.8836L95.7476 34.8106L97.33 34.8106ZM106.753 50.3611C106.825 50.5071 106.968 50.5801 106.897 50.7261C106.897 50.7991 106.753 50.7991 106.681 50.8722C106.609 50.8722 106.537 50.6531 106.537 50.6531C106.537 50.5801 106.681 50.5071 106.753 50.3611ZM103.228 51.0912C103.084 51.3832 102.869 51.3102 102.653 51.3102C102.869 51.0182 102.869 51.0182 103.228 51.0912ZM104.091 52.0403C104.163 52.1133 104.163 52.1863 104.163 52.1863L103.516 52.4053L103.516 52.2593L104.091 52.0403ZM91.1442 55.1066C90.9284 55.1066 90.6407 55.1796 90.5687 54.6685L91.1442 55.1066ZM88.6986 50.7261C88.6986 50.7261 88.7705 50.7261 88.8424 50.6531L89.0582 51.1642C88.9863 51.1642 88.9144 51.2372 88.9144 51.2372L88.6986 50.7261ZM99.9195 24.6626C99.9195 24.6626 99.9195 24.5896 99.9914 24.5896C100.135 24.5896 100.351 24.6626 100.567 24.7356C100.567 24.8086 100.495 24.8086 100.495 24.8816L99.9195 24.6626ZM92.295 52.1863C92.295 52.2593 92.2231 52.2593 92.2231 52.3323C92.0792 52.2593 91.9354 52.1863 91.7915 52.1863C91.7915 52.1133 91.8634 52.0403 91.8634 51.9673L92.295 52.1863ZM90.7126 23.2755C90.5687 23.4215 90.4968 23.5675 90.4249 23.7865C90.2091 23.4215 90.2091 23.4215 90.7126 23.2755ZM102.94 37.3658C102.725 37.3658 102.509 37.4389 102.293 37.4389C102.293 37.3658 102.293 37.3658 102.221 37.2928L102.94 37.2928L102.94 37.3658ZM82.2969 40.4321C82.5127 40.8702 82.5127 40.8702 82.2969 41.1622L82.2969 40.4321ZM110.637 41.3812C110.781 41.3812 110.996 41.3082 111.14 41.2352L111.14 41.4542L110.637 41.4542L110.637 41.3812ZM108.911 53.9384L108.839 54.0115L108.551 53.7194L108.695 53.5734L108.911 53.9384ZM108.982 23.7865C108.767 23.7135 108.695 23.5675 108.695 23.3485L108.982 23.7865ZM83.5917 31.3793L83.5197 31.3793L83.6636 30.8682C83.7355 30.9412 83.7355 30.9412 83.8074 30.9412L83.5917 31.3793ZM103.372 22.1804C103.084 22.3264 102.869 22.3994 102.869 22.1074C103.012 22.1074 103.156 22.1804 103.372 22.1804ZM102.653 22.0344C102.437 22.0344 102.293 21.9614 102.149 21.9614L102.149 21.8153L102.653 22.0344ZM101.358 33.9345L101.358 34.0075L100.711 34.0075L100.711 33.9345L101.358 33.9345ZM87.5477 26.1228L87.26 26.6338C87.26 26.4148 87.4039 26.2688 87.5477 26.1228ZM108.335 25.2467C108.479 25.3197 108.551 25.3927 108.551 25.5387C108.551 25.5387 108.551 25.6117 108.479 25.6117L108.335 25.2467Z">
	</path>
	<path style="fill: var(--color-primary)"
		d="M136.171 57.5158C136.171 57.2238 136.243 57.0047 136.243 56.7127C136.243 55.2526 136.315 53.7194 136.243 52.2593C136.028 49.047 135.812 45.7617 135.668 42.4763C135.596 41.8193 135.596 41.1622 135.596 40.4321C135.452 38.972 135.308 37.5119 135.236 36.0517C135.164 33.8615 135.236 31.6713 134.949 29.4811C134.877 29.3351 134.949 29.2621 134.949 29.1891C136.747 28.897 138.545 28.678 140.343 28.459C141.278 28.313 142.213 28.0939 143.149 27.8749C143.796 27.7289 143.796 27.5829 143.58 26.9988C143.508 26.7798 143.508 26.5608 143.508 26.3418C143.508 25.9037 143.58 25.4657 143.58 25.0277C143.58 24.7356 143.652 24.4436 143.94 24.2246C144.156 24.5896 144.012 25.1007 144.515 25.3197C144.515 25.1007 144.587 24.8816 144.587 24.7356L144.587 22.6184C144.587 22.3264 144.587 22.0344 144.875 21.8153C145.163 21.6693 145.091 21.3773 144.803 21.2313C144.731 21.1583 144.587 21.2313 144.443 21.2313L144.156 20.0632C144.299 19.9902 144.299 19.9902 144.371 19.9902C144.587 19.9172 144.803 19.8442 144.731 19.5521C144.659 19.4061 144.443 19.3331 144.299 19.2601C144.084 19.1871 143.868 19.2601 143.724 19.2601C143.436 19.0411 143.22 18.749 143.005 18.603C142.285 18.311 141.566 18.238 140.775 18.238C139.336 18.311 137.898 18.311 136.387 18.311C135.812 18.311 135.164 18.238 134.589 18.165C134.517 17.4349 134.445 16.7048 134.445 16.0478C134.301 14.0036 134.157 11.9594 134.373 9.9882C134.445 9.11211 134.517 8.23603 134.445 7.35994C134.445 6.84889 134.301 6.33784 134.805 5.97281C134.086 5.46176 133.366 5.24274 132.575 5.16973C132.503 5.09672 132.431 5.02372 132.431 4.95071C132.359 4.73169 132.287 4.43966 132 4.43966C131.712 4.43966 131.64 4.73169 131.496 4.95071C131.424 5.02372 131.28 5.02372 131.136 5.16973C131.065 4.8047 131.065 4.58567 131.065 4.43966C130.993 4.29365 130.849 4.07463 130.777 4.07463C130.489 4.00162 130.417 4.22064 130.417 4.43966C130.417 4.65868 130.345 4.95071 130.345 5.16973C130.129 5.24274 130.058 5.24274 129.914 5.24274L124.951 5.68078C124.663 5.75379 124.375 5.75379 124.303 6.11882C124.231 6.33784 124.303 6.62987 124.591 6.77589C125.023 6.99491 125.023 7.35994 125.023 7.79799C125.023 11.3753 124.951 14.9527 124.879 18.53C124.879 18.749 124.807 18.8951 124.807 19.1141C124.087 19.0411 123.44 18.8951 122.793 18.8951C121.858 18.8221 120.923 18.749 120.059 18.8221C119.124 18.8221 118.261 18.8951 117.326 19.0411C117.182 19.0411 117.038 19.1141 116.895 19.2601C116.823 19.4791 116.679 19.7711 116.679 19.9902C116.535 21.6693 116.463 23.3485 116.391 25.0277C116.391 25.3927 116.319 25.7577 116.031 26.0497C115.672 26.4148 115.744 26.7068 116.175 27.0718L116.463 27.4369C116.607 27.5829 116.679 27.8749 116.823 27.8749C116.967 27.9479 117.182 27.8019 117.326 27.7289C117.686 28.459 117.83 28.532 118.621 28.386L118.837 28.386C119.628 28.24 120.419 28.0209 121.282 28.167C121.714 28.313 122.145 28.313 122.577 28.386C122.937 28.386 123.224 28.459 123.368 28.0209C123.44 27.9479 123.656 27.8749 123.728 27.8749C124.087 27.8019 124.447 27.8749 124.879 27.8749C124.879 29.043 124.951 30.2112 125.023 31.3063C125.023 32.9854 125.094 34.5916 125.166 36.1977L125.454 39.337C125.454 41.9653 125.526 44.5935 125.526 47.2218C125.598 50.2881 125.526 53.3544 125.526 56.4207C125.526 56.9317 125.526 57.5158 125.238 57.9538C125.598 58.4649 126.03 58.4649 126.461 58.1729C126.677 58.6109 127.108 58.3919 127.324 58.5379C128.044 58.8299 128.835 58.9029 129.626 58.9029C130.273 58.9029 130.921 59.1219 131.568 59.195C132.503 59.268 133.366 59.341 134.301 59.341C134.661 59.341 135.021 59.195 135.308 59.1219C135.524 59.0489 135.74 58.8299 135.596 58.6109C135.524 58.4649 135.308 58.3189 135.164 58.2459C134.805 58.2459 134.445 58.3189 134.086 58.3189C133.942 58.3189 133.654 58.3919 133.51 58.1729C134.086 58.0268 134.589 57.8078 134.949 57.3698C135.093 57.1508 135.452 57.1508 135.668 57.0778C135.812 57.2968 135.884 57.4428 136.028 57.5158L136.171 57.5158ZM133.726 18.238C133.51 18.165 133.366 18.165 133.366 18.165C133.15 17.5809 132.719 17.1429 132.863 16.4858C132.935 16.1938 132.935 15.8288 132.935 15.4637C132.935 15.0987 132.935 14.7337 133.222 14.3686C133.438 14.1496 133.438 13.7116 133.366 13.3465C133.294 11.9594 133.15 10.6453 133.007 9.25813C133.007 9.11211 132.935 8.9661 132.935 8.89309C132.935 8.16302 132.935 8.16302 133.366 7.57896C132.935 7.28694 132.791 6.77589 133.15 6.26484L133.582 6.26484C133.87 7.50596 133.87 8.67407 133.726 9.84218C133.438 11.8864 133.438 13.9306 133.582 15.9748L133.726 18.238ZM117.758 20.0632C118.477 20.0632 119.124 19.7711 119.916 20.0632L118.981 20.2822L118.621 20.5742C118.765 20.6472 118.837 20.8662 118.981 20.8662L121.282 21.3043C122.145 21.4503 123.009 21.5233 123.944 21.5963C123.728 21.9614 123.44 21.8883 123.152 21.8883L119.412 21.6693C119.124 21.6693 118.909 21.5963 118.549 21.5963C117.974 21.5963 117.686 21.3043 117.686 20.7202C117.686 20.5012 117.686 20.2822 117.758 20.0632ZM132.719 29.043C133.079 29.1891 132.935 29.4811 132.935 29.7731L132.935 34.5916C132.935 36.4898 133.007 38.3149 133.079 40.1401C133.079 40.4321 133.079 40.7242 133.007 41.0162C132.575 37.6579 132.359 29.9921 132.719 29.043ZM118.405 26.9258C118.333 26.6338 118.261 26.4878 118.261 26.1958C120.059 26.3418 121.786 26.4878 123.44 26.5608C123.44 26.6338 123.44 26.7068 123.44 26.7068L118.405 26.9258ZM118.045 23.6405C118.621 23.7865 119.124 23.8595 119.772 23.9325C119.628 24.2976 119.556 24.6626 119.484 25.0277L118.189 25.1737C117.902 24.7356 117.902 24.2246 118.045 23.6405ZM140.991 27.1449C138.977 27.5099 136.891 27.8019 134.805 27.9479C134.805 27.8019 134.805 27.6559 134.733 27.5099C136.891 27.3639 138.905 27.2179 140.991 27.1449ZM131.065 48.0979C131.065 49.558 131.208 51.0182 130.849 52.4053C130.705 51.3832 130.633 50.3611 130.561 49.339C130.489 48.828 130.633 48.3899 131.065 48.0979ZM126.749 27.7289L126.749 33.0584L126.677 33.0584L126.461 30.5032L126.245 27.7289L126.749 27.7289ZM134.517 38.607L134.589 38.607L135.021 46.3457L134.805 46.3457L134.517 38.607ZM127.468 42.2573C127.468 42.6954 127.54 43.2064 127.54 43.6445C127.468 44.1555 127.252 44.6665 127.108 45.2506C126.821 45.0316 126.893 44.8126 126.893 44.5935C126.965 44.2285 127.108 43.8635 127.108 43.4984L127.108 40.2861L127.252 40.2861L127.468 42.2573ZM133.15 47.8059C133.51 48.3169 133.726 52.5513 133.51 53.5734L133.15 47.8059ZM129.626 9.84218C129.122 9.40414 128.979 8.82008 128.763 8.16302L129.698 8.16302L129.842 9.69617L129.626 9.84218ZM136.531 26.6338C138.042 26.6338 139.48 26.4148 140.847 26.1228C141.063 26.1228 141.278 26.1228 141.638 26.1958C140.991 26.5608 138.257 26.7798 136.531 26.6338ZM127.18 21.9614C127.037 21.5963 127.037 21.3043 126.893 20.9393L127.9 20.7202L127.9 22.1804L127.18 21.9614ZM129.554 7.57896C129.266 7.57896 128.979 7.57896 128.619 7.50596L128.475 6.55687C128.907 6.62987 129.194 6.62987 129.554 6.62987L129.554 7.57896ZM142.717 20.2092C142.717 20.6472 142.717 21.0123 142.789 21.5233L142.213 21.7423C142.142 21.2313 142.07 20.7202 141.926 20.2092L142.717 20.2092ZM139.912 23.5675C139.049 23.9325 138.257 23.7865 137.394 23.7135C137.898 23.2755 138.761 23.2025 139.912 23.5675ZM131.065 44.8126C131.136 44.9586 131.208 45.1776 131.208 45.3966C131.208 45.9077 131.208 46.4187 131.136 47.0028C131.136 47.2218 130.993 47.4408 130.633 47.3678C130.777 46.4917 130.921 45.6156 130.993 44.8126L131.065 44.8126ZM120.779 22.5454C120.203 22.9835 119.268 22.9104 118.261 22.3264C119.196 22.3994 119.916 22.3994 120.779 22.5454ZM128.835 57.2968C128.907 56.7127 129.051 56.2747 129.122 55.8366C129.194 55.8366 129.266 55.8366 129.266 55.8366L129.626 57.2238C129.41 57.2238 129.122 57.2238 128.835 57.2968ZM120.347 24.8086C120.419 24.5896 120.491 24.2976 120.635 24.0786C120.995 24.0786 121.354 24.0786 121.714 24.1516C121.21 24.3706 120.707 24.4436 120.491 25.0277C120.419 24.9546 120.347 24.8816 120.347 24.8086ZM126.317 16.4128C126.749 16.9969 126.677 17.5809 126.317 18.238L126.317 16.4128ZM133.582 22.9835C133.798 23.2755 133.654 23.7135 133.726 24.0786C133.726 24.0786 133.582 24.2246 133.51 24.1516C133.438 24.1516 133.294 24.0786 133.294 24.0056C133.294 23.6405 133.366 23.2755 133.366 22.9835L133.582 22.9835ZM142.789 23.5675C142.861 24.0056 142.861 24.2976 142.501 24.5896L141.998 23.9325C142.285 23.8595 142.501 23.7135 142.789 23.5675ZM128.187 13.5655C127.828 12.9815 127.612 12.2514 127.9 11.5213C127.972 12.1784 128.044 12.9085 128.187 13.5655ZM130.489 40.9432C130.561 40.9432 130.561 40.9432 130.561 40.9432L130.561 43.4984C130.561 43.4984 130.561 43.4984 130.489 43.4984L130.489 40.9432ZM128.403 53.7924C128.691 54.1575 128.619 54.5225 128.187 55.2526L128.403 53.7924ZM124.663 25.1007C124.231 25.2467 123.8 25.3197 123.296 25.3197C123.296 25.2467 123.296 25.1737 123.296 25.1737L124.663 24.8816L124.663 25.1007ZM126.605 13.4925C126.677 13.9306 126.677 14.3686 126.677 14.8067C126.389 14.3686 126.461 13.9306 126.461 13.4925C126.533 13.4925 126.605 13.4925 126.605 13.4925ZM127.684 47.2218C127.324 46.8568 127.54 46.4917 127.684 46.0537L127.684 47.2218ZM126.389 26.1228C126.605 26.3418 126.821 26.4148 126.821 26.5608C126.893 26.7798 126.749 26.8528 126.533 26.7798C126.245 26.7798 126.317 26.5608 126.389 26.1228ZM133.222 21.3043C133.366 21.6693 133.582 21.9614 133.438 22.3994C133.079 22.0344 133.222 21.6693 133.222 21.3043ZM130.201 54.6685C130.417 54.7415 130.489 54.8145 130.489 54.8145L130.489 55.6176C130.417 55.6176 130.345 55.6176 130.345 55.6176C130.273 55.3256 130.201 55.0336 130.201 54.6685ZM130.417 7.72498C130.058 7.50596 130.129 7.28694 130.058 6.99491C130.561 7.06791 130.561 7.06791 130.417 7.72498ZM134.157 30.6492L134.157 32.1093L134.157 30.6492ZM136.819 24.5166C137.178 24.0056 137.538 24.3706 137.826 24.2246L137.826 24.5166L136.819 24.5166ZM140.415 24.4436C140.415 24.4436 140.415 24.4436 140.415 24.5166C140.128 24.5166 139.912 24.5896 139.624 24.6626L139.624 24.4436L140.415 24.4436ZM130.345 8.16302C130.777 8.45505 130.705 8.74708 130.777 9.11211C130.561 9.03911 130.417 8.9661 130.417 8.89309C130.345 8.74708 130.345 8.52806 130.345 8.16302ZM143.796 23.3485C143.508 22.9835 143.58 22.6914 143.724 22.2534C143.94 22.6184 143.94 22.9835 143.796 23.3485ZM134.445 36.6358L134.445 37.7309L134.445 36.6358ZM132.791 27.2909C133.079 27.5829 133.15 27.8749 132.647 27.9479L132.791 27.2909ZM126.389 23.2755C126.461 23.2025 126.533 23.0565 126.605 23.0565C126.821 23.0565 126.893 23.2025 126.821 23.5675L126.389 23.2755ZM135.452 19.4061C135.236 19.4061 134.949 19.3331 134.733 19.3331C135.093 19.0411 135.093 19.0411 135.452 19.4061ZM131.208 15.2447L131.136 15.2447L131.136 14.2956C131.136 14.2956 131.136 14.2956 131.208 14.2956L131.208 15.2447ZM130.201 37.5849C130.201 37.8769 130.417 38.1689 130.058 38.534C130.058 38.1689 130.058 37.8769 129.986 37.5849L130.201 37.5849ZM135.812 23.4215C135.884 22.8374 136.243 23.2025 136.459 23.1295C136.315 23.4945 136.315 23.4945 135.812 23.4215ZM126.101 8.74708C126.101 9.03911 126.03 9.25813 126.03 9.47715L125.886 9.47715C125.958 9.25813 125.958 9.03911 125.958 8.74708C126.03 8.74708 126.101 8.74708 126.101 8.74708ZM126.533 39.6291C126.461 39.337 126.461 39.045 126.461 38.753L126.533 38.753L126.533 39.6291ZM129.482 42.9874L129.554 42.9874L129.698 43.9365L129.482 43.9365L129.482 42.9874ZM121.21 20.7202C120.923 20.7202 120.707 20.7202 120.347 20.6472C120.923 20.4282 120.923 20.4282 121.21 20.7202ZM133.222 25.1007C133.222 24.6626 133.366 24.5896 133.726 24.8816L133.222 25.1007ZM127.828 15.2447C127.756 15.0987 127.756 14.8797 127.756 14.6606L127.828 14.6606L127.828 15.3177C127.828 15.3177 127.828 15.3177 127.828 15.2447ZM131.568 33.8615C131.568 33.6425 131.496 33.4235 131.496 33.2044L131.568 33.2044L131.568 33.8615ZM127.972 17.0699C127.9 16.7048 127.756 16.4858 128.187 16.3398L127.972 17.0699ZM129.122 15.3177L129.122 15.6827C129.122 15.6827 129.122 15.6827 129.122 15.7558L129.122 15.3177ZM127.037 54.8875L126.893 54.6685C126.893 54.5955 126.965 54.5225 127.037 54.5225C127.108 54.5225 127.18 54.5955 127.324 54.6685L127.037 54.8875ZM117.038 26.2688C117.038 26.1228 117.038 25.9767 116.967 25.7577C117.038 25.7577 117.038 25.7577 117.038 25.7577C117.11 25.9037 117.11 26.0497 117.11 26.1958C117.11 26.1958 117.11 26.2688 117.038 26.2688ZM126.605 22.1074C126.605 22.1804 126.677 22.3264 126.749 22.4724C126.677 22.4724 126.605 22.4724 126.605 22.5454L126.389 22.1804C126.461 22.1074 126.533 22.1074 126.605 22.1074ZM124.231 23.2025C124.231 23.1295 124.231 23.1295 124.231 23.1295C124.375 23.0565 124.591 23.0565 124.735 23.0565L124.735 23.2025L124.231 23.2025ZM127.324 6.99491C127.324 6.55687 127.54 6.62987 127.828 6.62987L127.324 6.99491ZM127.972 8.67407L127.972 8.74708C127.9 8.67407 127.9 8.52806 127.9 8.45505C127.9 8.38204 127.9 8.30903 127.972 8.23603L127.972 8.67407Z">
	</path>
	<path style="fill: var(--color-primary)"
		d="M149.406 56.7127C150.198 57.2968 150.845 57.9538 151.636 58.4649C152.787 59.268 154.01 59.852 155.376 60.2901C156.455 60.7281 157.534 60.9471 158.613 61.3852C159.62 61.7502 160.627 62.0422 161.706 62.1152C162.785 62.1882 163.936 62.4073 165.087 62.4073C165.95 62.4803 166.813 62.4073 167.604 62.3343C169.474 62.1882 171.273 61.6772 172.999 60.8741C174.222 60.3631 175.301 59.487 176.308 58.6109C177.171 57.8078 177.962 57.0047 178.537 55.9826C179.257 54.5955 179.832 53.2084 179.904 51.6022C179.904 50.6531 180.12 49.631 179.904 48.7549C179.616 47.4408 179.041 46.1997 178.537 44.9586C178.322 44.4475 177.962 43.9365 177.602 43.4254C176.739 42.1843 175.804 41.0162 174.509 40.2131C173.431 39.5561 172.352 39.045 171.129 38.68C169.69 38.2419 168.252 37.6579 166.813 37.1468C165.806 36.8548 164.727 36.5628 163.792 36.1247C162.569 35.6137 161.347 35.0296 160.124 34.4456C159.98 34.3726 159.836 34.2265 159.692 34.0805C159.117 33.4965 158.901 32.1823 159.261 31.3793C159.476 30.7952 159.692 30.2842 159.836 29.7001C159.98 29.1891 160.196 28.824 160.555 28.532C161.059 28.0939 161.562 27.8019 162.138 27.5099C163.361 27.0718 164.583 27.1449 165.734 27.0718C167.173 26.9988 168.467 27.2909 169.618 28.0209L171.848 29.3351C172.208 29.5541 172.639 29.7731 173.143 29.7731C173.431 29.7731 173.646 29.7001 173.718 29.4081C173.934 28.824 174.222 28.532 174.869 28.459C175.373 28.459 175.804 28.0209 175.732 27.6559C175.588 27.1449 175.876 26.7798 176.02 26.3418C176.38 25.1737 176.811 24.0786 177.099 22.9104C177.315 22.2534 177.315 21.5963 177.602 20.9393C177.746 20.5742 177.602 20.3552 177.315 20.1362C176.739 19.5521 176.092 19.1871 175.301 19.1141C173.79 19.0411 172.352 18.457 170.841 18.165C170.769 18.165 170.625 18.092 170.553 18.019C170.194 17.946 169.906 17.7269 169.546 17.6539C168.971 17.5079 168.324 17.4349 167.676 17.3619C165.518 16.8509 163.361 16.9969 161.203 17.4349C158.901 17.873 156.671 18.8951 154.801 20.5012C154.01 21.0853 153.29 21.8153 152.643 22.5454C152.212 22.9104 151.924 23.4215 151.492 23.9325C149.982 26.1228 148.903 28.459 148.759 31.1602C148.759 31.8173 148.687 32.5474 148.759 33.2044C148.903 34.8106 149.262 36.2707 150.198 37.5849C151.133 38.753 152.212 39.7751 153.362 40.7972C154.729 41.9653 156.24 42.9144 157.822 43.7175L159.117 44.0825C160.987 44.8856 162.929 45.6156 165.015 45.9807C165.878 46.1267 166.813 46.3457 167.604 46.8568C168.467 47.5138 168.611 47.9519 168.324 48.974C168.252 49.193 168.108 49.412 167.964 49.558C167.676 49.9231 167.317 50.2881 166.885 50.5801C166.669 50.7991 166.31 50.9452 166.022 51.0182C165.59 51.1642 165.231 51.1642 164.799 51.2372C164.008 51.4562 163.217 51.3832 162.354 51.2372C161.131 50.9452 159.836 50.7261 158.469 50.5801C157.39 50.3611 156.312 49.9961 155.448 49.266L154.082 48.1709C153.578 47.6598 153.219 47.7328 152.859 48.3899C152.643 48.828 152.355 49.193 152.068 49.704C151.492 48.974 151.277 49.704 150.845 49.9961C150.989 49.339 151.492 48.974 151.492 48.3169C150.701 48.901 147.968 53.2084 147.68 54.1575L148.184 54.8875C148.759 54.7415 148.903 54.1575 149.406 53.7924C149.334 54.0845 149.334 54.2305 149.334 54.3765L148.471 55.9096C148.255 56.3477 148.471 56.7857 149.047 56.7857C149.191 56.7857 149.334 56.7127 149.406 56.7127ZM169.618 47.0028C169.259 46.5647 168.827 46.1267 168.324 45.6886C169.187 45.7617 169.403 46.4187 169.618 47.0028C169.834 47.2948 169.834 47.2948 169.762 47.7328C169.762 47.4408 169.69 47.2218 169.618 47.0028ZM176.523 51.8942C176.523 52.4783 176.38 52.9163 176.164 53.3544C176.092 52.8433 176.308 52.4053 176.523 51.9673L176.811 49.412C177.099 50.3611 176.955 51.1642 176.523 51.8942ZM158.11 33.6425L158.038 33.6425C157.534 32.5474 157.175 31.3793 157.462 30.0651C157.534 30.1381 157.534 30.2112 157.534 30.2842L157.534 30.5762C157.606 31.0142 157.606 31.5983 157.966 31.9633C158.038 32.0363 158.11 32.2554 158.11 32.4014L158.11 33.7155C158.326 34.0075 158.469 34.2995 158.613 34.6646C158.254 34.4456 158.11 34.0805 158.11 33.6425ZM152.212 57.2238C152.355 57.2238 152.355 57.2238 152.427 57.2968L153.866 58.2459C154.369 58.6109 154.369 58.6109 154.873 58.3189C157.894 60.144 161.347 60.8011 164.799 61.1661C164.799 61.1661 164.799 61.2392 164.799 61.3122L162.21 61.0201L160.627 60.8011L159.045 60.3631C158.541 60.2171 158.038 59.998 157.462 59.852C156.383 59.706 155.376 59.195 154.369 58.8299L152.715 58.0998L151.996 57.6618L152.212 57.2238ZM160.483 27.4369C160.411 26.5608 160.411 26.5608 161.059 26.3418C161.994 25.9767 163.001 25.8307 164.08 25.6847C164.655 25.6117 165.159 25.6847 165.878 25.9767C163.864 26.1228 162.066 26.2688 160.483 27.4369ZM158.254 52.0403C159.333 52.0403 160.411 52.1863 161.418 52.6243C161.49 53.1354 161.85 53.3544 162.354 53.3544C162.641 53.3544 162.929 53.3544 163.289 53.4274C163.432 53.4274 163.504 53.5004 163.648 53.5734C161.706 53.5734 159.98 52.9163 158.254 52.0403ZM157.678 25.9767L157.031 26.9988C156.671 27.4369 156.383 27.9479 156.312 28.532C156.312 28.97 155.88 29.3351 155.592 29.7731C155.448 28.459 156.383 26.5608 157.894 25.1737L157.678 25.9767ZM166.885 41.1622C166.957 41.0892 166.957 41.0892 166.957 41.0162L167.173 41.0162C168.611 41.4542 170.05 41.8193 171.417 42.5493C171.632 42.6224 171.704 42.8414 171.848 42.9874C171.776 42.9874 171.704 43.0604 171.704 43.1334L166.885 41.1622ZM175.804 51.1642C175.445 50.7261 175.445 50.3611 175.373 49.9231C175.373 49.266 175.373 48.5359 175.301 47.8789C175.948 48.1709 176.164 48.6819 176.092 49.412C176.092 49.9231 176.164 50.5071 175.804 51.1642ZM159.548 27.3639C159.548 28.532 158.901 29.3351 158.326 30.2842C158.11 28.97 158.397 28.0209 159.548 27.3639ZM160.987 24.0786C161.49 22.5454 162.138 22.1074 163.504 22.4724L160.987 24.0786ZM154.154 27.5099C154.154 27.7289 154.154 27.8749 154.226 27.9479C154.657 28.532 154.369 29.116 154.082 29.7001C154.082 29.8461 154.01 30.0651 153.938 30.2112C153.219 29.6271 153.219 29.5541 153.578 28.751L153.866 28.167L154.154 27.5099ZM178.681 52.2593C178.537 53.7924 177.746 55.0336 176.883 56.2747C177.171 55.3256 177.387 54.4495 177.962 53.6464C178.25 53.2814 178.466 52.7703 178.681 52.2593ZM157.822 39.5561C157.678 39.8481 157.606 40.0671 157.534 40.3591C157.031 40.2861 156.815 40.0671 156.671 39.5561C156.599 39.264 156.455 38.972 156.383 38.607C156.312 38.534 156.383 38.3879 156.455 38.1689C156.887 38.607 157.318 39.118 157.822 39.5561ZM163.073 18.8221C164.152 17.8 165.375 18.092 166.525 18.092C166.597 18.092 166.669 18.165 166.741 18.165C166.741 18.238 166.813 18.311 166.813 18.311C165.59 18.457 164.368 18.603 163.073 18.8221ZM161.203 43.2064C161.131 43.2794 161.131 43.2794 161.131 43.3524C159.548 42.6954 157.822 42.3303 156.455 41.2352L161.203 43.2064ZM156.024 22.8374C155.736 23.4215 155.52 24.0056 155.952 24.5896C155.52 24.9546 155.233 25.1737 154.873 25.5387C154.801 24.8086 155.448 23.2025 156.024 22.8374ZM152.499 24.5166C151.78 25.8307 151.133 27.2179 150.485 28.532C150.773 26.9988 151.42 25.6847 152.499 24.5166ZM160.268 39.7021C159.62 39.6291 159.261 39.337 158.973 38.899C158.469 38.2419 158.038 37.5119 157.678 36.7818C158.469 37.7309 159.333 38.607 160.268 39.7021ZM169.546 39.337C170.194 39.5561 170.841 39.8481 171.56 40.0671C171.345 40.4321 171.273 40.6512 171.057 40.9432C170.41 40.5782 169.978 39.9941 169.474 39.483C169.546 39.483 169.546 39.41 169.546 39.337ZM173.071 49.412C172.783 48.6819 172.28 48.0249 172.567 47.1488C173.287 47.7328 173.718 48.828 173.071 49.412ZM163.289 43.0604C164.439 42.8414 165.303 43.4254 166.238 44.0095C165.159 43.9365 164.224 43.4984 163.289 43.0604ZM166.885 54.6685C165.662 54.7415 164.368 55.3256 163.073 54.6685L166.885 54.6685ZM150.27 55.6906C150.701 55.9096 151.061 56.2017 151.42 56.4207C151.708 56.7127 151.708 56.7127 151.42 57.2238C150.773 57.0047 150.485 56.4207 150.198 55.8366C150.198 55.7636 150.27 55.7636 150.27 55.6906ZM167.604 58.9759C166.166 59.341 164.727 59.487 163.432 58.6109L165.59 59.0489C165.95 59.1219 166.31 59.195 166.669 58.9029C166.885 58.8299 167.245 58.9759 167.604 58.9759ZM163.792 20.7932C163.217 21.5233 162.282 21.1583 161.562 21.5963C161.922 20.8662 162.857 20.5742 163.792 20.7932ZM155.233 56.2747C154.298 56.2017 153.794 55.8366 153.29 54.8875C154.082 55.1796 154.513 55.7636 155.233 56.2747ZM157.247 55.9096C156.599 55.8366 155.952 55.4716 155.52 54.9605C156.527 54.6685 156.671 55.6176 157.247 55.9096ZM153.794 25.2467C153.506 26.0497 153.578 26.9258 152.787 27.5829C152.859 26.9258 153.362 25.6117 153.794 25.2467ZM168.827 22.1804C168.539 22.5454 168.18 22.5454 167.245 22.3264C167.532 21.8153 167.964 21.8153 168.827 22.1804ZM176.164 21.5963C175.516 21.4503 175.516 21.4503 175.588 20.5012L176.452 20.8662C176.38 21.0853 176.236 21.3043 176.164 21.5963ZM167.46 42.2573C168.108 42.5493 168.683 42.8414 169.331 43.0604C169.331 43.1334 169.331 43.1334 169.259 43.2064C168.827 43.1334 168.324 43.0604 167.82 42.9144C167.676 42.9144 167.532 42.6224 167.317 42.4033L167.46 42.2573ZM164.727 57.9538C164.08 57.8808 163.432 57.9538 162.857 57.3698C163.72 57.0778 164.152 57.7348 164.727 57.9538ZM168.683 51.2372C169.043 50.7261 169.331 50.2881 169.762 49.777C169.762 50.2151 169.834 50.5071 169.834 50.9452L168.683 51.2372ZM165.806 57.7348C165.446 57.5888 165.159 57.4428 164.727 57.1508C165.303 57.0047 165.734 57.0047 166.238 57.2238L165.806 57.7348ZM157.75 38.0959C156.959 37.6579 156.599 37.1468 156.671 36.4898L157.75 38.0959ZM168.971 58.1729L168.971 58.9029C168.611 58.7569 168.252 58.6839 167.892 58.6109L167.892 58.4649L168.971 58.1729ZM149.406 52.4053C149.694 52.8433 149.55 53.0624 148.615 53.9384C148.759 53.3544 149.047 52.9163 149.406 52.4053ZM158.326 24.5166C158.541 23.9325 158.901 23.7135 159.476 23.4945C159.189 24.0056 158.973 24.4436 158.326 24.5166ZM165.015 24.2976C165.518 23.9325 166.022 24.0056 166.669 23.9325C166.31 24.2246 165.734 24.4436 165.015 24.2976ZM169.403 44.4475C170.194 44.3745 170.338 44.4475 170.122 45.1776L169.403 44.4475ZM166.453 22.8374C166.597 23.0565 166.669 23.2025 166.885 23.4215C166.453 23.4945 166.094 23.4945 165.806 23.4945C165.806 23.4945 165.806 23.4215 165.734 23.4215L166.453 22.8374ZM167.029 57.7348C167.389 57.2968 167.82 57.3698 168.467 57.4428C167.964 57.7348 167.532 57.8078 167.029 57.7348ZM170.41 56.1287C169.906 56.4937 169.259 56.2747 168.683 56.4207C169.043 56.1287 169.259 56.1287 170.41 56.1287ZM168.18 24.9546C167.82 25.0277 167.46 25.1007 167.173 25.1007C167.46 24.7356 167.748 24.5896 168.108 24.7356C168.108 24.8086 168.18 24.8816 168.18 24.9546ZM178.969 50.9452L178.825 50.9452L178.825 48.828L178.969 48.828L178.969 50.9452ZM168.18 60.8741C167.82 61.2392 167.389 61.0931 167.029 61.0201L168.18 60.8741ZM167.389 52.9894C167.82 52.9163 168.18 52.7703 168.755 52.6973C168.324 53.1354 167.82 53.0624 167.389 52.9894ZM169.978 24.8086C169.259 24.8086 169.115 24.7356 168.971 24.2246L169.978 24.8086ZM169.115 23.4945C169.331 22.9835 169.331 22.9835 169.906 23.2025C169.69 23.5675 169.403 23.4945 169.115 23.4945ZM175.66 24.9546L175.804 24.9546L175.373 26.3418C175.373 26.3418 175.301 26.2688 175.229 26.2688L175.66 24.9546ZM152.427 33.2044C152.427 32.8394 152.355 32.4014 152.355 32.0363L152.499 32.0363C152.571 32.4014 152.643 32.7664 152.643 33.2044L152.427 33.2044ZM168.18 19.1871C167.892 19.0411 167.532 19.4061 167.245 18.8221C167.676 18.8951 167.892 18.9681 168.18 18.9681L168.18 19.1871ZM149.838 51.5292C150.126 51.3832 150.27 51.3102 150.413 51.3102C150.413 51.4562 150.557 51.6022 150.485 51.7482C150.27 51.9673 150.126 51.7482 149.838 51.5292ZM173.718 41.7463C173.431 41.5272 173.143 41.3082 172.855 41.0162L172.927 40.9432L173.862 41.6003C173.79 41.6733 173.79 41.7463 173.718 41.7463ZM160.699 36.1977C160.411 36.0517 160.124 35.8327 159.764 35.6867C159.836 35.6137 159.836 35.6137 159.836 35.5407C160.052 35.6137 160.196 35.6867 160.34 35.8327L160.771 36.0517C160.771 36.1247 160.771 36.1247 160.699 36.1977ZM151.492 53.5004C151.708 53.7194 151.996 53.8654 152.283 54.0845C151.78 54.1575 151.78 54.1575 151.492 53.5004ZM176.38 45.7617C176.811 45.9077 176.811 46.2727 176.883 46.5647C176.667 46.3457 176.523 46.0537 176.38 45.7617ZM166.525 38.899C166.094 38.899 166.094 38.899 165.662 38.4609L166.525 38.899ZM151.924 55.7636C151.636 55.7636 151.564 55.4716 151.348 55.3256C151.708 55.3256 151.78 55.3256 151.924 55.7636ZM158.11 40.0671C158.326 39.9941 158.469 40.1401 158.469 40.3591C158.541 40.4321 158.397 40.5051 158.326 40.5782C158.182 40.4321 158.11 40.2861 157.966 40.2131C157.966 40.1401 158.038 40.0671 158.11 40.0671ZM153.219 30.6492C153.506 30.9412 153.578 31.1602 153.29 31.5983C153.219 31.2333 153.219 31.0142 153.219 30.6492ZM171.201 53.5734C171.273 54.0115 171.273 54.0115 170.841 54.2305L171.201 53.5734ZM153.075 52.5513C153.506 52.7703 153.506 52.9163 153.147 53.1354C153.075 52.9894 153.075 52.7703 153.075 52.5513ZM154.513 39.9211C154.729 40.1401 154.945 40.2861 155.161 40.4321C155.089 40.5051 155.089 40.5051 155.089 40.5051C154.873 40.3591 154.657 40.2861 154.441 40.0671C154.441 40.0671 154.513 39.9941 154.513 39.9211ZM156.455 33.3505L156.455 32.6934C156.455 32.6204 156.455 32.6204 156.455 32.6204L156.455 33.3505ZM170.553 57.7348C170.769 57.2968 170.913 57.1508 171.273 57.4428L170.553 57.7348ZM174.006 25.0277L173.862 25.1737C173.646 25.1007 173.574 24.9546 173.79 24.6626L174.006 25.0277ZM153.362 51.3102C153.434 51.3102 153.434 51.2372 153.434 51.2372C153.65 51.3102 153.866 51.4562 154.082 51.6022L153.938 51.7482L153.362 51.3102ZM169.474 20.8662L169.403 20.9393C169.259 20.9393 169.043 20.8662 168.899 20.7932L169.474 20.7932C169.474 20.7932 169.474 20.7932 169.474 20.8662ZM170.05 24.0786C170.194 24.1516 170.266 24.2246 170.41 24.2246C170.41 24.2976 170.41 24.4436 170.338 24.4436L169.978 24.2976C169.978 24.2246 169.978 24.2246 170.05 24.0786ZM168.036 23.0565C168.18 23.0565 168.324 23.0565 168.467 23.1295C168.252 23.2755 168.252 23.2755 168.036 23.0565ZM176.02 24.2976C176.02 24.2976 176.02 24.2976 175.948 24.2976C176.02 24.1516 176.092 24.0786 176.092 23.9325C176.164 23.9325 176.164 24.0056 176.236 24.0056L176.02 24.2976ZM163.576 24.9546C163.576 24.8816 163.576 24.8816 163.504 24.8816C163.576 24.8086 163.648 24.7356 163.72 24.7356C163.792 24.7356 163.864 24.7356 163.936 24.6626C164.008 24.7356 164.008 24.7356 164.008 24.7356L163.576 24.9546ZM163.864 21.8153C163.936 21.8153 164.08 21.7423 164.296 21.7423C164.296 21.8153 164.296 21.8153 164.296 21.8153L163.864 21.8153ZM150.198 32.4014L150.341 32.4014L150.341 32.9854L150.198 32.9854L150.198 32.4014Z">
	</path>
</svg>
	