<svg xmlns="http://www.w3.org/2000/svg" xmlns:xlink="http://www.w3.org/1999/xlink" width="400"
    height="300" viewBox="0 0 400 300" fill="none">
    <ellipse cx="200.989990234375" cy="202.5207316165338" rx="87.5" ry="14.840799975908794"
        style="fill: var(--color-svg-muted)">
    </ellipse>
    <path
        d="M336.03 136.922C327.775 137.822 330.178 129.367 320.477 129.63C310.776 129.893 308.754 136.529 307.099 152.265C305.445 168.001 302.05 173.301 295.239 180.717C288.428 188.133 275.997 189.434 275.997 189.434L275.86 180.979C293.408 174.514 294.34 155.52 294.34 155.52C295.273 136.526 297.612 124.398 310.702 117.996C323.792 111.594 338.092 117.306 340.548 124.316C340.548 124.316 344.284 136.022 336.03 136.922Z"
        style="fill: var(--color-primary); filter: brightness(115%);">
    </path>
    <path style="stroke: var(--color-primary);" stroke-width="3"
        d="M273.914 187.406C273.914 187.406 286.424 185.129 293.235 177.714C300.046 170.298 303.441 164.998 305.095 149.262C306.75 133.526 308.772 126.89 318.473 126.627C328.174 126.364 325.772 134.819 334.026 133.919C342.28 133.019 338.544 121.312 338.544 121.312C336.088 114.303 321.788 108.59 308.698 114.993C295.608 121.395 293.269 133.523 292.336 152.517C292.336 152.517 291.404 171.511 273.311 178.796">
    </path>
    <circle cx="336.3307902102838" cy="145.5207316165338" r="3.8407999759087943"
        style="stroke: var(--color-primary);" stroke-width="1">
    </circle>
    <rect x="330.239013671875" y="151.677490234375" width="1" height="5.4355586178445545"
        transform="rotate(16.011820143632555 330.239013671875 151.677490234375)" rx="0.5"
        style="fill: var(--color-primary);">
    </rect>
    <rect x="335.7054443359375" y="154.7572021484375" width="1" height="11.179035197302206"
        transform="rotate(40.194530413554446 335.7054443359375 154.7572021484375)" rx="0.5"
        style="fill: var(--color-primary);">
    </rect>
    <path
        d="M159.008 133.701C159.008 133.701 154.266 128.925 153.008 129.421C151.751 129.916 152.16 137.306 152.16 137.306L155.304 135.238L159.008 133.701Z"
        style="fill: var(--color-svg-accent)">
    </path>
    <path
        d="M197.982 142.184C197.982 142.184 200.156 134.769 199.421 134.014C198.685 133.259 191.801 136.429 191.801 136.429C191.801 136.429 194.204 138.135 195.318 139.085C196.432 140.034 197.982 142.184 197.982 142.184Z"
        style="fill: var(--color-svg-accent)">
    </path>
    <path style="stroke: var(--color-svg-border)" stroke-width="2" stroke-linejoin="round"
        stroke-linecap="round"
        d="M165.806 131.767C165.806 131.767 154.299 120.431 150.203 121.259C146.106 122.086 146.822 142.834 146.822 142.834">
    </path>
    <path style="stroke: var(--color-svg-border)" stroke-width="2" stroke-linejoin="round"
        stroke-linecap="round"
        d="M202.075 147.017C202.075 147.017 208.268 128.754 205.96 127.135C203.652 125.515 183.206 133.27 183.206 133.27">
    </path>
    <path style="stroke: var(--color-svg-border)" stroke-width="2" stroke-linecap="round"
        d="M205.985 162.18C205.985 145.888 190.71 131.68 172.485 131.68C163.703 131.68 155.723 134.746 149.81 139.747">
    </path>
    <ellipse cx="155.26697924497182" cy="156.30941479533064"
        transform="rotate(10.868197288045442 152.857421875 152.6807861328125)"
        rx="2.409557369971815" ry="3.628628662518142" style="fill: var(--color-svg-border)">
    </ellipse>
    <path style="stroke: var(--color-svg-border)" stroke-width="1" stroke-linecap="round"
        d="M152.757 157.899C152.408 155.193 154.272 152.847 156.182 153.347C158.091 153.847 158.907 156.024 158.183 158.792">
    </path>
    <ellipse cx="177.26697924497182" cy="160.30941479533064"
        transform="rotate(10.868197288045442 174.857421875 156.6807861328125)"
        rx="2.409557369971815" ry="3.628628662518142" style="fill: var(--color-svg-border)">
    </ellipse>
    <path style="stroke: var(--color-svg-border)" stroke-width="1" stroke-linecap="round"
        d="M174.757 161.899C174.408 159.193 176.272 156.847 178.182 157.347C180.091 157.847 180.907 160.024 180.183 162.792">
    </path>
    <path
        d="M163.771 166.269C165.466 166.413 166.89 165.807 167.057 164.814C167.24 163.724 165.843 162.582 163.937 162.261C162.031 161.941 160.337 162.565 160.154 163.654C159.987 164.648 161.135 165.686 162.785 166.103L162.533 167.603C162.487 167.875 162.671 168.133 162.943 168.179C163.215 168.224 163.473 168.041 163.519 167.768L163.771 166.269Z"
        fill-rule="evenodd" style="fill: var(--color-svg-border)">
    </path>
    <rect x="183.52978515625" y="170.958984375" width="2" height="7"
        transform="rotate(-41.26949716311736 183.52978515625 170.958984375)" rx="1"
        style="fill: var(--color-primary);">
    </rect>
    <rect x="187.47512817382812" y="170.0465087890625" width="2" height="7"
        transform="rotate(-42.894116839013215 187.47512817382812 170.0465087890625)" rx="1"
        style="fill: var(--color-primary);">
    </rect>
    <rect x="177.48529052734375" y="172.2506103515625" width="2" height="5"
        transform="rotate(-29.61150972835022 177.48529052734375 172.2506103515625)" rx="1"
        style="fill: var(--color-primary);">
    </rect>
    <rect x="97.25738525390625" y="135.31494140625" width="70.17475483216738"
        height="7.565600597609505"
        transform="rotate(66.54915432223379 97.25738525390625 135.31494140625)"
        rx="3.7828002988047524" style="fill: var(--color-primary); filter: brightness(115%);">
    </rect>
    <path style="fill: var(--color-primary);"
        d="M97.6183 137.56L122.534 194.998C123.696 197.675 122.467 200.786 119.79 201.947C117.114 203.108 114.003 201.88 112.842 199.203L87.9254 141.765C86.7643 139.089 87.9929 135.977 90.6695 134.816Q91.6546 134.389 92.7219 134.379Q93.7515 134.37 94.7122 134.749Q95.673 135.129 96.4184 135.839Q97.191 136.575 97.6183 137.56ZM94.8661 138.754Q94.4898 137.887 93.6104 137.54Q92.7309 137.192 91.8634 137.569C90.7068 138.07 90.1759 139.415 90.6776 140.571L115.594 198.009C116.095 199.166 117.44 199.697 118.596 199.195C119.753 198.693 120.284 197.349 119.782 196.192L94.8661 138.754Z">
    </path>
    <path
        d="M91.0613 178.091L91.5866 150.594C91.6265 148.505 89.9656 146.779 87.8768 146.739C85.7881 146.699 84.0624 148.36 84.0225 150.449L83.3799 184.09C83.3549 185.395 83.9944 186.559 84.9875 187.258C86.1148 188.137 87.6944 188.336 89.0485 187.638L126.589 168.295C128.447 167.339 129.176 165.057 128.219 163.2C127.263 161.343 124.981 160.614 123.124 161.57L91.0613 178.091Z"
        fill-rule="evenodd" style="fill: var(--color-primary); filter: brightness(115%);">
    </path>
    <path
        d="M89.1698 176.196L89.6951 148.699C89.735 146.61 88.0741 144.885 85.9853 144.845C83.8966 144.805 82.1709 146.466 82.131 148.555L81.4884 182.195C81.4634 183.501 82.1029 184.665 83.096 185.363C84.2233 186.242 85.8029 186.441 87.157 185.744L124.698 166.401C126.555 165.444 127.285 163.163 126.328 161.306C125.371 159.449 123.09 158.719 121.233 159.676L89.1698 176.196Z"
        style="stroke: var(--color-primary);" stroke-width="3">
    </path>
    <path style="stroke: var(--color-primary);" stroke-width="1" stroke-linecap="round"
        d="M83.1203 189.647C82.0348 189.851 80.9893 189.137 80.7852 188.051">
    </path>
    <path style="stroke: var(--color-primary);" stroke-width="1" stroke-linecap="round"
        d="M82.3868 194.326C79.229 194.689 76.1628 192.38 76.3702 189.196">
    </path>
    <path
        d="M135.462 156.575C135.462 156.575 129.046 150.978 126.113 154.965C123.18 158.952 143.676 180.612 143.676 180.612L135.462 156.575Z"
        style="fill: var(--color-svg-background)">
    </path>
    <path style="stroke: var(--color-svg-border)" stroke-width="2" stroke-linecap="round"
        d="M135.468 156.574C135.468 156.574 129.052 150.977 126.119 154.964C123.186 158.951 145.24 180.88 145.24 180.88">
    </path>
    <path
        d="M221.985 162.681C221.985 162.681 244.985 150.181 258.985 155.181C272.985 160.181 281.985 200.181 262.485 200.181C242.985 200.181 208.985 200.181 208.985 200.181L163.2 192.681L221.985 162.681Z"
        style="fill: var(--color-svg-background)">
    </path>
    <path style="stroke: var(--color-svg-border)" stroke-width="2" stroke-linecap="round"
        d="M221.99 162.681C221.99 162.681 244.99 150.181 258.99 155.181C272.99 160.181 281.99 200.181 262.49 200.181C242.99 200.181 208.99 200.181 208.99 200.181">
    </path>
    <path style="stroke: var(--color-svg-border)" stroke-width="2" stroke-linecap="round"
        d="M250.49 175.18C250.49 175.18 241.49 186.68 243.49 194.68C239.49 197.18 241.49 199.68 241.49 199.68">
    </path>
    <path
        d="M221.008 194.68C221.008 194.68 193.99 208.68 189.008 202.68C184.027 196.68 197.008 188.68 197.008 188.68L197.008 188.68L221.008 194.68Z"
        style="fill: var(--color-svg-background)">
    </path>
    <path style="stroke: var(--color-svg-border)" stroke-width="2" stroke-linecap="round"
        d="M221.008 194.68C221.008 194.68 193.99 208.68 189.008 202.68C184.027 196.68 197.008 188.68 197.008 188.68L197.008 188.68">
    </path>
    <ellipse cx="187.5076602770775" cy="142.27721283231125"
        transform="rotate(5.8245429050404605 150.03509521484375 88.85302734375)"
        rx="37.47256506223373" ry="53.424185488561236"
        style="stroke: var(--color-primary); filter: brightness(115%);"
        stroke-width="12">
    </ellipse>
    <path
        d="M205.959 187.002C208.123 184.501 210.107 181.761 211.911 178.78C213.715 175.798 215.307 172.631 216.686 169.276C218.082 165.881 219.236 162.352 220.149 158.689C221.082 154.946 221.747 151.12 222.146 147.212C222.545 143.305 222.665 139.425 222.507 135.571C222.352 131.8 221.934 128.112 221.253 124.505C220.579 120.942 219.66 117.519 218.495 114.235C217.33 110.951 215.94 107.867 214.326 104.982C212.688 102.056 210.851 99.389 208.812 96.9817C206.715 94.5055 204.446 92.35 202.003 90.5151C199.465 88.609 196.788 87.0846 193.972 85.942C191.048 84.7554 188.031 84.0036 184.921 83.6863C181.811 83.3691 178.705 83.4964 175.603 84.0683C172.615 84.6189 169.686 85.5716 166.816 86.9262C164.054 88.2302 161.396 89.8831 158.844 91.885C156.362 93.8311 154.024 96.0718 151.83 98.6072C149.667 101.107 147.683 103.847 145.879 106.828C144.075 109.809 142.484 112.976 141.105 116.329C139.709 119.724 138.555 123.252 137.642 126.914C136.709 130.657 136.043 134.482 135.645 138.388C135.246 142.296 135.126 146.177 135.284 150.032C135.438 153.803 135.856 157.493 136.538 161.1C137.211 164.664 138.13 168.088 139.295 171.372C140.46 174.656 141.849 177.741 143.463 180.626C145.1 183.552 146.937 186.219 148.975 188.627C151.071 191.103 153.34 193.259 155.782 195.093C158.319 197 160.995 198.525 163.811 199.667C166.734 200.854 169.75 201.606 172.859 201.923C175.97 202.24 179.077 202.113 182.18 201.542C185.169 200.991 188.098 200.038 190.969 198.684C193.732 197.379 196.39 195.726 198.944 193.724C201.426 191.778 203.765 189.537 205.959 187.002ZM201.644 172.567C200.191 174.968 198.605 177.162 196.885 179.149C195.196 181.101 193.414 182.811 191.54 184.281C189.694 185.728 187.797 186.911 185.848 187.831C181.951 189.67 178.028 190.388 174.077 189.985C170.129 189.582 166.434 188.087 162.991 185.5C161.268 184.205 159.649 182.663 158.134 180.874C156.595 179.056 155.196 177.021 153.936 174.768C152.653 172.474 151.543 170.005 150.605 167.36C149.646 164.658 148.888 161.829 148.329 158.873C147.756 155.839 147.404 152.729 147.274 149.542C147.139 146.257 147.242 142.945 147.583 139.606C147.924 136.268 148.491 133.004 149.286 129.816C150.057 126.722 151.029 123.747 152.203 120.893C153.347 118.11 154.661 115.493 156.145 113.041C157.598 110.64 159.184 108.447 160.904 106.46C162.593 104.508 164.374 102.798 166.248 101.328C168.093 99.8812 169.99 98.6979 171.939 97.778C175.834 95.9395 179.755 95.2216 183.703 95.6243C187.653 96.0273 191.351 97.5226 194.796 100.11C196.52 101.405 198.139 102.947 199.654 104.736C201.193 106.554 202.593 108.589 203.853 110.841C205.136 113.135 206.247 115.603 207.185 118.248C208.144 120.949 208.903 123.778 209.461 126.734C210.035 129.766 210.387 132.876 210.517 136.062C210.652 139.345 210.549 142.656 210.208 145.994C209.867 149.334 209.3 152.598 208.505 155.788C207.733 158.883 206.761 161.858 205.587 164.713C204.443 167.496 203.129 170.114 201.644 172.567Z"
        style="stroke: var(--color-primary);" stroke-width="3">
    </path>
    <path
        d="M269.442 138.808L303.754 111.859C306.36 109.812 306.813 106.04 304.767 103.434C302.72 100.828 298.948 100.375 296.342 102.422L254.363 135.392C252.726 136.678 251.939 138.644 252.086 140.574C252.149 142.829 253.487 144.955 255.693 145.914L317.133 172.629C320.172 173.95 323.706 172.558 325.028 169.519C326.349 166.48 324.957 162.946 321.918 161.624L269.442 138.808Z"
        fill-rule="evenodd" style="fill: var(--color-primary); filter: brightness(115%);">
    </path>
    <path
        d="M269.872 134.578L304.184 107.629C306.79 105.582 307.243 101.81 305.197 99.2043C303.15 96.5983 299.378 96.145 296.772 98.1917L254.793 131.162C253.156 132.448 252.369 134.414 252.516 136.344C252.579 138.6 253.917 140.725 256.123 141.684L317.563 168.399C320.602 169.72 324.137 168.328 325.458 165.289C326.779 162.25 325.387 158.716 322.348 157.395L269.872 134.578Z"
        style="stroke: var(--color-primary);" stroke-width="3">
    </path>
</svg>
    