<svg xmlns="http://www.w3.org/2000/svg" xmlns:xlink="http://www.w3.org/1999/xlink" width="400"
    height="300" viewBox="0 0 400 300" fill="none">
    <ellipse cx="227.48777770996094" cy="238.68157958984375" rx="78" ry="15"
        style="fill: var(--color-svg-muted)">
    </ellipse>
    <path
        d="M219.093 87.141C219.093 87.141 221.879 78.2188 224.267 78.3246C226.655 78.4304 230.897 94.528 230.897 94.528L219.093 87.141Z"
        style="fill: var(--color-svg-accent)">
    </path>
    <path style="fill: var(--color-svg-background)"
        d="M161.988 176.182C161.988 176.182 138.988 225.682 150.488 231.682C161.988 237.682 213.988 244.682 218.988 231.682C223.988 218.682 213.988 178.182 213.988 178.182L161.988 176.182">
    </path>
    <path
        d="M195 82C165.608 82 138 98.2283 138 128.48C138 142.097 142.658 159.929 154.5 170C164.787 178.749 180.117 180 195.75 180C229.378 180 249.896 156.659 248.97 128.48C248.044 100.301 224.392 82 195 82Z"
        style="fill: var(--color-svg-background)">
    </path>
    <path
        d="M171.437 85.2835C171.437 85.2835 165.68 75.9845 164.151 76.6911C162.622 77.3977 159.326 91.0155 159.326 91.0155L171.437 85.2835Z"
        style="fill: var(--color-svg-accent)">
    </path>
    <path style="stroke: var(--color-svg-border)" stroke-width="2" stroke-linejoin="round"
        stroke-linecap="round"
        d="M212.324 84.0968C212.324 84.0968 218.346 64.2941 224.317 62.7763C230.288 61.2584 239.923 102.368 239.923 102.368">
    </path>
    <path style="stroke: var(--color-svg-border)" stroke-width="2" stroke-linejoin="round"
        stroke-linecap="round"
        d="M179.394 82.9922C179.394 82.9922 166.43 62.095 161.536 62.9899C156.643 63.8849 150.134 99.0034 150.134 99.0034">
    </path>
    <path style="stroke: var(--color-svg-border)" stroke-width="2" stroke-linecap="round"
        d="M164.111 176.295C164.111 176.295 158.338 174.411 153.553 169.888C142.966 159.883 137.488 144.768 137.488 130.075C137.488 101.769 162.005 82.025 193.947 82.025C225.889 82.025 249.488 103.142 249.488 131.448C249.488 146.141 244.358 159.224 233.181 168.569C227.839 173.036 216.439 179.025 204.504 179.025">
    </path>
    <ellipse cx="179.63802446637834" cy="128.68157958984375"
        transform="rotate(13.810480512823133 175.35231018066406 122.68157958984375)"
        rx="4.285714285714286" ry="6" style="fill: var(--color-svg-border)">
    </ellipse>
    <ellipse cx="223.72333635602678" cy="133.52239990234375"
        transform="rotate(13.810480512823133 219.4376220703125 127.52239990234375)"
        rx="4.285714285714286" ry="6" style="fill: var(--color-svg-border)">
    </ellipse>
    <rect x="170.8419647216797" y="120.84075927734375" width="11" height="2"
        transform="rotate(12.694423112125945 170.8419647216797 120.84075927734375)" rx="1"
        style="fill: var(--color-svg-border)">
    </rect>
    <rect x="214.92726135253906" y="125.68157958984375" width="11" height="2"
        transform="rotate(12.694423112125945 214.92726135253906 125.68157958984375)" rx="1"
        style="fill: var(--color-svg-border)">
    </rect>
    <path
        d="M198.319 139.074C200.014 139.218 201.438 138.612 201.605 137.619C201.788 136.529 200.391 135.387 198.485 135.066C196.579 134.746 194.885 135.37 194.702 136.459C194.535 137.452 195.683 138.491 197.332 138.908L197.08 140.408C197.035 140.68 197.218 140.938 197.491 140.984C197.763 141.029 198.021 140.846 198.067 140.573L198.319 139.074Z"
        fill-rule="evenodd" style="fill: var(--color-svg-border)">
    </path>
    <rect x="166.04476928710938" y="136.23468017578125" width="2" height="7"
        transform="rotate(41.26949716311736 166.04476928710938 136.23468017578125)" rx="1"
        style="fill: var(--color-primary)">
    </rect>
    <rect x="230.42755126953125" y="144.55389404296875" width="2" height="7"
        transform="rotate(-41.26949716311736 230.42755126953125 144.55389404296875)" rx="1"
        style="fill: var(--color-primary)">
    </rect>
    <rect x="161.13742065429688" y="134.28009033203125" width="2" height="7"
        transform="rotate(42.894116839013215 161.13742065429688 134.28009033203125)" rx="1"
        style="fill: var(--color-primary)">
    </rect>
    <rect x="234.37290954589844" y="143.64141845703125" width="2" height="7"
        transform="rotate(-42.894116839013215 234.37290954589844 143.64141845703125)" rx="1"
        style="fill: var(--color-primary)">
    </rect>
    <rect x="170.85366821289062" y="137.85736083984375" width="2" height="5"
        transform="rotate(29.61150972835022 170.85366821289062 137.85736083984375)" rx="1"
        style="fill: var(--color-primary)">
    </rect>
    <rect x="224.38308715820312" y="145.84552001953125" width="2" height="5"
        transform="rotate(-29.61150972835022 224.38308715820312 145.84552001953125)" rx="1"
        style="fill: var(--color-primary)">
    </rect>
    <path style="stroke: var(--color-svg-border)" stroke-width="2" stroke-linecap="round"
        d="M161.988 176.182C161.988 176.182 138.988 225.682 150.488 231.682C161.988 237.682 213.988 244.682 218.988 231.682C223.988 218.682 213.988 178.182 213.988 178.182L213.988 178.182">
    </path>
    <path
        d="M159.988 216.182C159.988 216.182 144.488 235.182 149.988 238.682C155.488 242.182 175.988 220.682 175.988 220.682L159.988 216.182Z"
        style="fill: var(--color-svg-background)">
    </path>
    <path style="stroke: var(--color-svg-border)" stroke-width="2" stroke-linecap="round"
        d="M159.988 216.182C159.988 216.182 144.488 235.182 149.988 238.682C155.488 242.182 175.988 220.682 175.988 220.682">
    </path>
    <path style="stroke: var(--color-svg-border)" stroke-width="2" stroke-linecap="round"
        d="M200.988 204.682C200.988 204.682 184.488 213.682 189.988 232.182C186.488 234.182 186.488 238.182 186.488 238.182L186.488 238.182">
    </path>
    <path
        d="M220.988 225.182C220.988 225.182 225.653 225.797 233.488 217.682C241.322 209.566 237.988 202.182 250.488 193.182C262.988 184.182 278.488 182.182 281.488 189.182C284.488 196.182 273.488 198.182 260.988 201.682C248.488 205.182 251.96 218.484 239.988 225.182C228.015 231.879 219.988 230.682 219.988 230.682L219.988 230.682L220.988 225.182Z"
        style="fill: var(--color-svg-background)">
    </path>
    <path style="stroke: var(--color-svg-border)" stroke-width="2" stroke-linecap="round"
        d="M220.988 225.182C220.988 225.182 225.653 225.797 233.488 217.682C241.322 209.566 237.988 202.182 250.488 193.182C262.988 184.182 278.488 182.182 281.488 189.182C284.488 196.182 273.488 198.182 260.988 201.682C248.488 205.182 251.96 218.484 239.988 225.182C228.015 231.879 219.988 230.682 219.988 230.682L219.988 230.682">
    </path>
    <ellipse cx="283.34967041015625" cy="227.5525406296985"
        transform="rotate(34.628806278829096 276.34967041015625 218.17364501953125)" rx="7"
        ry="9.378895610167277" style="fill: var(--color-primary); filter: brightness(115%);">
    </ellipse>
    <ellipse cx="280.3532409667969" cy="224.549000590636"
        transform="rotate(34.628806278829096 273.3532409667969 215.17010498046875)" rx="7"
        ry="9.378895610167277" style="stroke: var(--color-primary);" stroke-width="3">
    </ellipse>
    <path style="stroke: var(--color-primary); filter: brightness(115%);" stroke-width="12"
        stroke-linecap="round"
        d="M232.438 197.714C232.438 197.714 233.471 183.691 250.655 176.603C267.839 169.514 283.799 176.681 283.799 176.681">
    </path>
    <path
        d="M230.752 200.564C230.848 200.542 230.943 200.518 231.038 200.492C231.133 200.466 231.227 200.437 231.32 200.407C231.413 200.376 231.506 200.343 231.597 200.307C231.689 200.272 231.779 200.234 231.869 200.195C231.959 200.155 232.048 200.113 232.135 200.069C232.223 200.025 232.31 199.978 232.395 199.93C232.481 199.881 232.565 199.831 232.648 199.778C232.731 199.726 232.812 199.671 232.893 199.615C232.973 199.558 233.052 199.5 233.129 199.439C233.206 199.379 233.282 199.317 233.357 199.253C233.431 199.188 233.504 199.122 233.575 199.055C233.646 198.987 233.715 198.918 233.783 198.846C233.851 198.775 233.917 198.703 233.981 198.628C234.045 198.554 234.107 198.478 234.168 198.401C234.228 198.323 234.287 198.244 234.343 198.164C234.4 198.084 234.454 198.002 234.507 197.919C234.559 197.836 234.61 197.752 234.658 197.667C234.706 197.581 234.753 197.495 234.797 197.407C234.841 197.319 234.883 197.23 234.923 197.141C234.963 197.051 235 196.96 235.035 196.869C235.071 196.777 235.104 196.684 235.135 196.591C235.165 196.498 235.194 196.404 235.22 196.309C235.246 196.215 235.27 196.12 235.292 196.024C235.313 195.928 235.332 195.832 235.349 195.735C235.366 195.638 235.38 195.541 235.392 195.444C235.404 195.346 235.414 195.248 235.421 195.15L235.444 195.152L235.421 195.15L235.421 195.152C235.419 195.18 235.417 195.204 235.416 195.223L235.416 195.221C235.422 195.166 235.432 195.097 235.444 195.014C235.497 194.675 235.576 194.302 235.68 193.895C236.042 192.482 236.604 191.081 237.365 189.693C238.452 187.709 239.871 185.912 241.62 184.303C243.889 182.218 246.662 180.498 249.942 179.146C253.305 177.758 256.851 176.91 260.579 176.6C263.598 176.35 266.67 176.455 269.795 176.916C272.032 177.246 274.173 177.736 276.218 178.386C276.836 178.583 277.4 178.78 277.911 178.978C278.127 179.062 278.27 179.119 278.34 179.151L278.34 179.151C278.43 179.191 278.521 179.229 278.612 179.265C278.703 179.301 278.796 179.334 278.889 179.365C278.982 179.397 279.076 179.426 279.17 179.452C279.265 179.479 279.36 179.503 279.456 179.525C279.551 179.547 279.647 179.567 279.744 179.584C279.841 179.601 279.938 179.616 280.035 179.629C280.133 179.641 280.23 179.651 280.328 179.659C280.426 179.667 280.524 179.672 280.622 179.675C280.72 179.678 280.818 179.678 280.917 179.676C281.015 179.674 281.113 179.67 281.211 179.663C281.309 179.656 281.406 179.647 281.504 179.636C281.602 179.624 281.699 179.61 281.796 179.594C281.892 179.578 281.989 179.559 282.085 179.538C282.181 179.517 282.276 179.493 282.371 179.468C282.465 179.442 282.559 179.414 282.653 179.383C282.746 179.353 282.839 179.321 282.931 179.286C283.022 179.251 283.113 179.214 283.203 179.174C283.293 179.135 283.382 179.093 283.47 179.05C283.558 179.006 283.645 178.96 283.73 178.912C283.816 178.864 283.901 178.814 283.984 178.762C284.067 178.71 284.149 178.656 284.229 178.599C284.31 178.543 284.389 178.485 284.467 178.425C284.544 178.365 284.621 178.303 284.695 178.24C284.77 178.176 284.843 178.11 284.914 178.043C284.986 177.975 285.056 177.906 285.124 177.836C285.192 177.765 285.258 177.692 285.322 177.618C285.387 177.544 285.45 177.469 285.51 177.392C285.571 177.314 285.63 177.236 285.687 177.156C285.744 177.076 285.799 176.995 285.852 176.912C285.905 176.829 285.956 176.745 286.004 176.66C286.053 176.575 286.1 176.489 286.145 176.401C286.189 176.314 286.231 176.225 286.272 176.135C286.352 175.956 286.424 175.773 286.486 175.587C286.549 175.401 286.602 175.212 286.646 175.02C286.69 174.829 286.725 174.636 286.749 174.441C286.775 174.246 286.79 174.05 286.796 173.854C286.801 173.657 286.798 173.461 286.784 173.265C286.771 173.069 286.748 172.874 286.715 172.68C286.682 172.487 286.64 172.295 286.589 172.105C286.537 171.916 286.477 171.729 286.407 171.545C286.337 171.362 286.258 171.182 286.171 171.006C286.083 170.83 285.987 170.659 285.883 170.492C285.779 170.325 285.666 170.164 285.546 170.009C285.426 169.853 285.299 169.704 285.164 169.561C285.029 169.418 284.887 169.282 284.739 169.153C284.591 169.024 284.437 168.903 284.277 168.789C284.117 168.675 283.952 168.569 283.781 168.471C283.61 168.374 283.436 168.284 283.256 168.204L283.256 168.204C282.994 168.087 282.658 167.948 282.247 167.789C281.505 167.501 280.708 167.222 279.854 166.951C277.193 166.105 274.424 165.469 271.547 165.045C267.51 164.449 263.524 164.315 259.586 164.642C254.619 165.054 249.879 166.191 245.366 168.052C240.771 169.948 236.815 172.42 233.498 175.47C230.78 177.969 228.561 180.788 226.841 183.926C225.597 186.197 224.668 188.527 224.056 190.915C223.856 191.697 223.699 192.448 223.587 193.169C223.521 193.594 223.477 193.96 223.454 194.268L223.454 194.269L223.454 194.269C223.446 194.367 223.442 194.465 223.439 194.563C223.437 194.661 223.437 194.759 223.439 194.857C223.442 194.955 223.446 195.054 223.454 195.151C223.461 195.249 223.47 195.347 223.483 195.445C223.495 195.542 223.509 195.639 223.526 195.736C223.543 195.833 223.562 195.929 223.583 196.025C223.605 196.12 223.629 196.216 223.655 196.31C223.681 196.405 223.709 196.499 223.74 196.592C223.771 196.685 223.804 196.778 223.84 196.869C223.875 196.961 223.912 197.052 223.952 197.141C223.992 197.231 224.034 197.32 224.078 197.408C224.122 197.495 224.169 197.582 224.217 197.667C224.265 197.753 224.316 197.837 224.368 197.92C224.421 198.003 224.476 198.085 224.532 198.165C224.589 198.245 224.647 198.324 224.708 198.401C224.768 198.479 224.83 198.555 224.894 198.629C224.959 198.703 225.024 198.776 225.092 198.847C225.16 198.918 225.229 198.988 225.3 199.055C225.372 199.123 225.444 199.189 225.519 199.253C225.593 199.317 225.669 199.38 225.746 199.44C225.824 199.5 225.903 199.559 225.983 199.615C226.063 199.672 226.145 199.726 226.228 199.779C226.311 199.831 226.395 199.882 226.48 199.93C226.566 199.979 226.652 200.025 226.74 200.069C226.828 200.113 226.917 200.155 227.006 200.195C227.096 200.235 227.187 200.272 227.278 200.308C227.37 200.343 227.462 200.376 227.556 200.407C227.649 200.438 227.743 200.466 227.838 200.492C227.932 200.519 228.027 200.542 228.123 200.564C228.219 200.585 228.315 200.605 228.412 200.621C228.509 200.638 228.606 200.653 228.703 200.665C228.801 200.677 228.898 200.686 228.996 200.693C229.094 200.701 229.192 200.705 229.291 200.708C229.389 200.71 229.487 200.71 229.585 200.708C229.683 200.705 229.781 200.7 229.879 200.693C229.977 200.686 230.075 200.676 230.172 200.664C230.27 200.652 230.367 200.638 230.464 200.621C230.56 200.604 230.657 200.585 230.752 200.564Z"
        style="stroke: var(--color-primary);" stroke-width="3" stroke-linecap="round">
    </path>
    <path style="stroke: var(--color-primary); filter: brightness(115%);" stroke-width="12"
        stroke-linecap="round"
        d="M250.278 209.244C250.278 209.244 251.964 202.341 261.887 197.593C271.809 192.845 279.38 194.766 279.38 194.766">
    </path>
    <path
        d="M282.375 191.493C282.37 191.395 282.363 191.297 282.354 191.199C282.345 191.101 282.333 191.004 282.319 190.907C282.305 190.809 282.288 190.713 282.269 190.616C282.25 190.52 282.229 190.424 282.206 190.329C282.182 190.233 282.156 190.139 282.128 190.045C282.1 189.951 282.069 189.857 282.036 189.765C282.004 189.672 281.969 189.58 281.931 189.49C281.894 189.399 281.854 189.309 281.813 189.22C281.771 189.131 281.727 189.043 281.681 188.957C281.635 188.87 281.587 188.784 281.537 188.7C281.487 188.616 281.434 188.532 281.38 188.451C281.326 188.369 281.269 188.288 281.211 188.209C281.153 188.13 281.093 188.053 281.031 187.977C280.969 187.9 280.905 187.826 280.839 187.753C280.773 187.68 280.706 187.609 280.637 187.539C280.567 187.469 280.496 187.402 280.424 187.335C280.351 187.269 280.277 187.205 280.201 187.142C280.126 187.08 280.049 187.019 279.97 186.961C279.891 186.902 279.811 186.845 279.73 186.79C279.648 186.735 279.565 186.683 279.481 186.632C279.397 186.581 279.312 186.533 279.225 186.486C279.139 186.439 279.051 186.395 278.963 186.353C278.874 186.31 278.785 186.27 278.694 186.233C278.603 186.195 278.512 186.159 278.419 186.126C278.327 186.092 278.234 186.061 278.14 186.033C278.046 186.004 277.952 185.977 277.857 185.953C277.295 185.811 276.601 185.689 275.772 185.587C274.305 185.408 272.761 185.347 271.139 185.406C268.927 185.486 266.699 185.786 264.454 186.306C261.687 186.947 258.968 187.906 256.298 189.183C253.56 190.494 251.131 192.046 249.012 193.839C247.252 195.328 245.744 196.951 244.485 198.707C243.545 200.02 242.781 201.353 242.194 202.705C241.85 203.499 241.602 204.205 241.451 204.824C241.404 205.015 241.367 205.207 241.339 205.402C241.312 205.596 241.294 205.792 241.285 205.988C241.277 206.184 241.278 206.381 241.289 206.577C241.3 206.773 241.32 206.968 241.35 207.163C241.38 207.357 241.419 207.549 241.468 207.739C241.517 207.93 241.575 208.117 241.643 208.302C241.71 208.486 241.786 208.667 241.871 208.844C241.956 209.022 242.05 209.194 242.152 209.362C242.254 209.53 242.364 209.693 242.482 209.85C242.6 210.007 242.725 210.158 242.858 210.303C242.991 210.447 243.131 210.585 243.277 210.716C243.423 210.848 243.576 210.971 243.734 211.087C243.893 211.203 244.057 211.311 244.226 211.411C244.395 211.511 244.569 211.603 244.747 211.686C244.925 211.769 245.107 211.843 245.292 211.908C245.477 211.973 245.666 212.029 245.857 212.076C246.047 212.122 246.24 212.159 246.435 212.187C246.629 212.215 246.825 212.233 247.021 212.241C247.217 212.25 247.414 212.248 247.61 212.238C247.806 212.227 248.001 212.206 248.195 212.176C248.39 212.146 248.582 212.107 248.772 212.058C248.963 212.009 249.15 211.951 249.335 211.884C249.519 211.817 249.7 211.74 249.877 211.655C250.054 211.57 250.227 211.477 250.395 211.375C250.557 211.276 250.715 211.17 250.867 211.056C251.02 210.942 251.166 210.822 251.307 210.694C251.448 210.566 251.583 210.432 251.711 210.292C251.839 210.152 251.96 210.005 252.075 209.854C252.189 209.702 252.296 209.545 252.395 209.383C252.494 209.221 252.586 209.054 252.669 208.883C252.753 208.713 252.828 208.538 252.895 208.36C252.962 208.182 253.02 208.002 253.07 207.818C253.101 207.726 253.145 207.615 253.202 207.482C253.45 206.912 253.796 206.316 254.24 205.696C254.921 204.746 255.762 203.847 256.764 202.999C258.097 201.871 259.668 200.874 261.477 200.008C263.355 199.11 265.25 198.439 267.161 197.996C268.658 197.65 270.129 197.45 271.572 197.398C272.561 197.362 273.475 197.396 274.314 197.498C274.541 197.526 274.74 197.556 274.91 197.589C274.938 197.594 274.961 197.599 274.977 197.602C275.165 197.648 275.355 197.684 275.547 197.711C275.738 197.737 275.931 197.755 276.124 197.763C276.317 197.772 276.51 197.771 276.703 197.76C276.896 197.75 277.089 197.73 277.28 197.701C277.471 197.672 277.661 197.634 277.848 197.587C278.036 197.539 278.22 197.483 278.403 197.418C278.585 197.353 278.763 197.279 278.938 197.197C279.113 197.114 279.284 197.023 279.45 196.925C279.619 196.824 279.782 196.716 279.941 196.599C280.099 196.482 280.251 196.358 280.397 196.227C280.543 196.095 280.682 195.957 280.814 195.812C280.947 195.667 281.072 195.515 281.189 195.358C281.307 195.2 281.416 195.037 281.518 194.869C281.619 194.701 281.713 194.528 281.797 194.351C281.882 194.173 281.957 193.992 282.024 193.807C282.091 193.623 282.148 193.435 282.197 193.244C282.221 193.149 282.243 193.054 282.262 192.957C282.282 192.861 282.299 192.764 282.313 192.667C282.328 192.57 282.34 192.473 282.35 192.375C282.36 192.277 282.368 192.18 282.373 192.081C282.378 191.983 282.381 191.885 282.381 191.787C282.381 191.689 282.379 191.591 282.375 191.493ZM253.071 207.815C253.078 207.791 253.091 207.742 253.108 207.67C253.097 207.716 253.085 207.763 253.073 207.809C253.072 207.811 253.072 207.813 253.071 207.815Z"
        style="stroke: var(--color-primary);" stroke-width="3" stroke-linecap="round">
    </path>
    <path style="stroke: var(--color-primary);" stroke-width="1" stroke-linecap="round"
        d="M291.366 168.298C291.662 167.233 291.038 166.131 289.974 165.836">
    </path>
    <path style="stroke: var(--color-primary);" stroke-width="1" stroke-linecap="round"
        d="M296.091 167.962C296.72 164.847 294.68 161.595 291.491 161.532">
    </path>
    <path style="stroke: var(--color-primary);" stroke-width="1" stroke-linecap="round"
        d="M92.0161 76.9084C91.3435 76.0322 91.5086 74.7766 92.3848 74.104">
    </path>
    <path style="stroke: var(--color-primary);" stroke-width="1" stroke-linecap="round"
        d="M87.5094 78.3668C85.7591 75.7136 86.4333 71.935 89.367 70.6816">
    </path>
    <circle cx="126.9877700805664" cy="107.18157958984375" r="4.5"
        style="fill: var(--color-svg-accent)">
    </circle>
    <path style="stroke: var(--color-svg-accent)" stroke-width="8" stroke-linecap="round"
        d="M99.561 78.4235C99.4924 76.8371 99.7418 75.2644 100.276 73.7955C101.327 70.9097 103.478 68.4245 106.481 67.0241C112.488 64.2232 119.628 66.8219 122.428 72.8283C125.224 78.8227 122.787 87.0174 116.806 89.8301">
    </path>
    <rect x="118.49916076660156" y="84.68157958984375" width="16" height="8"
        transform="rotate(61.21388500002559 118.49916076660156 84.68157958984375)" rx="4"
        style="fill: var(--color-svg-accent)">
    </rect>
</svg>
    